# https://github.com/mikedh/trimesh
v -0.02957400 -0.02957400 -0.03775000
v -0.03775000 -0.02957400 -0.02957400
v 0.02957400 0.02957400 -0.03775000
v -0.03775000 0.02957400 0.02957400
v 0.03775000 -0.03775000 0.03775000
v 0.02957400 -0.03775000 0.02957400
v 0.03775000 0.03775000 -0.03775000
v -0.03775000 0.03775000 0.03775000
v -0.02957400 -0.03775000 -0.02957400
v -0.03775000 -0.03775000 -0.03775000
v 0.02957400 0.02957400 0.03775000
v -0.02957400 -0.02957400 0.03775000
v 0.03775000 0.03775000 0.03775000
v 0.03775000 -0.03775000 -0.03775000
v 0.03775000 0.02957400 0.02957400
v 0.03775000 -0.02957400 -0.02957400
v -0.02957400 0.03775000 -0.02957400
v 0.02957400 0.03775000 0.02957400
v -0.03775000 0.03775000 -0.03775000
v -0.03775000 -0.03775000 0.03775000
v -0.02957400 0.02957400 -0.03397600
v 0.02957400 0.02957400 0.03397600
v 0.02957400 -0.02957400 -0.03397600
v -0.03397600 0.02957400 -0.02957400
v -0.03397600 -0.02957400 0.02957400
v -0.02957400 -0.02957400 0.03397600
v -0.02957400 0.03397600 -0.02957400
v 0.03397600 0.02957400 0.02957400
v 0.03397600 -0.02957400 -0.02957400
v 0.02957400 0.03397600 0.02957400
v -0.02957400 -0.03397600 0.02957400
v 0.02957400 -0.03397600 -0.02957400
v 0.02957400 0.02957400 -0.03397600
v -0.02957400 0.02957400 0.03397600
v 0.02957400 -0.02957400 0.03397600
v -0.02957400 -0.02957400 -0.03397600
v -0.03397600 -0.02957400 -0.02957400
v -0.03397600 0.02957400 0.02957400
v 0.02957400 -0.03397600 0.02957400
v 0.03397600 0.02957400 -0.02957400
v 0.03397600 -0.02957400 0.02957400
v 0.02957400 0.03397600 -0.02957400
v -0.02957400 0.03397600 0.02957400
v -0.02957400 -0.03397600 -0.02957400
v -0.02957400 0.02957400 0.03775000
v 0.02957400 -0.02957400 0.03775000
v -0.02957400 0.03775000 0.02957400
v 0.03775000 -0.02957400 0.02957400
v 0.03775000 0.02957400 -0.02957400
v 0.02957400 0.03775000 -0.02957400
v -0.03775000 -0.02957400 0.02957400
v -0.02957400 0.02957400 -0.03775000
v 0.02957400 -0.02957400 -0.03775000
v -0.03775000 0.02957400 -0.02957400
v -0.02957400 -0.03775000 0.02957400
v 0.02957400 -0.03775000 -0.02957400
vn 0.30151134 0.30151134 -0.90453403
vn -0.90453403 0.30151134 0.30151134
vn -0.30151134 -0.30151134 -0.90453403
vn -0.90453403 -0.30151134 -0.30151134
vn 0.57735027 -0.57735027 0.57735027
vn -0.30151134 -0.90453403 -0.30151134
vn 0.57735027 0.57735027 -0.57735027
vn -0.57735027 0.57735027 0.57735027
vn 0.30151134 -0.90453403 0.30151134
vn -0.57735027 -0.57735027 -0.57735027
vn -0.30151134 -0.30151134 0.90453403
vn 0.30151134 0.30151134 0.90453403
vn 0.57735027 0.57735027 0.57735027
vn 0.57735027 -0.57735027 -0.57735027
vn 0.90453403 -0.30151134 -0.30151134
vn 0.90453403 0.30151134 0.30151134
vn 0.30151134 0.90453403 0.30151134
vn -0.30151134 0.90453403 -0.30151134
vn -0.57735027 0.57735027 -0.57735027
vn -0.57735027 -0.57735027 0.57735027
vn 0.57735027 -0.57735027 -0.57735027
vn -0.57735027 -0.57735027 0.57735027
vn -0.57735027 0.57735027 -0.57735027
vn -0.57735027 -0.57735027 0.57735027
vn -0.57735027 0.57735027 -0.57735027
vn 0.57735027 0.57735027 0.57735027
vn 0.57735027 0.57735027 0.57735027
vn 0.57735027 -0.57735027 -0.57735027
vn 0.57735027 0.57735027 0.57735027
vn -0.57735027 0.57735027 -0.57735027
vn 0.57735027 -0.57735027 -0.57735027
vn -0.57735027 -0.57735027 0.57735027
vn -0.57735027 -0.57735027 -0.57735027
vn 0.57735027 -0.57735027 0.57735027
vn -0.57735027 0.57735027 0.57735027
vn 0.57735027 0.57735027 -0.57735027
vn -0.57735027 0.57735027 0.57735027
vn -0.57735027 -0.57735027 -0.57735027
vn -0.57735027 -0.57735027 -0.57735027
vn 0.57735027 -0.57735027 0.57735027
vn 0.57735027 0.57735027 -0.57735027
vn -0.57735027 0.57735027 0.57735027
vn 0.57735027 0.57735027 -0.57735027
vn 0.57735027 -0.57735027 0.57735027
vn 0.30151134 -0.30151134 0.90453403
vn -0.30151134 0.30151134 0.90453403
vn 0.30151134 0.90453403 -0.30151134
vn 0.90453403 0.30151134 -0.30151134
vn 0.90453403 -0.30151134 0.30151134
vn -0.30151134 0.90453403 0.30151134
vn -0.90453403 0.30151134 -0.30151134
vn 0.30151134 -0.30151134 -0.90453403
vn -0.30151134 0.30151134 -0.90453403
vn -0.90453403 -0.30151134 0.30151134
vn 0.30151134 -0.90453403 -0.30151134
vn -0.30151134 -0.90453403 0.30151134
f 18//18 50//50 30//30
f 14//14 9//9 10//10
f 14//14 56//56 9//9
f 36//36 21//21 33//33
f 32//32 31//31 44//44
f 29//29 49//49 40//40
f 34//34 35//35 22//22
f 1//1 10//10 19//19
f 2//2 37//37 24//24
f 36//36 33//33 23//23
f 33//33 3//3 53//53
f 36//36 1//1 52//52
f 13//13 49//49 7//7
f 32//32 39//39 31//31
f 7//7 19//19 50//50
f 21//21 52//52 3//3
f 7//7 3//3 52//52
f 35//35 46//46 11//11
f 23//23 53//53 1//1
f 2//2 24//24 54//54
f 45//45 12//12 34//34
f 26//26 35//35 34//34
f 47//47 43//43 27//27
f 8//8 11//11 13//13
f 45//45 22//22 11//11
f 14//14 10//10 53//53
f 51//51 4//4 25//25
f 51//51 20//20 8//8
f 2//2 10//10 20//20
f 4//4 54//54 38//38
f 13//13 5//5 15//15
f 5//5 48//48 15//15
f 12//12 26//26 34//34
f 51//51 2//2 20//20
f 6//6 55//55 39//39
f 52//52 1//1 19//19
f 45//45 34//34 22//22
f 4//4 19//19 54//54
f 20//20 10//10 55//55
f 18//18 7//7 50//50
f 55//55 9//9 31//31
f 27//27 30//30 42//42
f 47//47 13//13 18//18
f 15//15 40//40 49//49
f 17//17 50//50 19//19
f 27//27 42//42 17//17
f 41//41 29//29 28//28
f 41//41 16//16 29//29
f 14//14 16//16 48//48
f 14//14 3//3 7//7
f 5//5 20//20 6//6
f 45//45 11//11 8//8
f 32//32 44//44 56//56
f 13//13 7//7 18//18
f 53//53 10//10 1//1
f 29//29 16//16 49//49
f 21//21 3//3 33//33
f 10//10 9//9 55//55
f 36//36 52//52 21//21
f 41//41 28//28 48//48
f 36//36 23//23 1//1
f 47//47 27//27 17//17
f 43//43 18//18 30//30
f 41//41 48//48 16//16
f 5//5 6//6 56//56
f 7//7 49//49 16//16
f 47//47 8//8 13//13
f 12//12 46//46 26//26
f 43//43 30//30 27//27
f 8//8 17//17 19//19
f 15//15 28//28 40//40
f 15//15 48//48 28//28
f 2//2 54//54 10//10
f 14//14 7//7 16//16
f 5//5 56//56 14//14
f 13//13 15//15 49//49
f 51//51 8//8 4//4
f 47//47 17//17 8//8
f 45//45 20//20 12//12
f 29//29 40//40 28//28
f 5//5 14//14 48//48
f 42//42 50//50 17//17
f 32//32 56//56 6//6
f 33//33 53//53 23//23
f 13//13 11//11 46//46
f 14//14 53//53 3//3
f 45//45 8//8 20//20
f 44//44 9//9 56//56
f 37//37 25//25 24//24
f 39//39 55//55 31//31
f 13//13 46//46 5//5
f 44//44 31//31 9//9
f 51//51 25//25 37//37
f 38//38 54//54 24//24
f 47//47 18//18 43//43
f 7//7 52//52 19//19
f 22//22 35//35 11//11
f 12//12 20//20 5//5
f 20//20 55//55 6//6
f 4//4 38//38 25//25
f 51//51 37//37 2//2
f 10//10 54//54 19//19
f 38//38 24//24 25//25
f 32//32 6//6 39//39
f 12//12 5//5 46//46
f 42//42 30//30 50//50
f 26//26 46//46 35//35
f 8//8 19//19 4//4