# https://github.com/mikedh/trimesh
v -0.00278700 0.12171400 -0.00508200
v 0.00057000 0.05480400 0.00717700
v -0.00825200 0.09926800 0.00061700
v -0.00221800 0.10757600 -0.00405900
v -0.00149300 0.10300000 0.00107200
v -0.00183900 0.10891100 0.00655200
v -0.00470300 0.10071500 0.00079200
v -0.00789000 0.10046500 0.00079800
v -0.00057200 0.10876500 0.00597400
v -0.00229600 0.10598000 0.00134200
v -0.00461800 0.09949300 0.00021200
v -0.00057900 0.10311800 0.00094100
v -0.00107100 0.10967300 0.00034300
v -0.00845100 0.09901700 0.00196900
v -0.00129600 0.10688600 0.00236200
v -0.00218700 0.10740500 0.00674500
v -0.00281200 0.11328300 0.00023400
v -0.00446800 0.09999200 0.00160300
v -0.00352200 0.09466500 -0.00529400
v -0.00051100 0.05466700 0.00776500
v -0.00148700 0.12513700 0.00703100
v -0.00796500 0.11499700 0.00076000
v -0.00307200 0.13061800 0.00088400
v -0.00278800 0.12949400 0.00185300
v -0.00313100 0.12316400 -0.00530700
v -0.00838200 0.11511600 0.00210300
v -0.00285700 0.12894000 0.00034200
v -0.00200600 0.08087000 0.00241900
v -0.00001000 0.08253900 0.00684700
v -0.00201500 0.08933700 0.00048300
v -0.00080000 0.08804700 0.00041300
v 0.00481900 0.11626100 0.00076200
v -0.00091400 0.11757200 0.00205900
v 0.00374300 0.11717400 0.00095000
v -0.00278800 0.11404300 0.00185300
v 0.00033200 0.06844600 0.00791900
v 0.00334000 0.11535700 0.00194000
v -0.00286800 0.12101200 0.00271000
v -0.00207700 0.12373000 0.00641600
v -0.00184400 0.11756200 0.00048600
v -0.00119500 0.11606500 0.00096500
v -0.00221700 0.12302600 -0.00405900
v -0.00229600 0.12076100 0.00133700
v 0.00309200 0.11542800 0.00055300
v -0.00218600 0.11758400 0.00204600
v -0.00028500 0.04815100 0.00176100
v -0.00165600 0.05429600 0.00042500
v -0.00756600 0.05975800 0.00079300
v -0.00041700 0.05534000 0.00017500
v -0.00659600 0.06085200 0.00090900
v -0.00242200 0.12253700 0.00234700
v -0.00129500 0.12166600 0.00236200
v 0.00451500 0.11603400 0.00197300
v 0.00365700 0.11677600 0.00215600
v -0.00053800 0.11798800 0.00067500
v -0.00291100 0.11522900 0.00093300
v -0.00074600 0.12352900 0.00636700
v 0.00578200 0.06172400 0.00085800
v -0.00052500 0.06779900 0.00050700
v -0.00218700 0.12398000 0.00774800
v -0.00040200 0.06698500 0.00262900
v -0.00120000 0.05349400 -0.00506900
v 0.00516400 0.06112400 0.00204800
v -0.00179800 0.06581200 0.00330800
v -0.00069800 0.05968600 0.00055300
v -0.00260000 0.06096400 0.00067100
v 0.00503500 0.05990500 0.00185300
v -0.00501500 0.04668300 0.00154200
v -0.00256000 0.05322000 -0.00548900
v -0.00262500 0.05937700 -0.00008800
v -0.00101600 0.06544000 0.00272100
v -0.00207600 0.06618300 0.00212300
v 0.00005100 0.06187400 0.00059600
v 0.00022300 0.06766300 0.00628900
v -0.00202800 0.05350200 -0.00424500
v -0.00009000 0.05328000 0.00050900
v -0.00608800 0.05976900 0.00070200
v 0.00612300 0.04750800 -0.00008000
v -0.00493800 0.04705600 0.00019300
v 0.00407500 0.06089600 0.00054600
v 0.00514400 0.05994300 0.00058600
v -0.00109400 0.06540000 0.00130300
v 0.00028500 0.06189800 0.00205600
v -0.00094800 0.12415700 0.00795900
v -0.00234300 0.06004700 0.00167700
v -0.00070100 0.06734900 -0.00406000
v 0.02843100 -0.11729800 0.01899700
v 0.02037700 -0.13061800 0.01361500
v 0.01899700 -0.11729800 0.02843100
v 0.01361600 -0.13061800 0.02037700
v 0.02952200 -0.12704900 0.00587100
v 0.02403700 -0.13061800 0.00478100
v 0.00587200 -0.12704800 0.02952200
v 0.00478100 -0.13061800 0.02403700
v 0.03419400 -0.11729800 -0.00000100
v -0.00000000 -0.11729800 0.03419400
v 0.03353700 -0.11729800 -0.00667200
v 0.03010000 -0.12704900 -0.00000100
v -0.00000000 -0.12704800 0.03010000
v -0.00667100 -0.11729800 0.03353700
v 0.02403700 -0.13061800 -0.00478200
v 0.02952200 -0.12704900 -0.00587300
v -0.00587300 -0.12704800 0.02952200
v -0.00478200 -0.13061700 0.02403700
v 0.02264200 -0.13061800 -0.00938000
v -0.00937900 -0.13061700 0.02264200
v 0.02967700 -0.10397900 -0.01983000
v 0.03297600 -0.10397900 -0.01366000
v 0.02450800 -0.13061700 -0.00000000
v -0.00000000 -0.13061700 0.02450800
v -0.01983000 -0.10397900 0.02967700
v -0.01366000 -0.10397900 0.03297500
v -0.02037800 -0.13061700 0.01361500
v 0.02843100 -0.11729800 -0.01899800
v -0.01899800 -0.11729800 0.02843100
v -0.01733000 -0.13061700 0.01732900
v 0.01732900 -0.13061800 -0.01733100
v 0.01361600 -0.13061800 -0.02037900
v 0.02502700 -0.12704900 -0.01672300
v 0.03353700 -0.11729800 0.00667000
v 0.00667100 -0.11729800 0.03353700
v -0.01672300 -0.12704900 0.02502800
v 0.02037700 -0.13061800 -0.01361700
v 0.02780900 -0.12704900 -0.01152000
v 0.03500700 -0.10397900 0.00696300
v 0.00696300 -0.10397900 0.03500700
v -0.01151900 -0.12704800 0.02780900
v -0.01361600 -0.13061700 0.02037700
v -0.00696300 -0.10397900 0.03500700
v 0.03500700 -0.10397900 -0.00696400
v -0.02523900 -0.10397900 0.02523800
v 0.02523900 -0.10397900 -0.02523900
v -0.02843200 -0.11729800 0.01899700
v 0.01899700 -0.11729800 -0.02843200
v 0.03569300 -0.10397900 -0.00000100
v -0.00000000 -0.10397900 0.03569200
v -0.02967800 -0.10397900 0.01983000
v 0.01983000 -0.10397900 -0.02967800
v -0.03297600 -0.10397900 0.01365900
v 0.01365900 -0.10397900 -0.03297600
v -0.03297600 -0.10397900 -0.01365900
v -0.01365900 -0.10397900 -0.03297600
v 0.03148900 -0.06471200 -0.01395800
v -0.01151900 -0.12704900 -0.02781000
v -0.02781000 -0.12704900 -0.01151900
v 0.02502700 -0.12704900 0.01672200
v 0.01672300 -0.12704800 0.02502700
v 0.00000000 -0.10397900 -0.03569300
v -0.03569300 -0.10397900 0.00000000
v -0.03500700 -0.10397900 -0.00696300
v 0.01733000 -0.13061700 0.01733000
v -0.00696400 -0.10397900 -0.03500800
v -0.01899800 -0.11729800 -0.02843200
v -0.01733000 -0.13061700 -0.01733000
v -0.02843200 -0.11729800 -0.01899800
v -0.00022300 0.07841500 0.00202600
v 0.00556500 0.07589900 0.00076600
v -0.00008800 0.06984900 0.00033900
v -0.00652500 0.08708100 0.00009600
v -0.00202900 0.07344900 0.00022400
v -0.00000000 -0.12704900 -0.03010100
v -0.03010100 -0.12704900 -0.00000000
v 0.03289900 -0.06465000 -0.01408800
v 0.02967700 -0.10397900 0.01983000
v 0.01983000 -0.10397900 0.02967700
v -0.00000000 -0.11729800 -0.03419400
v -0.00000100 -0.13061800 -0.02450900
v -0.02450800 -0.13061700 -0.00000000
v -0.03419500 -0.11729800 -0.00000000
v 0.03289900 -0.06465000 -0.00568200
v 0.02523900 -0.10397900 0.02523800
v -0.00587200 -0.12704900 -0.02952300
v -0.02523900 -0.10397900 -0.02523900
v -0.02952200 -0.12704900 -0.00587300
v -0.02403700 -0.13061800 0.00478100
v 0.00478100 -0.13061800 -0.02403800
v -0.00218800 0.10852900 0.00774800
v -0.00087700 0.08169600 -0.00532800
v -0.00183500 0.08358300 -0.00493800
v -0.00715300 0.08539600 0.00038200
v -0.00766400 0.08624900 0.00151000
v -0.00004700 0.07627000 0.00052800
v -0.00096600 0.07390400 0.00185200
v 0.00003000 0.06931500 0.00690200
v -0.03159200 -0.11729800 -0.01308600
v 0.03159100 -0.11729800 0.01308500
v 0.01308500 -0.11729800 0.03159100
v -0.00667100 -0.11729800 -0.03353700
v -0.01308600 -0.11729900 -0.03159200
v -0.00937900 -0.13061800 -0.02264300
v -0.01983000 -0.10397900 -0.02967800
v -0.02967800 -0.10397900 -0.01983100
v -0.02264300 -0.13061700 -0.00937900
v -0.03353800 -0.11729800 -0.00667100
v 0.00032100 0.07722200 0.00219800
v -0.00165600 0.06907500 0.00042500
v 0.00407500 0.07567500 0.00054600
v -0.00060800 0.07282100 0.00041500
v -0.00813000 0.08642000 0.00034100
v -0.00478100 -0.13061700 -0.02403700
v -0.01361600 -0.13061700 -0.02037800
v -0.02037800 -0.13061700 -0.01361600
v -0.02403700 -0.13061700 -0.00478200
v -0.02952200 -0.12704900 0.00587200
v 0.00587200 -0.12704900 -0.02952200
v -0.00209200 0.08829100 0.00185700
v -0.00095700 0.08917500 0.00175800
v -0.00094600 0.09503100 0.00717700
v -0.00604200 0.07515200 0.00079900
v -0.00181400 0.08139100 -0.00160100
v -0.00042800 0.08114900 0.00026600
v 0.00529300 0.08735100 -0.00001800
v -0.00682200 0.07342300 0.00182200
v -0.00094800 0.10870600 0.00795900
v -0.00198200 0.08221700 -0.00541000
v -0.00056300 0.08357100 -0.00492400
v 0.00513100 0.07559800 0.00199900
v -0.00683300 0.08553100 0.00133300
v 0.00004500 0.07848800 0.00037000
v -0.00653100 0.08691000 0.00154300
v -0.00155500 0.07494000 0.00088300
v -0.00218900 0.07355500 0.00185500
v -0.02128500 -0.12704900 0.02128400
v -0.02780900 -0.12704900 0.01151800
v 0.02128400 -0.12704900 -0.02128500
v 0.01151900 -0.12704900 -0.02780900
v -0.00218900 0.08900500 0.00185600
v -0.00756500 0.07453800 0.00079300
v -0.00202700 0.09489300 0.00776500
v 0.00501400 0.08886500 0.00012900
v -0.00190100 0.08099400 -0.00039600
v -0.00067100 0.08234900 -0.00267300
v 0.00384800 0.08770000 -0.00062100
v -0.00789600 0.07431700 0.00196600
v 0.00033200 0.08389700 0.00791900
v -0.00091400 0.10212100 0.00205900
v -0.00259400 0.09512100 0.00037800
v -0.00354500 0.09372900 -0.00424500
v -0.00453700 0.09313300 -0.00506300
v -0.00076200 0.09288700 0.00067000
v 0.00328200 0.10122600 0.00068300
v 0.03159200 -0.11729800 -0.01308600
v -0.01308600 -0.11729800 0.03159100
v -0.02417900 -0.11729800 0.02417900
v -0.02264300 -0.13061800 0.00937800
v -0.03159200 -0.11729800 0.01308600
v 0.02417900 -0.11729800 -0.02418000
v 0.01672300 -0.12704900 -0.02502800
v 0.00937900 -0.13061800 -0.02264300
v 0.01308500 -0.11729800 -0.03159200
v -0.02502800 -0.12704800 0.01672300
v -0.00833900 0.11365000 0.00182200
v -0.00119900 0.09502700 0.00567200
v -0.00296800 0.09908500 0.00036100
v -0.00087100 0.10111800 0.00066300
v -0.00210700 0.09356200 0.00655800
v -0.00082700 0.09298700 0.00216700
v 0.00343400 0.10100300 0.00200500
v -0.00274000 0.10843700 -0.00502600
v 0.00481800 0.10148100 0.00076100
v -0.00107100 0.09489300 0.00034400
v -0.00468500 0.09432000 -0.00491100
v -0.00309900 0.10098700 0.00182500
v -0.00222600 0.09331900 0.00059600
v 0.00451400 0.10125500 0.00197300
v -0.00281400 0.10103800 0.00028600
v -0.00311000 0.10690300 -0.00530200
v -0.00248200 0.09521300 0.00634100
v -0.00094400 0.09390600 0.00617400
v -0.00202200 0.09260900 0.00218500
v -0.00112200 0.09442500 0.00147800
v 0.03297600 -0.10397900 0.01365800
v 0.01365900 -0.10397900 0.03297500
v -0.01672300 -0.12704900 -0.02502800
v -0.02502800 -0.12704800 -0.01672300
v 0.02128400 -0.12704900 0.02128400
v -0.02128400 -0.12704900 -0.02128500
v 0.02264200 -0.13061800 0.00937900
v 0.02417900 -0.11729800 0.02417900
v 0.00937800 -0.13061800 0.02264200
v -0.02417900 -0.11729800 -0.02418000
v 0.03150200 -0.06470200 -0.00579700
v -0.03353800 -0.11729800 0.00667000
v 0.00667100 -0.11729800 -0.03353700
v 0.02780900 -0.12704900 0.01151800
v 0.01151900 -0.12704900 0.02780900
v -0.03500700 -0.10397900 0.00696300
v 0.00696300 -0.10397900 -0.03500800
v -0.00405800 0.04022100 -0.02040500
v -0.02382800 0.02249200 -0.02382800
v -0.02040600 0.04022000 -0.00405900
v 0.02382900 0.02249200 0.02382800
v 0.00000000 0.04022000 -0.02080500
v -0.02080500 0.04022100 0.00000100
v 0.00000100 0.03547000 -0.02824900
v -0.01872100 0.02249200 -0.02801900
v -0.02801800 0.02249200 -0.01872100
v -0.02824900 0.03547000 0.00000000
v 0.01983000 0.00476400 0.02967700
v 0.02967800 0.00476400 0.01983000
v 0.00000100 0.02249200 -0.03369900
v -0.00696300 0.00476400 -0.03500700
v -0.03500700 0.00476400 -0.00696300
v -0.03369800 0.02249200 -0.00000000
v 0.01081100 0.03547000 0.02609900
v 0.02609900 0.03547000 0.01081100
v 0.00180700 0.04114500 -0.00048300
v 0.00018700 0.04020700 -0.00068200
v -0.00657400 0.02249200 -0.03305100
v -0.01289500 0.02249200 -0.03113300
v -0.01471100 0.04022000 -0.01471200
v -0.03113300 0.02249200 -0.01289600
v -0.03305000 0.02249200 -0.00657400
v 0.01289600 0.02249200 0.03113400
v 0.01471200 0.04022000 0.01471200
v 0.03113400 0.02249200 0.01289600
v -0.00551000 0.03547000 -0.02770600
v -0.01982900 0.00476400 -0.02967700
v -0.02770600 0.03547000 -0.00551100
v 0.01872200 0.02249200 0.02802000
v -0.02967700 0.00476400 -0.01983000
v 0.02802000 0.02249200 0.01872100
v 0.00000000 0.00476400 -0.03569300
v -0.01997500 0.03547000 -0.01997500
v -0.03569300 0.00476400 0.00000000
v 0.01997600 0.03547000 0.01997600
v 0.00056000 0.04042300 -0.00178500
v 0.00153000 0.04151600 -0.00166800
v -0.00796100 0.04022000 -0.01922200
v -0.02523900 0.00476400 -0.02523900
v -0.02609800 0.03547000 -0.01081000
v -0.01922100 0.04022000 -0.00796200
v 0.02523900 0.00476400 0.02523800
v -0.01081000 0.03547000 -0.02609900
v -0.01365900 0.00476400 -0.03297600
v -0.03297500 0.00476400 -0.01365900
v -0.01155900 0.04022000 -0.01729900
v -0.01729900 0.04022000 -0.01155900
v 0.00049700 0.04148800 -0.00003300
v -0.01569400 0.03547000 -0.02348800
v -0.02348800 0.03547000 -0.01569400
v 0.00405900 0.04022000 -0.02040600
v -0.02040500 0.04022100 0.00405900
v 0.00551200 0.03547000 -0.02770600
v -0.02770600 0.03547000 0.00551100
v 0.00657500 0.02249200 -0.03305100
v -0.00596700 0.04567800 0.00037400
v 0.00796200 0.04022000 0.01922200
v -0.03305100 0.02249300 0.00657500
v 0.01922200 0.04022000 0.00796200
v 0.00796200 0.04022000 -0.01922100
v 0.01156000 0.04022000 -0.01729900
v -0.01922100 0.04022000 0.00796200
v -0.01729900 0.04022000 0.01155900
v 0.01081100 0.03547000 -0.02609900
v -0.02609800 0.03547000 0.01081100
v 0.01569500 0.03547000 -0.02348800
v -0.02348800 0.03547000 0.01569500
v 0.01289600 0.02249200 -0.03113300
v 0.03113400 0.02249200 -0.01289500
v 0.03500800 0.00476400 0.00696400
v 0.01730000 0.04022000 -0.01155900
v 0.01471200 0.04022100 -0.01471200
v -0.03113300 0.02249200 0.01289600
v -0.01471100 0.04022100 0.01471200
v -0.02382800 0.02249300 0.02382900
v -0.01155800 0.04022000 0.01729900
v -0.01289500 0.02249200 0.03113300
v 0.00405900 0.04022000 0.02040600
v 0.00696400 0.00476400 0.03500700
v 0.02040600 0.04022000 0.00405900
v 0.02382900 0.02249300 -0.02382800
v 0.02770700 0.03547000 -0.00551100
v 0.03297600 0.00476400 -0.01365900
v 0.01872200 0.02249200 -0.02801900
v -0.02801900 0.02249200 0.01872200
v -0.01983000 0.00476400 0.02967800
v -0.01365900 0.00476400 0.03297600
v -0.00551000 0.03547000 0.02770700
v 0.02967800 0.00476400 -0.01982900
v 0.01365900 0.00476400 -0.03297600
v -0.03297500 0.00476400 0.01366000
v 0.03569300 0.00476400 0.00000000
v 0.02825000 0.03547000 -0.00000000
v 0.01983000 0.00476400 -0.02967800
v -0.02967700 0.00476400 0.01983000
v -0.01872100 0.02249200 0.02801900
v 0.00000000 0.03547000 0.02824900
v 0.00000000 0.00476400 0.03569300
v 0.02802000 0.02249200 -0.01872100
v 0.02348900 0.03547000 -0.01569500
v 0.01997600 0.03547000 -0.01997500
v -0.01997500 0.03547000 0.01997600
v -0.01569400 0.03547000 0.02348900
v 0.01922200 0.04022000 -0.00796200
v 0.02609900 0.03547000 -0.01081100
v 0.03500800 0.00476400 -0.00696300
v 0.03369900 0.02249200 0.00000000
v 0.02523900 0.00476400 -0.02523800
v -0.02523900 0.00476400 0.02523900
v -0.01081000 0.03547000 0.02609900
v -0.00796100 0.04022100 0.01922200
v 0.00000100 0.02249200 0.03369800
v -0.00696300 0.00476400 0.03500700
v 0.03305100 0.02249200 -0.00657500
v 0.02040600 0.04022100 -0.00405900
v -0.00405900 0.04022000 0.02040600
v -0.00657400 0.02249200 0.03305100
v 0.02080600 0.04022100 0.00000000
v 0.00000100 0.04022100 0.02080600
v 0.00551200 0.03547000 0.02770600
v 0.02770700 0.03547000 0.00551100
v 0.03305100 0.02249200 0.00657400
v 0.00657500 0.02249300 0.03305100
v 0.03297600 0.00476400 0.01365900
v -0.00614700 0.04602200 0.00150900
v 0.01569500 0.03547000 0.02348900
v 0.01366000 0.00476400 0.03297600
v 0.02348900 0.03547000 0.01569500
v 0.00696400 0.00476400 -0.03500700
v -0.03500700 0.00476400 0.00696300
v 0.01155900 0.04022000 0.01729900
v 0.01730000 0.04022100 0.01156000
v 0.00036600 0.04191200 -0.00151500
v 0.00023300 0.08397200 0.00637700
v -0.00092400 0.08934400 0.00044500
v -0.00673500 0.07382100 0.00061700
v -0.00222900 0.08762600 0.00028700
v -0.00049300 0.08155900 0.00272000
v -0.00636600 0.07516800 0.00217000
v -0.00149900 0.05528700 0.00663000
v -0.00042100 0.04776300 0.00037200
v -0.00037300 0.05390700 0.00600600
v -0.00670500 0.06081400 0.00217600
v -0.00789600 0.05953700 0.00196500
v -0.00192700 0.06727800 -0.00523300
v -0.00127000 0.06589300 -0.00521100
v -0.00147800 0.04779700 -0.00004900
v 0.00151400 0.05323100 0.00123900
v 0.00039200 0.05317700 0.00194000
v 0.00031900 0.05004400 0.00078900
v -0.00028200 0.05565600 0.00660700
v -0.00643100 0.05920500 0.00197600
v -0.00048900 0.06715600 -0.00526800
v -0.00246400 0.10947700 0.00033100
v -0.00091500 0.10739200 0.00675900
v -0.00833200 0.10039600 0.00205600
v -0.00319600 0.09315700 -0.00554100
v -0.00276200 0.10662600 0.00262700
vn -0.12900165 -0.47961057 -0.86794716
vn 0.95819996 -0.00057514 0.28609876
vn -0.69811125 -0.14907371 -0.70029831
vn 0.77633660 -0.49580244 0.38920614
vn -0.55727531 0.80802232 -0.19116525
vn -0.55836097 0.81117030 -0.17388435
vn -0.78560136 0.60123730 -0.14609656
vn -0.12265913 0.84906592 -0.51384999
vn 0.75042868 0.59067888 -0.29657253
vn -0.58312378 -0.02536270 -0.81198731
vn -0.93238763 -0.12079933 -0.34067702
vn 0.92141488 0.36300086 -0.13865423
vn 0.31190883 -0.93623915 -0.16176876
vn -0.71519693 -0.38216297 0.58518785
vn 0.44358940 0.84361302 0.30256490
vn -0.77902728 -0.37154317 0.50504669
vn -0.16856869 0.32658916 -0.93001297
vn -0.84488146 0.19863138 0.49671008
vn 0.30584686 0.44908251 -0.83951331
vn -0.17638508 -0.19640935 0.96452666
vn 0.00898772 0.72648118 0.68712758
vn -0.16555097 0.64148035 -0.74906330
vn 0.00000000 0.00000000 0.00000000
vn -0.15130997 0.98848636 -0.00010720
vn -0.38536653 0.66532291 -0.63940446
vn -0.44085730 0.67685052 0.58950675
vn -0.14661517 0.33538505 -0.93060242
vn -0.63353467 0.67023336 0.38655022
vn 0.00000000 0.00000000 -0.00000000
vn -0.72819795 0.68400695 -0.04315378
vn 0.89444858 -0.44575119 -0.03560356
vn 0.87774950 -0.01136824 -0.47898495
vn 0.60383409 -0.50139531 0.61966696
vn 0.48814757 0.72224333 -0.48997604
vn -0.20235544 0.97930494 -0.00375640
vn -0.00000000 -0.00000000 0.00000000
vn 0.00084821 -0.83307422 0.55316057
vn -0.78563438 -0.12588668 0.60574843
vn -0.81672660 -0.57522177 0.04558045
vn -0.48054634 0.18590294 -0.85703869
vn 0.59921448 -0.78768895 -0.14313670
vn 0.41781095 0.88315696 0.21323177
vn -0.50854244 -0.02420338 -0.86069668
vn -0.10315128 -0.65998352 -0.74416501
vn -0.79151442 -0.27968809 0.54339626
vn -0.02172878 -0.83439475 0.55073883
vn 0.14561952 -0.98889779 -0.02959934
vn -0.69835802 -0.19525777 -0.68860038
vn -0.85147625 -0.02333294 -0.52387382
vn -0.51624810 0.53283789 -0.67050107
vn -0.24169135 0.96578447 0.09405131
vn 0.66341847 0.68798461 0.29419908
vn 0.78000716 -0.22126094 0.58534812
vn 0.40496411 0.39329208 0.82542438
vn 0.79754661 0.16193524 -0.58111650
vn -0.58255233 -0.80700430 -0.09683411
vn 0.81683489 -0.57038950 -0.08623565
vn 0.89440038 0.29632632 -0.33502041
vn -0.09436505 0.80097041 -0.59122047
vn -0.77354623 0.09973297 0.62584308
vn 0.15302357 0.70360601 0.69391813
vn 0.82616094 0.11689755 -0.55117426
vn 0.43762898 -0.05055943 0.89773304
vn -0.13303781 0.28031161 0.95064522
vn 0.94526016 0.04333842 -0.32342699
vn -0.58014996 0.81419166 0.02275891
vn 0.64667676 -0.36489617 0.66982084
vn 0.02369848 0.45106388 0.89217698
vn -0.61818121 -0.13188697 -0.77489213
vn -0.65219399 -0.24302143 -0.71804149
vn 0.31200498 -0.53259780 0.78676075
vn -0.71377031 0.68132897 -0.16224294
vn 0.79247924 0.54778855 0.26814990
vn 0.20237590 -0.90320497 0.37850334
vn -0.36912117 -0.19761792 0.90812814
vn -0.38241635 0.72109410 -0.57773786
vn 0.30572003 -0.48326138 -0.82036193
vn 0.99221361 -0.10222075 -0.07115532
vn -0.04998744 0.86833848 -0.49344659
vn -0.57697859 0.10185512 -0.81038339
vn 0.72592765 -0.29687593 -0.62039804
vn -0.30914274 -0.44246654 -0.84181597
vn 0.00000000 -0.00000000 0.00000000
vn 0.38505478 0.01670985 0.92274243
vn -0.48820685 0.57259065 0.65863041
vn 0.48813917 -0.03664019 0.87199636
vn 0.80511306 -0.24990413 0.53790416
vn 0.24625063 -0.95513218 0.16456956
vn 0.53792068 -0.24988285 0.80510863
vn 0.16457023 -0.95511485 0.24631739
vn 0.75744117 -0.63528643 0.15064539
vn 0.29051799 -0.95512437 0.05776452
vn 0.15059487 -0.63524667 0.75748456
vn 0.05772536 -0.95511050 0.29057136
vn 0.96827276 -0.24989572 -0.00000646
vn -0.00000358 -0.24988803 0.96827474
vn 0.94968012 -0.24988112 -0.18885737
vn 0.77224687 -0.63532257 -0.00001943
vn 0.00000744 -0.63530492 0.77226140
vn -0.18889489 -0.24988508 0.94967161
vn 0.29052042 -0.95512508 -0.05774049
vn 0.75743150 -0.63530489 -0.15061617
vn -0.15066306 -0.63529870 0.75742736
vn -0.05784337 -0.95508670 0.29062612
vn 0.27363076 -0.95513063 -0.11336529
vn -0.11336141 -0.95513287 0.27362456
vn 0.83017113 -0.05578585 -0.55471059
vn 0.92242088 -0.05579403 -0.38213447
vn 0.29712097 -0.95483984 -0.00001353
vn -0.00007734 -0.95496988 0.29670274
vn -0.55470607 -0.05579066 0.83017382
vn -0.38212217 -0.05579056 0.92242618
vn -0.24628155 -0.95511310 0.16463406
vn 0.80507947 -0.24988955 -0.53796121
vn -0.53795498 -0.24985253 0.80509512
vn -0.20936783 -0.95515998 0.20936694
vn 0.20943778 -0.95513146 -0.20942711
vn 0.16455508 -0.95512489 -0.24628860
vn 0.64211080 -0.63530466 -0.42904745
vn 0.94966901 -0.24989010 0.18890131
vn 0.18892338 -0.24989742 0.94966270
vn -0.42895585 -0.63536694 0.64211037
vn 0.24627607 -0.95512761 -0.16455802
vn 0.71345258 -0.63530752 -0.29558379
vn 0.97925340 -0.05581288 0.19480172
vn 0.19479173 -0.05579644 0.97925632
vn -0.29547717 -0.63532126 0.71348450
vn -0.16452856 -0.95513391 0.24627134
vn -0.19475740 -0.05579904 0.97926300
vn 0.97925761 -0.05580762 -0.19478206
vn -0.70597905 -0.05579505 0.70603151
vn 0.70604324 -0.05578571 -0.70596806
vn -0.80506642 -0.24990914 0.53797164
vn 0.53790766 -0.24988490 -0.80511669
vn 0.99844119 -0.05581380 -0.00001020
vn -0.00000927 -0.05578867 0.99844260
vn -0.83016152 -0.05579228 0.55472432
vn 0.55467469 -0.05579724 -0.83019435
vn -0.92245840 -0.05577389 0.38204681
vn 0.38211502 -0.05579301 -0.92242899
vn -0.92246727 -0.05577945 -0.38202459
vn -0.38210637 -0.05579382 -0.92243253
vn 0.60768633 0.02722900 0.79371021
vn -0.29552174 -0.63532854 -0.71345956
vn -0.71343835 -0.63534123 -0.29554567
vn 0.64211600 -0.63531818 0.42901964
vn 0.42906708 -0.63525735 0.64214448
vn 0.00001609 -0.05582106 -0.99844079
vn -0.99844344 -0.05577361 0.00000249
vn -0.97925825 -0.05576793 -0.19479021
vn 0.21014265 -0.95482947 0.21009701
vn -0.19480830 -0.05583252 -0.97925097
vn -0.53796335 -0.24988035 -0.80508089
vn -0.20941485 -0.95514576 -0.20938479
vn -0.80508989 -0.24990459 -0.53793863
vn -0.20326303 -0.91583553 0.34630828
vn 0.91643851 0.06500091 -0.39486115
vn 0.92009580 -0.37033973 -0.12756253
vn -0.00718615 0.76207688 -0.64744667
vn -0.73674219 -0.04689098 -0.67454590
vn 0.00005714 -0.63523975 -0.77231500
vn -0.77221963 -0.63535569 0.00000145
vn -0.54525119 -0.02354073 0.83794211
vn 0.83018246 -0.05580286 0.55469191
vn 0.55468341 -0.05580426 0.83018805
vn 0.00001795 -0.24988210 -0.96827627
vn -0.00009326 -0.95527992 -0.29570300
vn -0.29660913 -0.95499896 -0.00006474
vn -0.96827857 -0.24987320 0.00000145
vn -0.54909168 -0.02087912 -0.83550128
vn 0.70600914 -0.05579695 0.70600127
vn -0.15064755 -0.63531630 -0.75741568
vn -0.70597410 -0.05578571 -0.70603720
vn -0.75737633 -0.63536547 -0.15063806
vn -0.29051574 -0.95512726 0.05772794
vn 0.05775714 -0.95515886 -0.29040604
vn -0.69136664 0.18487435 0.69845089
vn 0.48906627 -0.38330160 -0.78351392
vn -0.54153422 0.44938025 -0.71049143
vn -0.62924431 -0.62196469 -0.46605957
vn -0.69979379 0.03106200 0.71366925
vn 0.57861270 0.81456447 -0.04113477
vn 0.38074992 0.64248645 0.66501177
vn 0.13572676 0.03673813 0.99006492
vn -0.89457169 -0.24986324 -0.37055345
vn 0.89456458 -0.24989446 0.37054955
vn 0.37054954 -0.24986814 0.89457194
vn -0.18883741 -0.24985644 -0.94969058
vn -0.37049102 -0.24986910 -0.89459591
vn -0.11293697 -0.95543123 -0.27275703
vn -0.55468378 -0.05577602 -0.83018970
vn -0.83018863 -0.05579769 -0.55468321
vn -0.27358909 -0.95514842 -0.11331596
vn -0.94967520 -0.24987194 -0.18889421
vn 0.00000000 -0.00000000 0.00000000
vn 0.09303554 -0.99163485 -0.08946908
vn -0.46759486 -0.24737112 -0.84862393
vn 0.62485799 -0.40332494 -0.66849195
vn -0.91334605 0.18405585 -0.36321129
vn -0.05781547 -0.95517396 -0.29034474
vn -0.16454922 -0.95516023 -0.24615541
vn -0.24625614 -0.95512744 -0.16458885
vn -0.29054078 -0.95511484 -0.05780745
vn -0.75738484 -0.63534315 0.15068936
vn 0.15070098 -0.63525822 -0.75745377
vn -0.46981333 -0.68279862 0.55951897
vn 0.85349949 0.15130226 0.49864441
vn 0.73991123 0.40028185 0.54065313
vn 0.15875010 0.80899996 -0.56596596
vn -0.56244471 -0.54821356 -0.61896514
vn 0.65465200 0.72706013 0.20691625
vn 0.92973885 -0.33830167 0.14538796
vn -0.46223658 -0.69436190 0.55154228
vn 0.44389087 0.31162276 0.84015008
vn -0.71534498 -0.16997630 -0.67778287
vn 0.70106649 0.31532055 -0.63959263
vn 0.51997547 -0.24980773 0.81683634
vn -0.29461720 -0.55326933 0.77916221
vn 0.39079675 -0.27603207 0.87811400
vn 0.08201770 0.64403146 0.76058962
vn -0.80301520 0.57599217 0.15296930
vn -0.85237033 0.46740743 0.23451038
vn -0.54608256 -0.63534562 0.54601262
vn -0.71345524 -0.63532698 0.29553553
vn 0.54610224 -0.63528847 -0.54605943
vn 0.29549969 -0.63528237 -0.71350981
vn -0.72178810 0.53351686 0.44088740
vn -0.76619402 0.25989449 -0.58770875
vn -0.27354196 0.18815227 0.94327807
vn 0.88262220 0.46883404 0.03424464
vn -0.71040543 -0.63607872 0.30121088
vn 0.95739182 -0.19073919 0.21683972
vn -0.49110262 0.34856324 -0.79832442
vn -0.89468443 0.01501613 0.44644628
vn -0.00000000 0.00000000 0.00000000
vn 0.70391371 -0.49970736 0.50477524
vn -0.68065771 -0.72146185 -0.12727091
vn 0.40686041 -0.25135612 0.87822816
vn -0.84689934 -0.36812357 -0.38372718
vn 0.74024029 -0.06476636 -0.66921569
vn 0.62299982 0.67587589 -0.39378039
vn 0.89456377 -0.24988029 -0.37056107
vn -0.37053755 -0.24987885 0.89457391
vn -0.68467329 -0.24986533 0.68468226
vn -0.27319124 -0.95527183 0.11323549
vn -0.89455875 -0.24991146 0.37055216
vn 0.68467768 -0.24989409 -0.68466738
vn 0.42904117 -0.63527348 -0.64214584
vn 0.11333615 -0.95512450 -0.27366422
vn 0.37050301 -0.24990100 -0.89458203
vn -0.64215728 -0.63527368 0.42902375
vn -0.73904306 -0.58624273 0.33186567
vn 0.59523775 0.67604484 -0.43434479
vn 0.75887058 -0.63221731 -0.15625849
vn 0.66438829 -0.73327049 -0.14457729
vn -0.42194637 -0.61017674 0.67055619
vn 0.65686505 -0.03310172 0.75328121
vn 0.70109332 0.55424333 0.44864517
vn 0.04200416 0.50364158 -0.86289096
vn -0.76658123 -0.22974689 0.59964121
vn 0.16786537 -0.97351265 -0.15522348
vn -0.83861886 0.17735122 -0.51503879
vn -0.22191373 0.50626635 0.83333587
vn -0.52078547 0.61531491 -0.59175168
vn -0.63973350 -0.02925027 -0.76804002
vn -0.16659493 0.18353275 -0.96879402
vn -0.37007140 -0.47005529 -0.80130842
vn -0.78987115 0.60683069 0.08865713
vn 0.88885779 -0.30322098 0.34349507
vn -0.40928065 0.28757316 0.86590475
vn 0.19655762 0.97562977 0.09752774
vn 0.92243817 -0.05581030 0.38209035
vn 0.38210576 -0.05579735 0.92243257
vn -0.42905624 -0.63534294 -0.64206705
vn -0.64209649 -0.63530692 -0.42906551
vn 0.54606949 -0.63531773 0.54605814
vn -0.54605905 -0.63536701 -0.54601125
vn 0.27364643 -0.95512430 0.11338080
vn 0.68466882 -0.24988933 0.68467798
vn 0.11337290 -0.95513376 0.27361668
vn -0.68466016 -0.24989311 -0.68468525
vn 0.60341293 0.02194916 -0.79712676
vn -0.94967440 -0.24987695 0.18889164
vn 0.18885293 -0.24991645 -0.94967170
vn 0.71348155 -0.63528607 0.29555995
vn 0.29556151 -0.63530478 0.71346425
vn -0.97925839 -0.05577606 0.19478718
vn 0.19476665 -0.05581917 -0.97926001
vn -0.05755395 0.95548941 -0.28935709
vn -0.68470135 0.24989109 -0.68464480
vn -0.29105540 0.95494589 -0.05800946
vn 0.68471838 0.24984706 0.68464384
vn 0.00003275 0.95514798 -0.29612892
vn -0.29591459 0.95521440 -0.00000833
vn 0.00001647 0.63533242 -0.77223877
vn -0.53793678 0.24989022 -0.80509558
vn -0.80507855 0.24991336 -0.53795152
vn -0.77227851 0.63528412 -0.00000327
vn 0.55476439 0.05576812 0.83013637
vn 0.83016263 0.05578761 0.55472313
vn 0.00000638 0.24990636 -0.96827001
vn -0.19479389 0.05579864 -0.97925576
vn -0.97924278 0.05581186 -0.19485538
vn -0.96826887 0.24991075 -0.00008506
vn 0.29547270 0.63534566 0.71346462
vn 0.71345695 0.63533303 0.29551839
vn 0.65422269 -0.63982864 0.40325176
vn -0.30577075 -0.93280388 0.19073847
vn -0.18895671 0.24989319 -0.94965718
vn -0.37057029 0.24989243 -0.89455656
vn -0.20940814 0.95513841 -0.20942503
vn -0.89455170 0.24990085 -0.37057634
vn -0.94967023 0.24988829 -0.18889758
vn 0.37052177 0.24988695 0.89457819
vn 0.20929326 0.95515716 0.20945436
vn 0.89457886 0.24988416 0.37052204
vn -0.15063228 0.63532929 -0.75740782
vn -0.55468492 0.05580049 -0.83018730
vn -0.75741883 0.63529948 -0.15070263
vn 0.53798208 0.24985876 0.80507508
vn -0.83021431 0.05580954 -0.55464358
vn 0.80508501 0.24988182 0.53795650
vn -0.00000897 0.05578465 -0.99844282
vn -0.54606757 0.63530961 -0.54606952
vn -0.99844208 0.05579796 -0.00000740
vn 0.54606593 0.63529667 0.54608620
vn -0.18183335 -0.65366700 -0.73461288
vn 0.46038060 -0.20986776 -0.86255738
vn -0.11334157 0.95513749 -0.27361662
vn -0.70597174 0.05582462 -0.70603648
vn -0.71345251 0.63532253 -0.29555168
vn -0.27360253 0.95513900 -0.11336293
vn 0.70597877 0.05578710 0.70603241
vn -0.29552097 0.63531146 -0.71347509
vn -0.38212751 0.05580242 -0.92242325
vn -0.92243630 0.05579133 -0.38209763
vn -0.16455464 0.95513243 -0.24625963
vn -0.24628119 0.95512929 -0.16454060
vn 0.03000952 0.03297095 0.99900568
vn -0.42904823 0.63531272 -0.64210230
vn -0.64215350 0.63529361 -0.42899991
vn 0.05777353 0.95512670 -0.29050854
vn -0.28992828 0.95530132 0.05780112
vn 0.15064871 0.63532644 -0.75740694
vn -0.75740399 0.63532117 0.15068580
vn 0.18896765 0.24991064 -0.94965041
vn -0.89770203 -0.36114582 -0.25239802
vn 0.11337883 0.95512204 0.27365511
vn -0.94965895 0.24992825 0.18890142
vn 0.27363617 0.95514058 0.11326840
vn 0.11333008 0.95515111 -0.27357383
vn 0.16477494 0.95494452 -0.24684041
vn -0.27363067 0.95513200 0.11335401
vn -0.24680098 0.95495770 0.16475758
vn 0.29553083 0.63531972 -0.71346366
vn -0.71344914 0.63534551 0.29551040
vn 0.42903169 0.63532801 -0.64209823
vn -0.64213339 0.63531633 0.42899635
vn 0.37056307 0.24989841 -0.89455788
vn 0.89457461 0.24988990 -0.37052842
vn 0.97925206 0.05580279 0.19481130
vn 0.24680098 0.95495770 -0.16475758
vn 0.20924217 0.95520601 -0.20928255
vn -0.89455319 0.24988490 0.37058348
vn -0.20935417 0.95516022 0.20937954
vn -0.68464029 0.24989823 0.68470326
vn -0.16517668 0.95479047 0.24716758
vn -0.37056715 0.24990095 0.89455548
vn 0.05799674 0.95495035 0.29104330
vn 0.19478038 0.05578081 0.97925947
vn 0.29099455 0.95496417 0.05801387
vn 0.68467222 0.24989595 -0.68467216
vn 0.75741962 0.63529815 -0.15070431
vn 0.92241814 0.05578291 -0.38214269
vn 0.53792804 0.24988168 -0.80510407
vn -0.80511075 0.24987884 0.53791937
vn -0.55468074 0.05581584 0.83018906
vn -0.38205384 0.05580108 0.92245385
vn -0.15064986 0.63528890 0.75743820
vn 0.83017608 0.05578191 -0.55470358
vn 0.38206978 0.05579598 -0.92244756
vn -0.92242637 0.05578659 0.38212230
vn 0.99844250 0.05579039 -0.00001790
vn 0.77227916 0.63528333 0.00000232
vn 0.55472520 0.05580317 -0.83016020
vn -0.83020074 0.05579011 0.55466584
vn -0.53787421 0.24988219 0.80513988
vn 0.00006418 0.63528324 0.77227922
vn -0.00001580 0.05579742 0.99844211
vn 0.80511038 0.24986911 -0.53792444
vn 0.64212591 0.63529303 -0.42904206
vn 0.54604848 0.63529334 -0.54610753
vn -0.54605590 0.63531613 0.54607359
vn -0.42900672 0.63530883 0.64213388
vn 0.27359047 0.95514404 -0.11334958
vn 0.71346813 0.63532548 -0.29550764
vn 0.97925989 0.05579910 -0.19477303
vn 0.96827533 0.24988573 -0.00000414
vn 0.70603797 0.05578986 -0.70597300
vn -0.70603850 0.05580485 0.70597128
vn -0.29551679 0.63528877 0.71349703
vn -0.11335137 0.95511973 0.27367457
vn -0.00000651 0.24989822 0.96827211
vn -0.19477875 0.05579443 0.97925902
vn 0.94966514 0.24989277 -0.18891722
vn 0.28992942 0.95530111 -0.05779892
vn -0.05804317 0.95477857 0.29159711
vn -0.18889077 0.24988733 0.94967184
vn 0.29591952 0.95521287 0.00004090
vn 0.00006747 0.95514966 0.29612350
vn 0.15062959 0.63533162 0.75740641
vn 0.75741043 0.63531171 0.15069330
vn 0.94966950 0.24989058 0.18889822
vn 0.18883601 0.24992872 0.94967184
vn 0.92242937 0.05578832 0.38211480
vn -0.68245069 -0.28097073 0.67477144
vn 0.42898969 0.63534122 0.64211321
vn 0.38212894 0.05577091 0.92242457
vn 0.64216936 0.63527488 0.42900390
vn 0.19480248 0.05578549 -0.97925481
vn -0.97924903 0.05578334 0.19483210
vn 0.16450844 0.95514768 0.24623136
vn 0.24538849 0.95546667 0.16391443
vn -0.36525189 0.45117483 -0.81426797
vn 0.24883463 -0.62609719 0.73897472
vn 0.67094643 0.69238332 -0.26539824
vn -0.42643472 -0.35216987 -0.83314453
vn -0.80074761 -0.59652581 0.05440804
vn 0.12424041 0.77561228 0.61886179
vn -0.03119024 0.68274659 0.72998922
vn -0.90822565 0.03965038 0.41659815
vn -0.13981495 -0.77609314 -0.61492375
vn 0.15287186 -0.93421779 -0.32228453
vn -0.59910684 0.39446505 0.69675556
vn -0.85901663 -0.31681410 0.40214332
vn -0.81670135 0.28292278 -0.50294494
vn -0.18891268 -0.64818082 -0.73768125
vn 0.00000000 -0.00000000 -0.00000000
vn 0.60690098 0.79126336 0.07465584
vn -0.13855879 0.55876838 0.81766702
vn 0.18764722 -0.91914930 -0.34634244
vn 0.58054558 0.72323603 0.37402736
vn 0.14080672 -0.85037058 0.50699443
vn 0.67341809 0.19838506 -0.71214566
vn -0.71064179 -0.69443551 -0.11290511
vn 0.61902378 -0.52126213 0.58744817
vn -0.45679691 0.65738621 0.59931623
vn 0.51479608 -0.20292955 -0.83294933
vn -0.73488102 0.41332057 0.53769507
f 413//413 398//398 384//384
f 360//360 396//396 405//405
f 39//39 27//27 57//57
f 209//209 211//211 430//430
f 375//375 357//357 372//372
f 405//405 396//396 373//373
f 351//351 357//357 355//355
f 48//48 443//443 435//435
f 385//385 381//381 359//359
f 344//344 359//359 346//346
f 344//344 295//295 293//293
f 395//395 373//373 396//396
f 302//302 323//323 152//152
f 351//351 332//332 402//402
f 152//152 166//166 188//188
f 191//191 335//335 142//142
f 321//321 330//330 192//192
f 325//325 303//303 149//149
f 157//157 197//197 211//211
f 298//298 294//294 319//319
f 231//231 219//219 211//211
f 141//141 321//321 192//192
f 172//172 144//144 189//189
f 404//404 129//129 136//136
f 126//126 370//370 389//389
f 346//346 420//420 301//301
f 105//105 124//124 101//101
f 27//27 24//24 57//57
f 299//299 165//165 171//171
f 272//272 415//415 300//300
f 135//135 130//130 383//383
f 8//8 3//3 14//14
f 152//152 188//188 142//142
f 108//108 397//397 130//130
f 375//375 372//372 399//399
f 380//380 374//374 107//107
f 418//418 165//165 299//299
f 308//308 307//307 339//339
f 175//175 200//200 94//94
f 175//175 94//94 128//128
f 345//345 304//304 349//349
f 272//272 87//87 186//186
f 175//175 203//203 202//202
f 364//364 356//356 349//349
f 133//133 251//251 244//244
f 94//94 110//110 104//104
f 136//136 126//126 389//389
f 257//257 230//230 240//240
f 117//117 123//123 118//118
f 445//445 13//13 37//37
f 402//402 332//332 353//353
f 351//351 329//329 332//332
f 351//351 395//395 363//363
f 402//402 410//410 348//348
f 294//294 353//353 332//332
f 351//351 293//293 329//329
f 352//352 351//351 363//363
f 121//121 96//96 99//99
f 115//115 122//122 243//243
f 173//173 153//153 281//281
f 362//362 363//363 395//395
f 350//350 371//371 409//409
f 366//366 393//393 376//376
f 378//378 129//129 404//404
f 402//402 365//365 367//367
f 262//262 19//19 239//239
f 193//193 203//203 174//174
f 411//411 414//414 305//305
f 289//289 329//329 293//293
f 346//346 301//301 295//295
f 308//308 327//327 307//307
f 52//52 51//51 38//38
f 200//200 176//176 118//118
f 413//413 412//412 316//316
f 440//440 68//68 79//79
f 418//418 370//370 273//273
f 154//154 201//201 202//202
f 114//114 247//247 132//132
f 78//78 76//76 439//439
f 5//5 4//4 267//267
f 44//44 37//37 13//13
f 264//264 159//159 220//220
f 424//424 79//79 339//339
f 337//337 334//334 340//340
f 46//46 432//432 441//441
f 65//65 69//69 70//70
f 339//339 79//79 68//68
f 442//442 85//85 431//431
f 346//346 381//381 420//420
f 442//442 65//65 85//85
f 443//443 49//49 77//77
f 84//84 39//39 60//60
f 215//215 179//179 216//216
f 44//44 37//37 38//38
f 62//62 432//432 69//69
f 416//416 68//68 79//79
f 440//440 79//79 441//441
f 138//138 134//134 140//140
f 245//245 113//113 251//251
f 131//131 137//137 133//133
f 65//65 73//73 66//66
f 212//212 232//232 233//233
f 65//65 70//70 73//73
f 215//215 219//219 232//232
f 448//448 426//426 31//31
f 141//141 185//185 150//150
f 55//55 57//57 33//33
f 67//67 76//76 81//81
f 65//65 433//433 70//70
f 448//448 19//19 254//254
f 70//70 66//66 73//73
f 8//8 449//449 10//10
f 65//65 75//75 62//62
f 446//446 177//177 16//16
f 344//344 293//293 342//342
f 394//394 366//366 387//387
f 49//49 63//63 80//80
f 150//150 149//149 303//303
f 34//34 44//44 43//43
f 421//421 139//139 382//382
f 61//61 63//63 58//58
f 61//61 72//72 64//64
f 173//173 330//330 318//318
f 406//406 395//395 409//409
f 351//351 342//342 293//293
f 200//200 118//118 101//101
f 442//442 20//20 2//2
f 46//46 441//441 433//433
f 449//449 241//241 15//15
f 350//350 348//348 315//315
f 258//258 237//237 261//261
f 434//434 443//443 64//64
f 416//416 347//347 68//68
f 114//114 242//242 124//124
f 442//442 431//431 20//20
f 67//67 63//63 76//76
f 82//82 58//58 80//80
f 421//421 325//325 287//287
f 59//59 58//58 82//82
f 174//174 162//162 169//169
f 443//443 47//47 49//49
f 29//29 235//235 425//425
f 29//29 425//425 235//235
f 61//61 64//64 71//71
f 436//436 160//160 198//198
f 431//431 433//433 20//20
f 198//198 74//74 160//160
f 209//209 427//427 228//228
f 138//138 247//247 134//134
f 343//343 353//353 294//294
f 444//444 86//86 73//73
f 418//418 314//314 370//370
f 441//441 432//432 433//433
f 447//447 14//14 237//237
f 209//209 28//28 211//211
f 5//5 267//267 266//266
f 28//28 429//429 211//211
f 175//175 168//168 203//203
f 257//257 240//240 271//271
f 217//217 157//157 429//429
f 94//94 90//90 280//280
f 440//440 439//439 76//76
f 263//263 236//236 16//16
f 17//17 267//267 4//4
f 10//10 241//241 449//449
f 312//312 336//336 313//313
f 446//446 12//12 9//9
f 446//446 9//9 214//214
f 445//445 26//26 252//252
f 255//255 236//236 263//263
f 306//306 419//419 322//322
f 364//364 382//382 376//376
f 32//32 54//54 53//53
f 52//52 43//43 51//51
f 195//195 156//156 182//182
f 195//195 182//182 156//156
f 69//69 432//432 438//438
f 69//69 438//438 432//432
f 434//434 435//435 443//443
f 268//268 30//30 206//206
f 141//141 150//150 336//336
f 227//227 428//428 425//425
f 448//448 30//30 426//426
f 12//12 267//267 4//4
f 258//258 265//265 260//260
f 94//94 104//104 128//128
f 136//136 129//129 100//100
f 43//43 22//22 38//38
f 5//5 266//266 6//6
f 112//112 377//377 111//111
f 161//161 176//176 167//167
f 130//130 397//397 383//383
f 228//228 213//213 234//234
f 344//344 355//355 359//359
f 21//21 57//57 24//24
f 75//75 432//432 62//62
f 361//361 415//415 125//125
f 257//257 159//159 240//240
f 424//424 327//327 308//308
f 420//420 381//381 288//288
f 238//238 11//11 239//239
f 375//375 359//359 355//355
f 338//338 341//341 332//332
f 400//400 366//366 386//386
f 198//198 182//182 183//183
f 398//398 383//383 405//405
f 434//434 50//50 435//435
f 2//2 20//20 433//433
f 366//366 376//376 386//386
f 442//442 433//433 65//65
f 217//217 158//158 157//157
f 49//49 81//81 76//76
f 421//421 349//349 325//325
f 382//382 386//386 376//376
f 194//194 169//169 149//149
f 198//198 183//183 184//184
f 136//136 100//100 96//96
f 209//209 228//228 234//234
f 183//183 160//160 222//222
f 446//446 214//214 177//177
f 183//183 221//221 160//160
f 275//275 185//185 155//155
f 430//430 234//234 213//213
f 172//172 188//188 161//161
f 109//109 98//98 92//92
f 115//115 111//111 244//244
f 18//18 268//268 263//263
f 53//53 54//54 37//37
f 306//306 350//350 419//419
f 289//289 293//293 295//295
f 49//49 76//76 47//47
f 49//49 47//47 76//76
f 302//302 309//309 323//323
f 312//312 321//321 336//336
f 424//424 347//347 79//79
f 417//417 320//320 326//326
f 106//106 127//127 128//128
f 228//228 427//427 213//213
f 151//151 88//88 146//146
f 141//141 155//155 185//185
f 417//417 314//314 320//320
f 430//430 429//429 28//28
f 370//370 314//314 414//414
f 403//403 389//389 414//414
f 137//137 386//386 382//382
f 147//147 276//276 279//279
f 365//365 358//358 393//393
f 200//200 101//101 94//94
f 138//138 132//132 247//247
f 440//440 76//76 68//68
f 39//39 55//55 40//40
f 140//140 381//381 385//385
f 251//251 113//113 223//223
f 103//103 99//99 96//96
f 411//411 369//369 388//388
f 108//108 130//130 97//97
f 300//300 322//322 333//333
f 413//413 361//361 398//398
f 388//388 369//369 410//410
f 255//255 263//263 266//266
f 225//225 247//247 119//119
f 258//258 260//260 241//241
f 231//231 211//211 220//220
f 388//388 410//410 379//379
f 200//200 167//167 176//176
f 378//378 377//377 112//112
f 306//306 371//371 350//350
f 231//231 159//159 210//210
f 117//117 225//225 123//123
f 408//408 368//368 378//378
f 115//115 244//244 223//223
f 408//408 379//379 368//368
f 406//406 373//373 395//395
f 448//448 31//31 428//428
f 310//310 302//302 335//335
f 354//354 358//358 365//365
f 445//445 44//44 13//13
f 362//362 396//396 391//391
f 364//364 376//376 358//358
f 272//272 300//300 164//164
f 345//345 356//356 353//353
f 424//424 339//339 78//78
f 192//192 281//281 155//155
f 198//198 86//86 444//444
f 345//345 353//353 343//343
f 343//343 294//294 298//298
f 39//39 40//40 45//45
f 45//45 56//56 41//41
f 313//313 303//303 304//304
f 308//308 339//339 347//347
f 402//402 353//353 365//365
f 39//39 45//45 33//33
f 231//231 220//220 218//218
f 120//120 285//285 91//91
f 131//131 386//386 137//137
f 407//407 379//379 410//410
f 230//230 233//233 240//240
f 175//175 113//113 245//245
f 274//274 277//277 281//281
f 9//9 35//35 6//6
f 325//325 349//349 304//304
f 336//336 303//303 313//313
f 285//285 278//278 91//91
f 358//358 376//376 393//393
f 312//312 319//319 331//331
f 345//345 298//298 304//304
f 232//232 216//216 31//31
f 238//238 254//254 11//11
f 448//448 428//428 239//239
f 291//291 332//332 331//331
f 394//394 387//387 401//401
f 424//424 328//328 327//327
f 229//229 208//208 268//268
f 191//191 142//142 189//189
f 297//297 331//331 341//341
f 229//229 268//268 256//256
f 290//290 297//297 341//341
f 329//329 317//317 334//334
f 290//290 341//341 324//324
f 398//398 405//405 373//373
f 181//181 199//199 218//218
f 119//119 105//105 123//123
f 48//48 50//50 77//77
f 339//339 68//68 347//347
f 290//290 318//318 330//330
f 94//94 88//88 90//90
f 83//83 74//74 73//73
f 83//83 73//73 74//74
f 215//215 182//182 219//219
f 154//154 277//277 201//201
f 238//238 239//239 30//30
f 282//282 143//143 163//163
f 290//290 324//324 296//296
f 229//229 256//256 269//269
f 46//46 433//433 432//432
f 253//253 269//269 426//426
f 49//49 80//80 81//81
f 418//418 320//320 314//314
f 276//276 151//151 146//146
f 378//378 368//368 377//377
f 74//74 36//36 184//184
f 74//74 184//184 36//36
f 302//302 152//152 142//142
f 133//133 246//246 224//224
f 413//413 384//384 412//412
f 104//104 110//110 99//99
f 140//140 288//288 381//381
f 311//311 337//337 340//340
f 404//404 389//389 403//403
f 34//34 52//52 38//38
f 306//306 412//412 371//371
f 9//9 6//6 214//214
f 290//290 330//330 297//297
f 205//205 249//249 176//176
f 49//49 47//47 77//77
f 306//306 316//316 412//412
f 175//175 224//224 204//204
f 102//102 124//124 242//242
f 338//338 311//311 324//324
f 411//411 388//388 403//403
f 103//103 104//104 99//99
f 258//258 449//449 241//241
f 258//258 241//241 449//449
f 126//126 273//273 370//370
f 394//394 393//393 366//366
f 387//387 368//368 401//401
f 232//232 211//211 219//219
f 26//26 22//22 43//43
f 246//246 139//139 283//283
f 274//274 201//201 277//277
f 175//175 202//202 200//200
f 127//127 122//122 128//128
f 199//199 180//180 218//218
f 189//189 144//144 153//153
f 80//80 58//58 81//81
f 191//191 189//189 153//153
f 156//156 197//197 217//217
f 44//44 53//53 37//37
f 94//94 101//101 88//88
f 194//194 185//185 145//145
f 119//119 124//124 105//105
f 94//94 93//93 110//110
f 140//140 134//134 250//250
f 176//176 249//249 118//118
f 417//417 422//422 305//305
f 352//352 392//392 357//357
f 114//114 132//132 107//107
f 34//34 32//32 44//44
f 34//34 38//38 54//54
f 227//227 207//207 30//30
f 168//168 162//162 203//203
f 262//262 239//239 11//11
f 156//156 182//182 219//219
f 156//156 219//219 182//182
f 174//174 169//169 194//194
f 121//121 99//99 93//93
f 390//390 380//380 372//372
f 122//122 116//116 128//128
f 255//255 266//266 267//267
f 131//131 133//133 244//244
f 310//310 335//335 296//296
f 446//446 236//236 12//12
f 121//121 273//273 126//126
f 138//138 140//140 385//385
f 209//209 430//430 28//28
f 263//263 16//16 6//6
f 181//181 220//220 159//159
f 121//121 126//126 96//96
f 97//97 95//95 98//98
f 350//350 409//409 395//395
f 261//261 237//237 241//241
f 94//94 286//286 93//93
f 109//109 92//92 101//101
f 215//215 30//30 179//179
f 181//181 218//218 220//220
f 287//287 169//169 283//283
f 225//225 134//134 247//247
f 114//114 124//124 119//119
f 436//436 73//73 86//86
f 336//336 150//150 303//303
f 443//443 71//71 64//64
f 314//314 305//305 414//414
f 9//9 17//17 35//35
f 202//202 145//145 275//275
f 232//232 31//31 428//428
f 122//122 223//223 116//116
f 193//193 202//202 203//203
f 306//306 322//322 316//316
f 127//127 243//243 122//122
f 115//115 112//112 111//111
f 390//390 391//391 360//360
f 424//424 78//78 328//328
f 394//394 367//367 393//393
f 192//192 173//173 281//281
f 120//120 135//135 125//125
f 148//148 152//152 323//323
f 402//402 401//401 407//407
f 168//168 204//204 162//162
f 419//419 350//350 423//423
f 200//200 172//172 167//167
f 204//204 246//246 283//283
f 271//271 240//240 264//264
f 441//441 432//432 62//62
f 441//441 62//62 432//432
f 118//118 249//249 226//226
f 100//100 243//243 127//127
f 244//244 251//251 223//223
f 23//23 24//24 27//27
f 23//23 27//27 24//24
f 147//147 280//280 90//90
f 161//161 188//188 166//166
f 205//205 161//161 166//166
f 108//108 242//242 107//107
f 419//419 423//423 326//326
f 194//194 149//149 150//150
f 312//312 313//313 319//319
f 387//387 400//400 377//377
f 191//191 153//153 173//173
f 338//338 332//332 311//311
f 135//135 95//95 130//130
f 187//187 165//165 273//273
f 337//337 329//329 334//334
f 231//231 210//210 219//219
f 284//284 166//166 148//148
f 183//183 222//222 184//184
f 212//212 240//240 233//233
f 417//417 315//315 422//422
f 199//199 159//159 180//180
f 142//142 188//188 189//189
f 231//231 180//180 159//159
f 289//289 317//317 329//329
f 263//263 266//266 7//7
f 120//120 95//95 135//135
f 360//360 397//397 374//374
f 35//35 56//56 17//17
f 35//35 17//17 56//56
f 186//186 120//120 125//125
f 212//212 233//233 230//230
f 171//171 89//89 279//279
f 302//302 142//142 335//335
f 232//232 219//219 210//210
f 204//204 283//283 162//162
f 254//254 19//19 266//266
f 445//445 22//22 26//26
f 335//335 318//318 296//296
f 212//212 211//211 232//232
f 93//93 99//99 110//110
f 67//67 81//81 63//63
f 362//362 395//395 396//396
f 111//111 377//377 400//400
f 257//257 212//212 230//230
f 175//175 204//204 168//168
f 232//232 211//211 233//233
f 307//307 328//328 78//78
f 193//193 145//145 202//202
f 375//375 385//385 359//359
f 275//275 155//155 277//277
f 147//147 89//89 286//286
f 310//310 340//340 334//334
f 171//171 279//279 164//164
f 12//12 236//236 255//255
f 274//274 281//281 153//153
f 250//250 248//248 226//226
f 258//258 241//241 237//237
f 436//436 437//437 73//73
f 316//316 300//300 415//415
f 364//364 358//358 356//356
f 375//375 399//399 385//385
f 200//200 201//201 190//190
f 8//8 14//14 447//447
f 148//148 166//166 152//152
f 408//408 404//404 403//403
f 380//380 132//132 399//399
f 137//137 139//139 246//246
f 345//345 349//349 356//356
f 200//200 144//144 172//172
f 411//411 403//403 414//414
f 263//263 6//6 266//266
f 408//408 403//403 388//388
f 162//162 283//283 169//169
f 207//207 269//269 256//256
f 94//94 280//280 286//286
f 115//115 243//243 112//112
f 408//408 388//388 379//379
f 83//83 73//73 65//65
f 83//83 65//65 73//73
f 186//186 146//146 285//285
f 103//103 96//96 100//100
f 187//187 89//89 165//165
f 103//103 100//100 127//127
f 276//276 146//146 87//87
f 276//276 87//87 279//279
f 131//131 400//400 386//386
f 431//431 85//85 433//433
f 436//436 444//444 437//437
f 250//250 134//134 248//248
f 361//361 135//135 383//383
f 440//440 78//78 439//439
f 274//274 153//153 144//144
f 387//387 377//377 368//368
f 289//289 295//295 317//317
f 441//441 76//76 78//78
f 106//106 104//104 103//103
f 59//59 158//158 196//196
f 59//59 196//196 158//158
f 91//91 278//278 92//92
f 421//421 287//287 139//139
f 298//298 313//313 304//304
f 186//186 285//285 120//120
f 442//442 2//2 433//433
f 65//65 66//66 85//85
f 418//418 299//299 320//320
f 220//220 211//211 159//159
f 320//320 292//292 326//326
f 370//370 414//414 389//389
f 430//430 196//196 158//158
f 422//422 348//348 305//305
f 120//120 91//91 95//95
f 147//147 286//286 280//280
f 183//183 182//182 221//221
f 286//286 187//187 93//93
f 154//154 275//275 277//277
f 141//141 336//336 321//321
f 88//88 92//92 278//278
f 61//61 71//71 63//63
f 102//102 97//97 98//98
f 97//97 130//130 95//95
f 100//100 129//129 243//243
f 102//102 242//242 97//97
f 114//114 107//107 242//242
f 311//311 340//340 324//324
f 225//225 119//119 123//123
f 114//114 119//119 247//247
f 285//285 88//88 278//278
f 257//257 220//220 159//159
f 423//423 315//315 326//326
f 212//212 233//233 211//211
f 207//207 256//256 206//206
f 117//117 118//118 248//248
f 170//170 163//163 143//143
f 272//272 164//164 87//87
f 181//181 159//159 199//199
f 291//291 294//294 332//332
f 140//140 250//250 288//288
f 175//175 245//245 224//224
f 258//258 261//261 241//241
f 275//275 145//145 185//185
f 171//171 164//164 333//333
f 88//88 101//101 92//92
f 191//191 318//318 335//335
f 298//298 319//319 313//313
f 205//205 176//176 161//161
f 398//398 361//361 383//383
f 156//156 217//217 429//429
f 174//174 203//203 162//162
f 260//260 265//265 241//241
f 196//196 213//213 427//427
f 106//106 103//103 127//127
f 284//284 148//148 288//288
f 286//286 89//89 187//187
f 37//37 54//54 38//38
f 115//115 223//223 122//122
f 141//141 192//192 155//155
f 70//70 433//433 85//85
f 17//17 259//259 267//267
f 231//231 218//218 180//180
f 354//354 356//356 358//358
f 151//151 90//90 88//88
f 34//34 43//43 52//52
f 209//209 234//234 430//430
f 311//311 332//332 329//329
f 198//198 160//160 182//182
f 157//157 158//158 197//197
f 156//156 211//211 197//197
f 394//394 402//402 367//367
f 160//160 221//221 182//182
f 42//42 1//1 25//25
f 179//179 426//426 216//216
f 351//351 355//355 342//342
f 361//361 125//125 135//135
f 118//118 226//226 248//248
f 155//155 281//281 277//277
f 428//428 31//31 425//425
f 219//219 182//182 178//178
f 194//194 150//150 185//185
f 196//196 427//427 158//158
f 59//59 72//72 61//61
f 215//215 178//178 182//182
f 256//256 268//268 206//206
f 131//131 111//111 400//400
f 171//171 165//165 89//89
f 284//284 205//205 166//166
f 50//50 82//82 77//77
f 204//204 224//224 246//246
f 413//413 415//415 361//361
f 428//428 31//31 206//206
f 419//419 326//326 292//292
f 172//172 189//189 188//188
f 215//215 216//216 178//178
f 68//68 76//76 79//79
f 215//215 428//428 30//30
f 365//365 393//393 367//367
f 411//411 348//348 369//369
f 434//434 64//64 72//72
f 300//300 333//333 164//164
f 350//350 351//351 402//402
f 311//311 329//329 337//337
f 443//443 82//82 71//71
f 264//264 261//261 237//237
f 264//264 237//237 261//261
f 49//49 76//76 63//63
f 406//406 409//409 384//384
f 287//287 149//149 169//169
f 164//164 279//279 87//87
f 448//448 239//239 19//19
f 354//354 365//365 353//353
f 12//12 255//255 267//267
f 195//195 29//29 156//156
f 195//195 156//156 29//29
f 390//390 372//372 392//392
f 341//341 331//331 332//332
f 297//297 330//330 321//321
f 186//186 87//87 146//146
f 253//253 268//268 208//208
f 390//390 360//360 374//374
f 301//301 317//317 295//295
f 422//422 315//315 348//348
f 71//71 82//82 80//80
f 310//310 296//296 340//340
f 291//291 331//331 319//319
f 292//292 299//299 333//333
f 426//426 207//207 31//31
f 417//417 326//326 315//315
f 292//292 333//333 322//322
f 448//448 254//254 238//238
f 18//18 263//263 7//7
f 157//157 211//211 429//429
f 309//309 334//334 317//317
f 35//35 17//17 6//6
f 419//419 292//292 322//322
f 70//70 69//69 75//75
f 227//227 30//30 428//428
f 271//271 264//264 270//270
f 109//109 101//101 102//102
f 147//147 279//279 89//89
f 441//441 79//79 76//76
f 81//81 58//58 63//63
f 362//362 391//391 363//363
f 253//253 263//263 268//268
f 307//307 78//78 339//339
f 284//284 288//288 250//250
f 253//253 266//266 263//263
f 65//65 62//62 69//69
f 229//229 269//269 208//208
f 350//350 395//395 351//351
f 102//102 101//101 124//124
f 198//198 160//160 86//86
f 440//440 441//441 78//78
f 109//109 102//102 98//98
f 352//352 363//363 392//392
f 200//200 190//190 144//144
f 209//209 430//430 158//158
f 253//253 208//208 269//269
f 430//430 213//213 196//196
f 84//84 60//60 57//57
f 387//387 366//366 400//400
f 284//284 226//226 205//205
f 417//417 305//305 314//314
f 380//380 399//399 372//372
f 175//175 128//128 113//113
f 8//8 10//10 447//447
f 17//17 4//4 259//259
f 29//29 156//156 425//425
f 29//29 425//425 156//156
f 39//39 57//57 60//60
f 148//148 420//420 288//288
f 71//71 80//80 63//63
f 416//416 79//79 347//347
f 253//253 254//254 266//266
f 118//118 123//123 101//101
f 262//262 11//11 266//266
f 18//18 11//11 268//268
f 282//282 163//163 170//170
f 41//41 56//56 40//40
f 18//18 7//7 11//11
f 239//239 428//428 30//30
f 390//390 392//392 391//391
f 421//421 382//382 364//364
f 4//4 267//267 259//259
f 430//430 156//156 429//429
f 290//290 296//296 318//318
f 262//262 266//266 19//19
f 443//443 77//77 47//47
f 446//446 16//16 236//236
f 253//253 268//268 254//254
f 257//257 270//270 220//220
f 253//253 426//426 268//268
f 91//91 92//92 98//98
f 105//105 101//101 123//123
f 39//39 24//24 27//27
f 10//10 15//15 241//241
f 121//121 187//187 273//273
f 227//227 425//425 207//207
f 412//412 384//384 409//409
f 108//108 107//107 374//374
f 426//426 30//30 268//268
f 190//190 274//274 144//144
f 215//215 232//232 428//428
f 232//232 178//178 216//216
f 426//426 31//31 216//216
f 177//177 214//214 6//6
f 436//436 86//86 160//160
f 392//392 372//372 357//357
f 380//380 107//107 132//132
f 418//418 273//273 165//165
f 291//291 319//319 294//294
f 138//138 399//399 132//132
f 344//344 346//346 295//295
f 117//117 248//248 225//225
f 198//198 184//184 74//74
f 402//402 407//407 410//410
f 406//406 384//384 373//373
f 11//11 7//7 266//266
f 154//154 202//202 275//275
f 59//59 82//82 72//72
f 411//411 305//305 348//348
f 39//39 33//33 57//57
f 48//48 77//77 443//443
f 177//177 6//6 16//16
f 424//424 308//308 347//347
f 174//174 194//194 145//145
f 297//297 321//321 312//312
f 299//299 171//171 333//333
f 408//408 378//378 404//404
f 121//121 93//93 187//187
f 44//44 38//38 43//43
f 116//116 113//113 128//128
f 10//10 449//449 15//15
f 205//205 226//226 249//249
f 301//301 309//309 317//317
f 12//12 5//5 6//6
f 190//190 201//201 274//274
f 430//430 211//211 156//156
f 398//398 373//373 384//384
f 133//133 137//137 246//246
f 108//108 97//97 242//242
f 9//9 6//6 17//17
f 156//156 219//219 425//425
f 156//156 425//425 219//219
f 26//26 22//22 252//252
f 40//40 42//42 25//25
f 138//138 385//385 399//399
f 232//232 219//219 178//178
f 8//8 447//447 449//449
f 42//42 27//27 25//25
f 42//42 25//25 27//27
f 344//344 342//342 355//355
f 284//284 250//250 226//226
f 394//394 401//401 402//402
f 350//350 315//315 423//423
f 50//50 72//72 82//82
f 148//148 323//323 420//420
f 352//352 357//357 351//351
f 401//401 368//368 379//379
f 345//345 343//343 298//298
f 12//12 4//4 5//5
f 258//258 241//241 265//265
f 310//310 334//334 309//309
f 51//51 43//43 38//38
f 448//448 238//238 30//30
f 112//112 243//243 129//129
f 257//257 240//240 212//212
f 179//179 30//30 426//426
f 108//108 374//374 397//397
f 360//360 391//391 396//396
f 26//26 43//43 38//38
f 137//137 382//382 139//139
f 55//55 40//40 1//1
f 8//8 237//237 3//3
f 437//437 444//444 73//73
f 193//193 174//174 145//145
f 421//421 364//364 349//349
f 426//426 30//30 207//207
f 74//74 184//184 222//222
f 272//272 186//186 125//125
f 323//323 309//309 301//301
f 3//3 237//237 14//14
f 257//257 271//271 270//270
f 443//443 77//77 82//82
f 55//55 42//42 40//40
f 348//348 410//410 369//369
f 287//287 325//325 149//149
f 264//264 240//240 159//159
f 404//404 136//136 389//389
f 323//323 301//301 420//420
f 426//426 269//269 207//207
f 116//116 223//223 113//113
f 147//147 90//90 276//276
f 65//65 70//70 75//75
f 412//412 409//409 371//371
f 407//407 401//401 379//379
f 338//338 324//324 341//341
f 200//200 202//202 201//201
f 32//32 53//53 44//44
f 316//316 322//322 300//300
f 45//45 40//40 56//56
f 59//59 61//61 58//58
f 207//207 425//425 31//31
f 405//405 383//383 397//397
f 297//297 312//312 331//331
f 207//207 206//206 31//31
f 340//340 296//296 324//324
f 232//232 210//210 159//159
f 346//346 359//359 381//381
f 136//136 96//96 126//126
f 55//55 33//33 41//41
f 375//375 355//355 357//357
f 45//45 41//41 33//33
f 133//133 224//224 251//251
f 272//272 125//125 415//415
f 310//310 309//309 302//302
f 217//217 197//197 158//158
f 428//428 206//206 30//30
f 40//40 25//25 1//1
f 39//39 57//57 55//55
f 70//70 85//85 66//66
f 75//75 69//69 432//432
f 225//225 248//248 134//134
f 350//350 402//402 348//348
f 48//48 435//435 50//50
f 447//447 10//10 449//449
f 84//84 57//57 21//21
f 12//12 6//6 9//9
f 264//264 220//220 270//270
f 209//209 158//158 427//427
f 276//276 90//90 151//151
f 192//192 330//330 173//173
f 325//325 304//304 303//303
f 74//74 222//222 160//160
f 254//254 268//268 11//11
f 55//55 1//1 42//42
f 172//172 161//161 167//167
f 354//354 353//353 356//356
f 34//34 54//54 32//32
f 392//392 363//363 391//391
f 413//413 316//316 415//415
f 320//320 299//299 292//292
f 285//285 146//146 88//88
f 360//360 405//405 397//397
f 131//131 244//244 111//111
f 307//307 327//327 328//328
f 55//55 41//41 40//40
f 245//245 251//251 224//224
f 232//232 159//159 211//211
f 445//445 252//252 22//22
f 390//390 374//374 380//380
f 91//91 98//98 95//95
f 84//84 21//21 39//39
f 8//8 447//447 237//237
f 287//287 283//283 139//139
f 282//282 170//170 143//143
f 436//436 198//198 444//444
f 26//26 38//38 22//22
f 39//39 21//21 24//24
f 434//434 72//72 50//50
f 445//445 37//37 44//44
f 191//191 173//173 318//318
f 378//378 112//112 129//129
f 106//106 128//128 104//104