# https://github.com/mikedh/trimesh
v 0.02702700 0.05826200 -0.01805800
v -0.01823200 0.05352800 -0.02032800
v -0.01773700 0.05826000 0.02161300
v -0.02324700 0.05826000 0.01553300
v -0.01196100 0.04794300 -0.02596800
v -0.03231100 0.05958200 -0.00353900
v 0.00830900 0.04794300 -0.02739100
v -0.02779300 0.05957900 -0.00304400
v -0.00280600 0.04794300 -0.02848600
v 0.01156900 0.04794300 0.01168300
v 0.02465900 0.04794300 0.01446800
v -0.01346800 0.04794300 -0.02525500
v -0.02196700 0.05365600 -0.02468700
v -0.02248800 0.04794300 -0.01767100
v 0.02062100 0.05826200 -0.02512600
v 0.01773700 0.05826000 -0.02161200
v 0.02254600 0.04794300 -0.01759200
v 0.02298400 0.05298700 -0.02298400
v -0.02298400 0.05298700 0.02298400
v -0.02742200 0.04794300 -0.00818400
v 0.02772200 0.04794300 -0.00698800
v 0.02799500 0.04794300 -0.00589600
v -0.01243900 0.05298700 0.03003000
v 0.03003000 0.05298700 -0.01243900
v 0.02819700 -0.04644400 0.01417800
v 0.01211000 -0.03541200 0.03158300
v -0.02332400 -0.00260100 0.02852900
v 0.02799500 0.04558600 -0.00589600
v -0.01034400 0.04309700 0.03475300
v 0.02772200 0.04558600 -0.00698800
v 0.01123200 -0.04644400 0.02962300
v 0.01058000 0.04794300 0.01147200
v 0.00087300 0.05958200 0.03250200
v -0.01274600 0.05364400 -0.03048800
v -0.02843100 0.04794300 0.00317200
v -0.02531700 0.04794300 0.01333800
v -0.02702600 0.05826200 0.01805800
v 0.00864500 0.04794300 0.02056400
v -0.00830900 0.04794300 0.02739100
v -0.00280600 0.04794300 0.02848600
v 0.02150100 0.04794300 -0.01884800
v -0.01815900 0.04794300 0.02212600
v -0.02462900 0.04794300 0.01451800
v 0.00830900 0.04794300 0.02739100
v -0.02315000 0.04794300 -0.01677800
v 0.01659100 0.04794300 0.02328800
v 0.00963400 0.04794300 0.02077500
v 0.00081900 0.05957900 0.02795700
v 0.01767400 0.04794300 0.02248500
v 0.02298400 0.05298700 0.02298400
v 0.01977000 0.05298500 0.01977000
v -0.01977000 0.05298500 -0.01977000
v -0.02298400 0.05298700 -0.02298400
v 0.02520900 0.04794300 0.01355100
v -0.03194700 0.05958200 0.00599300
v -0.02851900 0.04794300 0.00211900
v -0.02766800 0.04794300 -0.00720300
v -0.02583100 0.05298500 -0.01069900
v -0.01061200 0.05316300 -0.02563200
v -0.02748000 0.05957900 0.00515500
v 0.02324700 0.05826000 -0.01553300
v 0.02835500 0.04794300 0.00368400
v 0.01008700 0.05826000 0.02616700
v -0.00952600 0.05958200 0.03120500
v 0.02940100 -0.02443300 -0.01949000
v 0.00029600 -0.05844400 0.02845400
v 0.02799500 -0.05446900 0.00589600
v 0.02795900 -0.05817800 0.00000000
v -0.00323700 -0.03765000 0.03087200
v 0.03017600 0.00826600 -0.02024000
v -0.03611200 -0.01373300 -0.00402000
v 0.01058000 -0.05682600 -0.01147200
v 0.03568100 0.04213300 0.00560800
v 0.02820700 0.04558600 0.00468600
v 0.01058000 -0.05446900 -0.01147200
v 0.04148700 -0.00260100 0.00000000
v 0.00000000 -0.00260100 0.04148700
v 0.00223400 -0.00260100 0.04139800
v 0.00215500 0.04213300 0.03602200
v -0.02424100 -0.04366600 -0.02801100
v -0.00971400 0.03091100 0.03237900
v 0.02990400 -0.05958200 0.01482200
v 0.02578600 -0.05958200 0.01277800
v -0.03461600 0.03135600 0.01459300
v -0.01513100 0.01782700 0.03690800
v 0.01326800 -0.01346800 0.03402900
v 0.03679800 0.01782700 -0.01539900
v -0.02766800 -0.05446900 0.00720300
v 0.00000000 -0.05817800 -0.02795900
v 0.00963400 -0.05682600 -0.02077500
v -0.02795900 -0.05817800 0.00000000
v -0.01323000 -0.04783000 -0.03245300
v 0.03024800 -0.01346800 -0.02013200
v 0.01249800 0.03021100 0.03145100
v 0.02247700 -0.02443300 -0.02718600
v 0.02541800 -0.02496800 -0.03074300
v 0.02583100 -0.05817800 -0.01069900
v -0.01069900 -0.05817800 0.02583100
v 0.01767400 0.04558600 0.02248500
v 0.02465900 -0.05682600 -0.01446800
v -0.00017700 -0.04694100 0.03056400
v -0.01359300 -0.04783000 0.03230300
v 0.03244400 -0.04786900 -0.01322700
v 0.00065500 -0.03616200 0.03367200
v 0.03055800 -0.04696700 0.00017600
v -0.03612600 0.00848200 -0.00389100
v 0.02838500 -0.05958200 0.00474300
v -0.03324700 -0.02496800 0.02204100
v 0.01069900 -0.05817800 0.02583100
v 0.02583100 -0.05817800 0.01070000
v 0.02772200 -0.05682600 0.00698800
v 0.01156900 -0.05446900 -0.01168300
v 0.02872200 0.03967500 0.01170300
v 0.01203100 0.03968900 0.02858300
v 0.02520900 0.04558600 0.01355100
v 0.01034800 -0.05958200 0.02695300
v 0.02841300 0.04124300 0.01374000
v -0.03662000 -0.00262600 -0.00401100
v -0.01977000 -0.05817800 0.01977000
v 0.01977000 -0.05817800 -0.01977000
v 0.01349300 -0.05682600 -0.02524400
v -0.03757700 0.03370500 -0.01114400
v -0.01539900 -0.02303000 0.03679800
v 0.03690800 -0.02303000 -0.01513100
v 0.03720800 -0.00260100 0.01834900
v -0.02395900 -0.05958200 0.01594200
v -0.03756600 0.03166600 0.00726500
v -0.01093500 -0.04834800 0.03459600
v -0.01466900 0.01723400 -0.03125400
v -0.00280600 -0.05446900 0.02848600
v -0.02286300 0.03963000 -0.01854500
v 0.02835500 -0.05446900 -0.00368400
v 0.01430200 0.03095000 0.03573300
v -0.02294700 -0.00259700 -0.02783900
v -0.02821800 0.03963500 -0.00838400
v 0.02286300 -0.04483300 -0.01854500
v -0.02412200 -0.03763200 0.01954400
v 0.01185900 -0.04695100 -0.02816800
v -0.02831100 -0.04691600 0.01153500
v -0.00280600 0.04558600 -0.02848600
v 0.01359100 -0.04785300 -0.03229800
v 0.00179200 -0.01346800 0.03626100
v 0.00830900 0.04558600 -0.02739100
v -0.00390800 0.04076400 -0.03742500
v 0.01800400 -0.04597700 -0.03321400
v 0.02934200 -0.04598500 -0.02379500
v -0.03464600 0.01968900 0.00662900
v -0.01830000 -0.05958200 0.02221100
v 0.01830000 -0.05958200 -0.02221000
v -0.03507800 0.01968900 -0.00371300
v 0.02150900 -0.03541200 -0.02591200
v -0.02766800 0.04558600 -0.00720300
v -0.00305500 0.03961100 -0.02928400
v -0.02805800 -0.03541200 0.01860400
v -0.03805700 0.03166600 -0.00395300
v 0.03261700 0.00826600 0.01601300
v 0.03478200 -0.02443300 0.00587200
v -0.01196100 0.04558600 -0.02596800
v -0.00323400 0.03245200 -0.03087200
v -0.01402700 0.03962100 -0.02588400
v 0.01071200 0.04075400 -0.03607300
v -0.02777100 0.00766700 -0.03115900
v 0.02778900 -0.05958200 -0.01848600
v -0.03544700 0.04309700 0.00693400
v -0.03097400 0.04218600 0.00605900
v -0.03018600 -0.04733500 0.01983300
v -0.02315000 -0.05682600 0.01677800
v 0.01659100 -0.05682600 -0.02328800
v 0.01815900 -0.05682600 -0.02212600
v 0.00838500 0.03960000 -0.02822600
v -0.01800200 -0.04595200 0.03322100
v -0.00410500 -0.03888100 0.03914600
v -0.02492200 -0.04782000 0.02464400
v -0.02312900 -0.04733500 0.02774200
v 0.01173500 0.04124300 0.02945100
v -0.00014500 0.01782700 -0.03988900
v -0.01480600 -0.03764000 0.02728500
v -0.02673000 0.03135000 -0.02639800
v -0.02610700 0.02817500 -0.02899800
v -0.01793000 0.04077400 -0.03307900
v 0.03758700 0.03365500 0.01114600
v 0.02821800 -0.04483800 -0.00838400
v 0.01539900 -0.02303000 -0.03679800
v -0.03690800 -0.02303000 0.01513100
v -0.01195400 -0.02548700 0.03825500
v 0.02396000 -0.05958200 -0.01594200
v 0.00157600 -0.05958200 0.03330800
v 0.02673600 0.03130800 0.02640400
v -0.03988900 0.01782700 0.00014500
v 0.00882300 -0.03766100 0.02975900
v 0.03559000 -0.04733500 0.00615900
v -0.02315000 0.04558600 -0.01677800
v 0.01659100 0.04558600 0.02328800
v -0.01346800 -0.05682600 0.02525500
v 0.02520900 -0.05682600 -0.01355100
v 0.03046100 0.03366000 0.02468000
v -0.04148700 -0.00260100 0.00000000
v 0.00000000 -0.00260100 -0.04148700
v -0.03620700 -0.00262600 0.00679200
v 0.03988900 0.01782700 -0.00014500
v 0.03226900 -0.04733500 0.01622500
v 0.02254600 -0.05682600 0.01759200
v -0.01375100 -0.03243600 -0.02992700
v 0.00323700 0.03244700 0.03087200
v 0.02463700 -0.04786200 0.02491400
v -0.02197600 -0.05885700 -0.02467700
v 0.03325600 0.03021100 0.00530000
v 0.00014500 0.01782700 0.03988900
v -0.02631900 -0.00260100 0.03207000
v 0.02269700 0.04213300 -0.02809600
v -0.03308600 0.01976600 0.02228200
v 0.01855000 0.03959000 -0.02287000
v 0.02370300 0.04074400 -0.02923000
v 0.00408800 0.03367800 0.03898700
v -0.02742200 -0.05446900 0.00818400
v -0.03106400 -0.04743800 0.00557900
v 0.03255900 -0.01346800 0.01612900
v 0.03018600 -0.04733500 -0.01983300
v 0.01353000 -0.00260100 0.03447800
v 0.02637700 -0.04644400 -0.01733000
v -0.01477100 0.03846400 -0.03397100
v 0.00882700 0.03244200 -0.02976100
v -0.01480100 0.03246200 -0.02728200
v -0.03774100 -0.03885800 0.01119100
v -0.01877400 -0.03887100 0.03459700
v -0.03306300 0.03091100 0.00639400
v 0.01869700 0.03366800 0.03445600
v -0.02411300 0.03247000 -0.01954000
v 0.02922800 0.04074100 0.02370700
v -0.00391800 -0.04596100 0.03757900
v 0.02975500 -0.03767900 -0.00882400
v 0.01353900 0.04213300 0.03370400
v -0.01011100 -0.03616200 0.03227400
v -0.02639800 0.03134900 0.02673000
v 0.00129900 -0.00261600 0.03680400
v 0.02150100 0.04558600 -0.01884800
v -0.01815900 0.04558600 0.02212600
v -0.02462900 0.04558600 0.01451800
v 0.00864500 -0.05446900 -0.02056400
v 0.00280600 -0.05446900 -0.02848600
v 0.02468200 0.03366400 -0.03045800
v -0.02588300 0.03963200 0.01402300
v -0.02728900 -0.03762900 -0.01480500
v -0.02976600 -0.03762700 0.00882600
v 0.02640400 0.03130900 -0.02673600
v 0.03671400 -0.01378400 0.01818700
v -0.01275800 -0.05886800 -0.03048200
v 0.02310100 -0.01346800 -0.02804600
v -0.02103600 0.02723300 -0.02534100
v 0.03251700 0.04213300 0.01572400
v 0.00830900 -0.05446900 0.02739100
v -0.01869100 0.03369200 -0.03445400
v 0.01279200 -0.02443300 0.03305800
v -0.02531700 -0.05682600 -0.01333800
v -0.00830900 -0.05446900 -0.02739100
v 0.01954500 0.03243200 -0.02412000
v -0.03445000 0.03370300 0.01869300
v -0.02467400 0.03369700 0.03045500
v -0.03134600 -0.04743800 -0.00367900
v -0.03012900 0.00826600 0.02029200
v -0.01492500 -0.01247200 -0.03230000
v 0.03087800 0.03242300 -0.00323600
v 0.00148400 0.04166200 0.03151000
v 0.01211800 -0.05958200 0.03126000
v 0.03028600 0.03021100 0.01472600
v 0.03109900 -0.04644400 0.00538200
v 0.01156900 0.04558600 0.01168300
v -0.00280600 -0.05682600 0.02848600
v -0.02922200 0.04078200 -0.02369900
v 0.02286900 0.03958600 0.01855300
v 0.02835500 -0.05682600 -0.00368400
v -0.00859700 -0.05884300 0.02800700
v 0.03063100 -0.00260100 -0.02046600
v 0.00102200 0.01968900 0.03526700
v -0.01485500 -0.03337700 -0.03608000
v 0.00864500 0.04558600 0.02056400
v 0.03743200 0.04073500 -0.00390600
v 0.02379900 -0.04598100 0.02934000
v 0.03459100 -0.03890600 0.01876900
v -0.01170200 0.03971000 0.02871400
v 0.02858400 0.03967600 -0.01203600
v 0.01296300 -0.04733500 0.03390100
v 0.03449500 -0.00260100 -0.02304800
v 0.03778500 0.03095000 0.00602200
v 0.02465900 0.04558600 0.01446800
v 0.00830900 -0.05682600 0.02739100
v 0.02412200 0.03242900 0.01954400
v 0.01792900 0.04074900 0.03308600
v 0.01402700 0.03959400 0.02589100
v -0.03045200 0.03370000 -0.02467700
v 0.00077800 -0.05890400 0.03380400
v -0.04124000 -0.00262600 -0.00451700
v 0.01513100 0.01782700 -0.03690800
v -0.03679800 0.01782700 0.01539900
v 0.04093300 -0.00260100 0.00675800
v 0.02835500 0.04558600 0.00368400
v 0.02728900 0.03242600 -0.01480500
v 0.02477500 -0.03890000 0.03058000
v 0.03101500 0.03967400 -0.00018000
v -0.03988900 -0.02303000 -0.00014500
v 0.00014500 -0.02303000 -0.03988900
v 0.00017700 0.03969900 0.03100900
v -0.01027000 0.01968900 0.03389700
v -0.01946000 -0.04243600 -0.02363000
v -0.02146200 -0.03541200 0.02596400
v 0.02810500 -0.03541200 -0.01855200
v -0.02202800 0.01724400 -0.02658500
v -0.02248800 -0.05446900 0.01767100
v 0.01767400 -0.05446900 -0.02248500
v -0.03606500 0.04078700 -0.01071300
v -0.03086600 0.03247700 0.00323500
v 0.00082200 -0.01373300 0.03633000
v -0.01054000 -0.02494000 0.03382500
v 0.03586000 0.00826600 0.00585500
v 0.02987600 0.04213300 -0.02029800
v -0.02269700 0.04213300 0.02809700
v -0.02843100 -0.05446900 -0.00317200
v 0.01114800 0.03367300 -0.03758300
v 0.03446000 0.03365700 -0.01869500
v 0.03679800 -0.02303000 0.01539900
v 0.01513100 -0.02303000 0.03690800
v 0.00163500 0.02002700 0.03984500
v 0.00192700 0.01923200 0.03519000
v -0.02787800 0.03021100 0.01888500
v 0.03158000 -0.02443300 0.01571600
v -0.01974000 0.03734700 -0.02410500
v 0.03771500 -0.03615100 0.00644400
v -0.01558000 0.01787000 -0.03705200
v -0.02248800 0.04558600 -0.01767100
v 0.02465900 -0.05446900 -0.01446800
v 0.01480600 0.03243700 0.02728500
v -0.02205100 0.03972000 -0.02179600
v 0.02205500 0.03968100 0.02180400
v -0.03690800 0.01782700 -0.01513100
v 0.00154000 -0.04733500 0.03605900
v -0.01444400 -0.02244600 -0.03135900
v 0.02298400 -0.05819800 0.02298400
v 0.01977000 -0.05817800 0.01977000
v -0.01977000 -0.05817800 -0.01977000
v -0.02298400 -0.05819800 -0.02298400
v 0.02929100 0.03958000 -0.00305400
v -0.01071700 0.04076900 0.03606800
v 0.02254600 -0.05446900 0.01759200
v 0.00155400 0.03049100 0.03362200
v -0.01229300 -0.00262600 0.03982900
v 0.00023500 0.03132900 0.03757100
v 0.03757700 0.03130000 -0.00023500
v -0.03963700 -0.02548700 -0.00448600
v 0.02519400 0.01976600 -0.03092600
v 0.03571200 -0.02496800 0.01777300
v -0.02531700 -0.05446900 -0.01333800
v -0.00830900 -0.05682600 -0.02739100
v 0.03899200 0.03365400 -0.00408600
v 0.03308600 0.04073800 -0.01793400
v -0.02823000 -0.04478400 0.00838800
v -0.03230700 -0.04781400 -0.01359500
v -0.01088700 -0.00262600 0.03536400
v -0.02886400 -0.05958200 -0.00323500
v -0.02987500 0.04213300 0.02029800
v -0.02921100 0.01923200 0.01975500
v -0.00830900 0.04558600 0.02739100
v -0.00280600 0.04558600 0.02848600
v 0.02976600 0.03242400 0.00882600
v -0.00838800 0.03961500 0.02822200
v 0.01118700 -0.03889100 0.03773500
v 0.02816500 -0.04696500 0.01185700
v 0.01153200 -0.04695100 0.02830300
v -0.03322100 -0.04594100 -0.01800700
v -0.01587600 -0.00260100 0.03832900
v -0.03832900 -0.00260100 0.01587600
v 0.01587600 -0.00260100 -0.03832900
v 0.03832900 -0.00260100 -0.01587600
v -0.01824000 -0.05871300 -0.02032300
v -0.00900300 0.04218700 0.03036400
v -0.01622300 0.00767800 -0.03845700
v -0.01346800 0.04558600 -0.02525500
v -0.03742000 0.04078800 0.00390300
v -0.02975500 0.03247600 -0.00882400
v 0.02411300 -0.03767300 -0.01954000
v -0.02122500 -0.05958200 0.02575700
v -0.03349600 0.03091100 -0.00347900
v -0.02843100 -0.05682600 -0.00317200
v -0.03307900 0.04078500 0.01792600
v -0.02370200 0.04077800 0.02922000
v -0.01953800 0.03246700 0.02411600
v -0.03758400 -0.04593800 -0.00392200
v -0.00882700 -0.03764500 -0.02976100
v 0.03938000 0.01976600 0.00635500
v 0.00145000 0.00837400 0.03629100
v 0.00117700 0.03166600 0.03825700
v 0.03482400 0.01923200 0.00562000
v 0.03583900 -0.01346800 0.00598300
v -0.01636900 -0.00259600 -0.03896200
v 0.01349300 -0.05446900 -0.02524400
v -0.02927800 0.03963600 0.00305200
v -0.03245700 -0.04781400 0.01323100
v -0.02830800 0.01782700 -0.02810400
v 0.02830800 0.01782700 0.02810400
v -0.03917900 0.02023600 0.00749700
v -0.02727900 0.03247400 0.01480200
v -0.01119300 -0.03887600 -0.03773700
v 0.00223600 0.03095000 0.03816500
v -0.03345500 -0.03616200 -0.00385300
v -0.01854800 0.03962500 0.02286200
v -0.00838500 -0.04480300 -0.02822600
v -0.02742200 -0.05682600 0.00818400
v -0.03505000 -0.04781200 -0.00019700
v 0.02589200 0.03958300 -0.01403100
v 0.00963400 0.04558600 0.02077500
v -0.01114200 0.03368800 0.03758100
v 0.02727900 -0.03767700 0.01480200
v -0.03679800 -0.02303000 -0.01539900
v -0.01531000 -0.02306800 -0.03716500
v 0.04043600 0.00858300 0.00660200
v -0.03572400 -0.01373300 0.00663600
v -0.02295400 0.00826600 0.02818000
v 0.02925800 0.01923200 -0.01970300
v -0.01416000 0.03134000 0.03479900
v 0.00830900 0.04558600 0.02739100
v 0.02823000 0.03958100 0.00838800
v -0.00882300 0.03245800 0.02975900
v 0.00390200 0.04075800 0.03742700
v 0.02148400 -0.04696000 0.02173400
v -0.02464400 -0.04782100 -0.02492200
v -0.01954500 -0.03763500 -0.02412000
v -0.02149000 -0.04692200 -0.02174000
v 0.02810400 0.01782700 -0.02830800
v -0.02810400 0.01782700 0.02830800
v -0.03469300 -0.02494000 0.00637800
v 0.02337100 -0.00260100 -0.02847600
v 0.02631900 -0.00260100 -0.03206900
v 0.03607600 0.04073600 0.01071700
v 0.00305100 0.03960500 0.02928600
v 0.03169300 0.01923200 0.01548700
v 0.00164600 -0.02443300 0.03520700
v -0.01525800 0.02818500 -0.03591100
v -0.03898100 0.03370600 0.00408600
v -0.02711800 0.01792200 -0.03028600
v -0.01080000 -0.01373300 0.03486200
v -0.02266900 0.00726900 -0.02742600
v -0.03756500 0.03135800 0.00023500
v 0.02298400 -0.05819800 -0.02298400
v -0.02298400 -0.05819800 0.02298400
v 0.01767400 -0.05682600 -0.02248500
v -0.02851900 0.04558600 0.00211900
v -0.02248800 -0.05682600 0.01767100
v -0.00408300 0.03368300 -0.03898600
v -0.02778800 -0.05958200 0.01848600
v -0.03593300 0.04309700 -0.00365400
v -0.00023500 0.03132900 -0.03757100
v -0.03058400 -0.00260100 0.02051800
v 0.02227900 0.01923200 -0.02734800
v 0.03422100 -0.03615100 0.01711400
v 0.01058000 0.04558600 0.01147200
v 0.02150100 -0.05682600 0.01884800
v 0.01815900 -0.05682600 0.02212600
v -0.01815900 -0.05682600 -0.02212600
v -0.02478300 -0.03886700 -0.03058200
v 0.02588300 -0.04483500 0.01402300
v 0.03321400 -0.04598800 0.01799900
v -0.02933500 -0.00260100 0.02933500
v 0.02933500 -0.00260100 -0.02933500
v -0.03449500 -0.00260100 0.02304900
v -0.03505000 -0.02494000 -0.00396700
v 0.02300100 0.00826600 -0.02812800
v 0.01815900 -0.05446900 0.02212600
v 0.02150100 -0.05446900 0.01884800
v -0.01815900 -0.05446900 -0.02212600
v -0.03460100 -0.03886000 -0.01877200
v 0.03011900 -0.03541200 0.01506300
v 0.01305500 0.01923200 0.03296800
v -0.02016400 -0.04644400 0.02429300
v -0.01288800 0.03723400 -0.02776600
v -0.03479600 0.03135600 -0.01415800
v -0.01408100 0.02722300 -0.02977100
v -0.02742200 0.04558600 -0.00818400
v 0.01402700 -0.04482400 -0.02588400
v -0.03058500 -0.03886300 0.02478100
v 0.02173400 -0.04696000 -0.02148400
v -0.02174000 -0.04692200 0.02149000
v -0.03100300 0.03972700 0.00017900
v -0.00018200 0.03970100 -0.03100900
v -0.02933500 -0.00260100 -0.02933500
v 0.02933500 -0.00260100 0.02933500
v -0.02633000 -0.04644400 0.01738200
v 0.00074000 -0.02494000 0.03527000
v 0.03677800 0.00858300 0.01805600
v 0.01539900 0.01782700 0.03679800
v 0.03690800 0.01782700 0.01513100
v -0.01459400 0.03134100 -0.03461900
v 0.01340200 0.00826600 0.03398300
v 0.01480100 -0.03766500 -0.02728200
v 0.02491400 -0.04786300 -0.02463700
v -0.03966800 0.02023600 -0.00419900
v 0.03304000 -0.00260100 0.01629400
v -0.02843100 0.04558600 0.00317200
v -0.02315000 -0.05446900 0.01677800
v 0.01659100 -0.05446900 -0.02328800
v 0.01815900 -0.05446900 -0.02212600
v 0.03057700 -0.03890300 -0.02477800
v 0.01876700 -0.03889500 -0.03459500
v -0.02805100 -0.00260600 -0.03160900
v 0.02122600 -0.05958200 -0.02575600
v -0.03139900 0.04218600 -0.00319300
v -0.02935400 -0.02443300 0.01954200
v 0.03933300 -0.02496800 0.00664100
v -0.01243900 -0.05819800 0.03003000
v -0.01196100 -0.05682600 0.02596800
v 0.02927800 -0.04483900 0.00305200
v 0.01076100 -0.04597200 0.03621600
v 0.02820700 -0.05446900 -0.00468600
v 0.03003000 -0.05819800 -0.01243900
v -0.02474100 0.03837100 -0.02699700
v 0.01459600 0.03131800 0.03462400
v 0.03480600 0.03130200 0.01416300
v 0.00146500 -0.03541200 0.03361600
v 0.03441000 0.03095000 0.01673100
v -0.02305400 -0.01346800 0.02809800
v 0.00080300 -0.02548700 0.03988900
v -0.01346800 -0.05446900 0.02525500
v 0.03757200 -0.04599100 0.00391900
v 0.00838800 -0.04481800 0.02822200
v 0.02520900 -0.05446900 -0.01355100
v 0.01486200 0.01976600 0.03728200
v 0.00056800 -0.04743800 0.03155800
v -0.04077500 -0.00262600 0.00764900
v 0.03584000 0.01976600 0.01751300
v -0.02223200 0.01923200 0.02740000
v 0.03462700 0.03130300 -0.01459700
v 0.01243900 -0.05819800 0.03003000
v 0.03003000 -0.05819800 0.01243900
v 0.01854800 -0.04482800 0.02286200
v -0.02380000 -0.04594700 -0.02934900
v 0.03229400 -0.04786900 0.01358900
v 0.01322800 -0.04785300 0.03244800
v 0.00122400 0.04309700 0.03611300
v 0.00098100 -0.00262600 0.04148400
v -0.01107400 0.03166600 0.03679200
v 0.03117800 0.04124300 0.00490000
v -0.03923200 -0.02548700 0.00721300
v -0.01855000 -0.04479300 -0.02287000
v 0.01953800 -0.03767000 0.02411600
v -0.01517600 -0.00260600 -0.03273000
v 0.00000000 -0.05819800 0.03250400
v 0.03250400 -0.05819800 0.00000000
v 0.02799500 -0.05682600 0.00589600
v -0.00305100 -0.04480800 0.02928600
v 0.03621300 -0.04599000 -0.01075600
v 0.02830800 -0.02303000 -0.02810400
v -0.02830800 -0.02303000 0.02810400
v 0.03324800 -0.02496800 -0.02204000
v -0.02541700 -0.02496800 0.03074300
v 0.02772200 -0.05446900 0.00698800
v 0.00125800 -0.05958200 0.02872000
v -0.02243000 -0.02443300 0.02723800
v -0.03570000 0.00848200 0.00676300
v 0.04041200 -0.01378400 0.00674600
v 0.01156900 -0.05682600 -0.01168300
v -0.01402700 -0.04479700 0.02589100
v 0.03773000 -0.03890800 -0.01118900
v -0.01186100 -0.04693100 0.02817200
v 0.02830000 -0.04696600 -0.01153100
v -0.03832900 -0.00260100 -0.01587600
v 0.03832900 -0.00260100 0.01587600
v 0.03503600 -0.04787200 0.00019600
v 0.01552400 -0.00260100 0.03865100
v 0.00026400 -0.04813100 0.03565800
v -0.01587600 -0.00260100 -0.03832900
v -0.00951900 -0.04743800 0.03022700
v 0.03291900 -0.05958200 0.00550300
v 0.02021100 -0.04644400 -0.02424100
v -0.03003000 -0.05819800 0.01243900
v 0.01243900 -0.05819800 -0.03003000
v -0.02286900 -0.04478900 0.01855300
v -0.02934700 -0.04594400 0.02380400
v 0.03914000 -0.03890900 0.00410300
v -0.02871200 0.03972500 -0.01169800
v -0.01203300 0.03971100 -0.02857700
v 0.02313000 -0.04733500 -0.02774200
v 0.01983300 0.04124300 -0.02455100
v -0.02120000 0.03021100 0.02617100
v -0.02817500 -0.04691700 -0.01186200
v -0.02765900 -0.01288000 -0.03126000
v -0.01319600 -0.04254900 -0.02822300
v -0.02183600 -0.02243700 -0.02674200
v -0.03622400 -0.04593900 0.01076100
v 0.00323400 -0.03765500 -0.03087200
v -0.02851900 -0.05682600 -0.00211900
v -0.01153400 -0.04693100 -0.02830700
v -0.02589200 -0.04478600 -0.01403100
v 0.01416200 0.03131800 -0.03480300
v -0.01164800 0.02023600 0.03833600
v -0.02578000 -0.03338800 -0.02928800
v -0.03344700 -0.05958200 -0.00375300
v 0.02410800 0.03095000 -0.02971100
v 0.03169500 0.03095000 -0.02143400
v -0.02410700 0.03095000 0.02971200
v -0.02075300 -0.03242600 -0.02557100
v 0.02254600 0.04558600 -0.01759200
v 0.00963400 -0.05446900 -0.02077500
v -0.02929100 -0.04478300 -0.00305400
v -0.02766800 -0.05682600 0.00720300
v -0.03057000 -0.04691400 -0.00017700
v 0.00017700 -0.04694100 -0.03056400
v 0.02180100 0.03968200 -0.02205800
v -0.02179800 0.03971800 0.02204900
v -0.02810400 -0.02303000 -0.02830800
v 0.02810400 -0.02303000 0.02830800
v -0.03169400 0.03095000 0.02143500
v -0.03313300 -0.03616200 0.00602400
v 0.00000000 -0.05819800 -0.03250400
v -0.02462900 -0.05446900 -0.01451800
v -0.03087800 -0.03762600 -0.00323600
v -0.01075600 -0.04595700 -0.03622100
v -0.03250400 -0.05819800 0.00000000
v -0.01364100 -0.04357300 -0.03398300
v -0.03555000 -0.04834800 0.00638500
v -0.02257100 -0.01246200 -0.02750500
v -0.01983300 0.04124300 0.02455100
v -0.02689700 -0.02313500 -0.03048300
v -0.01058300 -0.05842400 -0.02555700
v -0.02462900 -0.05682600 -0.01451800
v -0.03915100 -0.03885700 -0.00410300
v -0.02583100 -0.05817800 -0.01069900
v 0.01456400 -0.02496800 0.03738400
v -0.03309600 -0.05958200 0.00611800
v -0.01243900 -0.05819800 -0.03003000
v -0.02583100 -0.05817800 0.01069900
v 0.01069900 -0.05817800 -0.02583100
v -0.03003000 -0.05819800 -0.01243900
v -0.02531700 0.04558600 0.01333800
v 0.00410000 -0.03888600 -0.03914500
v -0.02851900 -0.05446900 -0.00211900
v 0.01170000 0.03969100 -0.02872000
v -0.02857500 0.03972400 0.01202900
v -0.01066300 0.00848200 0.03489800
v -0.02856000 -0.05958200 0.00528300
v -0.03587300 -0.04834800 -0.00421000
v -0.02610600 0.04124300 0.01773700
v 0.03319500 -0.03541200 0.00567100
v -0.03020100 -0.01346800 0.02018400
v -0.01503800 0.00726000 -0.03224700
v -0.01196100 -0.05446900 0.02596800
v 0.03086600 -0.03768000 0.00323500
v 0.02820700 -0.05682600 -0.00468600
v 0.03988900 -0.02303000 0.00014500
v -0.00014500 -0.02303000 0.03988900
v 0.00196000 -0.02496800 0.03981300
v -0.01003400 -0.05890400 0.03242600
v 0.00125100 -0.04644400 0.03150900
v 0.03308700 0.01976600 -0.02228100
v 0.02789600 0.03021100 -0.01886500
v 0.03634700 -0.00260100 0.00600100
v -0.02519400 0.01976600 0.03092700
v -0.01608400 -0.01287000 -0.03851500
v 0.00864500 -0.05682600 -0.02056400
v 0.00280600 -0.05682600 -0.02848600
v 0.00392400 -0.04596700 -0.03757700
v 0.01977000 0.05298500 -0.01977000
v -0.01977000 0.05298500 0.01977000
v 0.01243900 0.05298700 -0.03003000
v -0.03003000 0.05298700 0.01243900
v 0.01069900 0.05298500 -0.02583100
v -0.02583100 0.05298500 0.01069900
v -0.01243900 0.05298700 -0.03003000
v -0.03003000 0.05298700 -0.01243900
v 0.03003000 0.05298700 0.01243900
v 0.01243900 0.05298700 0.03003000
v 0.02507600 0.05826000 0.01236600
v 0.03250400 0.05298700 0.00000000
v 0.00000000 0.05298700 0.03250400
v 0.00158700 0.05826200 0.03243400
v 0.02583100 0.05298500 0.01069900
v 0.01069900 0.05298500 0.02583100
v 0.02820700 0.04794300 0.00468600
v 0.02795900 0.05298500 0.00000000
v 0.00000000 0.05298500 0.02795900
v 0.03207000 0.05826200 0.00529500
v -0.01069900 0.05298500 0.02583100
v 0.02583100 0.05298500 -0.01069900
v -0.02795900 0.05298500 0.00000000
v 0.00000000 0.05298500 -0.02795900
v -0.03250400 0.05298700 0.00000000
v 0.00000000 0.05298700 -0.03250400
v 0.00305400 -0.04481400 -0.02928400
v 0.02121900 0.03021100 -0.02615000
v 0.02610600 0.04124300 -0.01773700
v 0.00019600 -0.04784200 -0.03504300
v 0.00126000 0.05826000 0.02789900
v 0.01185000 0.05826200 0.03042100
v 0.02915200 0.05826200 0.01437600
v 0.02758600 0.05826000 0.00455400
v -0.00812700 0.05957900 0.02684200
v -0.02062000 0.05826200 0.02512600
vn 0.76511078 0.62367345 0.16011533
vn -0.04937019 0.51981141 0.85285326
vn 0.84242503 0.53333500 -0.07664099
vn 0.15155172 0.52661259 -0.83648745
vn -0.84086702 0.54067749 0.02470854
vn -0.48485005 0.62271617 -0.61412133
vn 0.24869395 0.65764634 -0.71109255
vn 0.65260883 0.52786002 -0.54356740
vn -0.06323174 0.66828902 -0.74120951
vn -0.44454092 0.57735362 -0.68486945
vn 0.78886770 0.55526870 -0.26337126
vn -0.19003862 0.62037613 -0.76093284
vn -0.75815894 0.65011029 -0.05051363
vn -0.81008535 0.55029873 0.20231911
vn -0.07566513 0.63266058 -0.77072393
vn -0.84242773 0.53332703 0.07666678
vn 0.48276993 0.62051073 -0.61798028
vn 0.46962287 0.74768877 -0.46948468
vn -0.46961305 0.74770184 0.46947369
vn -0.74282223 0.56525795 0.35874585
vn 0.65801811 0.55024845 0.51404165
vn 0.61704334 0.59147544 -0.51905136
vn -0.25420085 0.74769494 0.61346085
vn 0.61354705 0.74768488 -0.25402231
vn -0.73767773 0.07992695 0.67040529
vn 0.84029792 0.02917946 -0.54133904
vn 0.76334754 -0.00554970 0.64596419
vn 0.76525578 0.00000000 -0.64372634
vn -0.60115906 0.18600217 0.77718143
vn 0.78804471 0.00000000 0.61561801
vn 0.70090288 0.08541300 -0.70812412
vn 0.68487392 0.57734705 -0.44454258
vn 0.55602726 0.63222858 0.53955604
vn 0.32468332 0.63416472 -0.70172348
vn -0.61326394 0.55527593 -0.56176149
vn -0.53586912 0.60879086 0.58499399
vn -0.76511583 0.62368143 -0.16006013
vn 0.44453803 0.57735315 0.68487172
vn -0.24842489 0.67553038 0.69422171
vn -0.03619588 0.67551477 0.73645751
vn 0.77826986 0.53915406 0.32188342
vn -0.46735114 0.66744147 0.57974545
vn -0.72066088 0.54392303 -0.42987863
vn 0.20480827 0.66876773 0.71470504
vn -0.35057533 0.59175208 -0.72589697
vn 0.83238955 0.54420406 -0.10473580
vn -0.68486040 0.57734333 0.44456823
vn 0.59207109 0.53875528 -0.59932843
vn 0.25125072 0.60881023 0.75247803
vn 0.46948915 0.74768822 0.46961928
vn -0.52216190 0.67407600 -0.52246387
vn 0.51503572 0.67281110 0.53109644
vn -0.47278249 0.74618101 -0.46871167
vn 0.40169378 0.58372286 0.70562719
vn -0.43904109 0.63150857 0.63909299
vn -0.65358294 0.58384527 0.48161608
vn -0.48685268 0.57136802 -0.66069135
vn 0.68236737 0.67406289 0.28286745
vn 0.54685258 0.63796045 0.54217960
vn 0.69342148 0.53446012 0.48323806
vn -0.15156129 0.52662337 0.83647893
vn 0.53093066 0.56545252 0.63117040
vn 0.34716437 0.53664374 -0.76908413
vn -0.69207570 0.62232067 0.36571602
vn 0.68881372 -0.01088542 0.72485665
vn 0.23146171 -0.65173506 -0.72226511
vn 0.76525578 0.00000000 0.64372634
vn -0.74096512 -0.67154343 0.00031675
vn -0.01444803 0.98922165 0.14571132
vn 0.55524401 0.00577682 0.83166743
vn 0.09614387 0.00043134 -0.99536735
vn 0.68487392 -0.57734705 0.44454258
vn 0.83362195 0.15535877 -0.53003593
vn 0.86905006 0.00000000 -0.49472416
vn 0.83879348 0.00000000 0.54444972
vn 0.99999986 0.00039617 -0.00036263
vn -0.00617066 0.00178304 0.99997937
vn -0.54260274 -0.00716608 0.83995888
vn -0.30474399 0.18592934 0.93410994
vn -0.98179968 -0.14210633 -0.12599677
vn -0.95528997 0.00727765 -0.29558096
vn 0.24767079 -0.62993968 0.73609455
vn -0.79945145 -0.53307758 0.27695789
vn -0.90334142 0.19704178 0.38098401
vn -0.37647776 0.12290941 0.91823623
vn 0.89928658 -0.00067320 -0.43735934
vn 0.91550665 0.12286633 -0.38308150
vn -0.59322073 0.00000000 0.80503985
vn 0.00630897 -0.67248394 0.74008482
vn -0.68486040 -0.57734333 -0.44456823
vn 0.74095883 -0.67155038 -0.00030364
vn -0.36754632 -0.22111781 -0.90333638
vn 0.56741438 -0.00012998 0.82343239
vn 0.92128168 -0.00696293 -0.38883361
vn -0.77471951 -0.00508306 -0.63228462
vn -0.00941335 -0.09536766 -0.99539761
vn -0.68444274 -0.67154610 0.28383792
vn 0.28935493 -0.66994220 -0.68370401
vn 0.31670956 0.00000000 0.94852257
vn 0.78686348 -0.55572018 0.26836719
vn 0.01915965 0.19032362 -0.98153442
vn -0.38889951 -0.21582046 0.89564430
vn 0.90447516 -0.21488946 -0.36843886
vn 0.99905307 0.00042278 -0.04350612
vn -0.97444738 0.22453727 -0.00594322
vn 0.10955561 0.00557749 -0.99396502
vn -0.48127049 -0.52644041 -0.70088459
vn -0.98498404 -0.08563684 -0.14990919
vn -0.29684211 -0.66091137 -0.68926114
vn -0.68465361 -0.67157210 -0.28326727
vn 0.65801811 -0.55024845 -0.51404165
vn -0.54445080 0.00000000 0.83879278
vn -0.90294483 -0.22251713 -0.36766393
vn -0.37850946 -0.22253792 -0.89844725
vn 0.49472543 0.00000000 0.86904934
vn 0.36079505 -0.53045526 -0.76710113
vn -0.77349666 -0.09362527 0.62684705
vn 0.10887091 0.00584088 -0.99403874
vn 0.52371996 -0.67155384 -0.52414963
vn -0.52372167 -0.67154442 0.52416000
vn 0.30559368 -0.67817125 -0.66835339
vn -0.81482964 -0.52703643 -0.24142342
vn -0.38260835 -0.13383787 0.91416534
vn 0.91695585 -0.13387170 -0.37585946
vn 0.40366586 0.00441483 0.91489583
vn 0.15866862 -0.53201566 -0.83173530
vn -0.61375204 0.11878468 0.78051178
vn -0.92594271 -0.12471403 0.35647792
vn 0.99016387 -0.07502578 0.11809588
vn -0.08500013 0.00000000 0.99638094
vn 0.10862165 0.99023207 0.08741727
vn 0.64372331 0.00000000 -0.76525832
vn 0.87770461 0.12456908 0.46272796
vn -0.58763748 -0.01878095 0.80890634
vn 0.13368398 0.99023753 0.03947430
vn -0.10666363 -0.99058373 0.08582979
vn -0.11343047 0.98922314 0.09258031
vn -0.37830761 0.22455838 0.89802944
vn 0.90256115 0.22455558 -0.36736653
vn -0.08500013 0.00000000 -0.99638094
vn 0.37922189 -0.21509849 -0.89995744
vn -0.99459186 -0.00776715 0.10356981
vn 0.33012756 0.00000000 -0.94393633
vn -0.06409389 0.78317370 -0.61849085
vn 0.29615705 -0.78276952 -0.54732338
vn 0.48309862 -0.78279109 -0.39224206
vn 0.19115025 -0.00624823 0.98154090
vn 0.84737480 -0.52682464 -0.06642095
vn -0.84763702 -0.52641398 0.06633103
vn 0.11148047 0.00502064 -0.99375394
vn -0.78076062 -0.00279123 -0.62482403
vn -0.59322073 0.00000000 -0.80503985
vn 0.01530678 0.99021386 0.13871630
vn -0.60116301 -0.00281414 -0.79912147
vn -0.67970285 0.12680099 -0.72244415
vn -0.44606542 0.00535900 0.89498431
vn 0.16036841 -0.00512574 -0.98704392
vn -0.99956855 0.00000000 0.02937192
vn -0.01629061 -0.98881721 -0.14824018
vn 0.06716737 0.99021723 0.12230445
vn 0.17747753 0.78324774 -0.59583950
vn -0.98742679 0.05397671 -0.14857606
vn 0.76131055 -0.62993462 0.15358587
vn -0.60271801 0.15219659 0.78330530
vn 0.56848375 -0.07970890 0.81882399
vn -0.93832335 -0.12082850 -0.32395951
vn -0.35057533 -0.59175208 0.72589697
vn 0.82434391 -0.54660156 0.14725441
vn 0.49952305 -0.68218926 -0.53394245
vn -0.03893586 0.99019922 0.13412495
vn -0.29660573 -0.78288145 0.54692017
vn -0.08825381 0.52777149 0.84478904
vn -0.69465807 -0.21485921 0.68650250
vn 0.00929709 -0.14595371 0.98924773
vn 0.70001852 -0.07800140 -0.70985199
vn 0.00297853 0.12493622 -0.99216030
vn -0.06920286 0.98922258 0.12903350
vn -0.69933936 0.19965382 -0.68634016
vn -0.95081044 0.14694851 -0.27270066
vn -0.29587297 0.78321231 -0.54684337
vn 0.81471604 -0.52711818 0.24162822
vn -0.13126146 -0.99058987 0.03875752
vn 0.38276129 -0.13367904 -0.91412456
vn -0.91696245 -0.13382531 0.37585989
vn -0.83687995 -0.09513258 0.53905634
vn -0.15983810 -0.53308004 0.83082937
vn -0.51662463 -0.63071290 0.57905115
vn 0.69771819 0.19693112 0.68877243
vn -0.99240575 0.12295602 0.00355583
vn 0.04231850 0.98923464 0.14008557
vn 0.84568116 -0.15201217 -0.51158155
vn -0.43489223 0.00000000 -0.90048251
vn 0.99217675 0.00000000 -0.12484110
vn -0.19003862 -0.62037613 0.76093284
vn 0.40169378 -0.58372286 -0.70562719
vn 0.66016395 -0.52711262 0.53510359
vn -1.00000000 0.00000189 -0.00000001
vn 0.00187167 -0.00202870 -0.99999619
vn 0.18447034 -0.00595279 0.98282005
vn 0.99241525 0.12287952 -0.00354956
vn 0.07228254 -0.10832186 0.99148455
vn 0.48276993 -0.62051073 0.61798028
vn 0.98208357 0.04075821 -0.18398542
vn 0.01474318 -0.98880221 0.14850198
vn 0.68651799 -0.21489565 0.69463149
vn -0.76751591 -0.64029493 -0.03068766
vn 0.15679749 -0.00637896 -0.98761017
vn 0.00354679 0.12291180 0.99241126
vn -0.00441192 -0.00383463 0.99998292
vn -0.04225770 0.15533465 -0.98695767
vn -0.99016253 0.08663394 -0.10987596
vn -0.08744379 0.99020010 0.10889141
vn 0.39195725 0.78317461 -0.48270804
vn 0.08829278 -0.52708078 0.84521609
vn -0.90048422 0.00000000 -0.43488868
vn 0.55967088 0.08603833 0.82423656
vn -0.44205951 0.00296762 0.89698082
vn 0.93848738 -0.12089813 0.32345801
vn 0.90245135 -0.00578309 -0.43075296
vn 0.21153675 0.07992393 0.97409669
vn -0.08772825 0.20469304 -0.97488692
vn 0.04164978 -0.98881589 -0.14320767
vn -0.07170057 -0.98883257 -0.13064904
vn -0.81429147 0.52784718 0.24146791
vn -0.40485894 0.52781218 0.74666160
vn 0.19032315 -0.00626854 0.98170148
vn 0.40506030 -0.52713346 0.74703177
vn -0.11611383 -0.98883390 -0.09340823
vn 0.48294115 0.78324735 0.39152450
vn -0.06481660 -0.78284942 0.61882598
vn 0.14020217 0.98926206 -0.04127871
vn 0.87863872 0.16111797 0.44948304
vn -0.97199958 -0.00486121 -0.23493232
vn -0.68877576 0.19701489 0.69769125
vn 0.06979924 -0.13570007 0.98828819
vn 0.92408364 0.00000000 0.38219031
vn -0.62760149 0.00000000 0.77853476
vn -0.85881387 0.00000000 -0.51228774
vn 0.54444703 0.00000000 -0.83879522
vn 0.09801097 0.00000000 -0.99518533
vn 0.53474787 -0.52701020 -0.66053385
vn 0.12280266 0.99023253 -0.06602307
vn -0.12847981 0.98922944 -0.07012890
vn -0.14028609 0.98922580 0.04185839
vn 0.68877305 0.19692908 -0.69771816
vn 0.39341801 -0.05199171 0.91788841
vn 0.32165871 -0.63661243 -0.70089963
vn -0.77327265 -0.00574053 -0.63404767
vn -0.52938399 -0.05018013 0.84689701
vn 0.64497511 0.18515840 0.74143339
vn 0.29029857 0.00000000 0.95693612
vn -0.40564950 -0.52703216 -0.74678350
vn 0.88881238 0.00616726 -0.45822976
vn -0.53586912 -0.60879086 -0.58499399
vn -0.29029857 0.00000000 -0.95693612
vn 0.09350501 -0.98879962 -0.11632765
vn -0.74693209 -0.52714259 0.40523221
vn -0.53513987 -0.52707436 0.66016509
vn 0.46916363 0.07909130 -0.87956242
vn -0.54151410 0.00427842 -0.84068078
vn 0.98284427 0.02798475 -0.18230191
vn 0.14836475 -0.98880942 -0.01561536
vn -0.06598090 -0.20623479 -0.97627544
vn 0.71872703 -0.62149250 0.31173472
vn -0.43829797 0.00629484 0.89880769
vn -0.24352283 0.08782354 -0.96591079
vn -0.54445080 0.00000000 -0.83879278
vn -0.06323174 -0.66828902 0.74120951
vn -0.48270356 0.78319440 -0.39192322
vn -0.10813341 0.99019715 -0.08841250
vn 0.53093066 -0.56545252 -0.63117040
vn -0.41761618 -0.53374281 -0.73533349
vn 0.55558379 0.00597209 0.83143910
vn 0.94944486 0.00315220 -0.31391801
vn 0.38247749 -0.12896759 -0.91491985
vn 0.54444703 0.00000000 0.83879522
vn 0.61841412 0.78320936 -0.06439778
vn 0.39181502 -0.78285178 0.48334675
vn 0.74656105 0.52784817 0.40499741
vn 0.36765075 -0.22254139 -0.90294422
vn -0.89845510 -0.22250724 0.37850888
vn 0.86698342 -0.15059704 0.47503714
vn 0.99490785 0.00362820 0.10072341
vn 0.84383493 0.12145999 -0.52267589
vn 0.94853336 0.00000000 -0.31667722
vn 0.21662108 -0.66572073 0.71406667
vn 0.11561182 -0.98880356 0.09434737
vn 0.29638914 0.78327963 0.54646729
vn -0.06587906 0.99020374 -0.12311174
vn -0.66050365 -0.52703663 -0.53475912
vn 0.60146658 -0.61049559 0.51529903
vn -0.69706574 0.00359913 -0.71699818
vn 0.37678792 0.12256407 -0.91815517
vn -0.91550040 0.12294944 0.38306977
vn 0.86092250 -0.00408820 -0.50871971
vn 0.64372331 0.00000000 0.76525832
vn 0.13095689 -0.98880842 -0.07147173
vn 0.53486523 0.52779487 0.65981191
vn -0.97490819 -0.22253047 0.00584838
vn -0.99099686 -0.13383589 -0.00363139
vn 0.01061136 -0.13153655 -0.99125453
vn -0.00588170 -0.22254270 -0.97490520
vn 0.95344814 -0.00645747 0.30148787
vn -0.30563841 0.13753260 0.94216238
vn 0.75198344 -0.01133725 0.65908450
vn 0.61790006 -0.00593152 0.78623428
vn -0.47898852 -0.04441221 0.87669696
vn -0.97019946 0.00000000 -0.24230767
vn 0.21219428 0.00000000 -0.97722750
vn -0.59590006 0.78324845 -0.17727096
vn -0.14815425 -0.98884331 0.01546717
vn 0.99991083 -0.01046350 -0.00829796
vn -0.98676923 -0.00803092 -0.16193206
vn 0.15361679 -0.00639459 -0.98810981
vn 0.96438220 0.18523221 -0.18882798
vn 0.04195909 0.15619204 0.98683508
vn -0.73739195 0.00000000 0.67546511
vn 0.24122173 -0.52698373 -0.81492345
vn 0.74682353 -0.52708654 -0.40550511
vn 0.91392287 -0.13410194 0.38309484
vn 0.38139833 -0.13242867 0.91487593
vn 0.29177010 0.09517077 0.95174195
vn -0.99342535 -0.04401819 -0.10568100
vn -0.55377872 0.00410689 -0.83265374
vn -0.28459587 -0.01081094 0.95858662
vn -0.21013149 -0.16316421 0.96396172
vn 0.84937850 -0.13111960 -0.51123753
vn -0.70626517 0.11949338 -0.69778997
vn -0.97019946 0.00000000 0.24230767
vn 0.94646673 0.00000000 0.32280137
vn 0.07054394 -0.98880164 0.13150997
vn 0.69347810 -0.22254173 0.68524689
vn -0.69352020 -0.22252530 -0.68520961
vn -0.91823284 0.12293999 -0.37647603
vn -0.76567840 -0.11673213 0.63254264
vn 0.99840255 0.04540714 -0.03362347
vn 0.46682181 -0.75151847 0.46615168
vn -0.52415706 -0.67154618 -0.52372236
vn 0.51024930 -0.67179055 0.53697588
vn -0.47139298 -0.74942344 -0.46492275
vn -0.13894378 0.99019318 0.01456330
vn -0.17682071 0.78330851 0.59595487
vn 0.61562253 0.00000000 0.78804118
vn -0.04568655 0.01205376 0.99888310
vn -0.83056458 0.00611876 0.55688871
vn 0.00627996 0.19697497 0.98038840
vn 0.98039931 0.19692085 -0.00627501
vn -0.65993913 -0.08384801 -0.74662565
vn -0.02023246 0.07732304 -0.99680078
vn 0.38750525 -0.08666662 0.91778460
vn -0.67546748 0.00000000 -0.73738978
vn -0.21662108 -0.66572073 -0.71406667
vn 0.84515528 -0.52710967 -0.08870152
vn 0.54673600 0.78322885 -0.29602755
vn 0.13142069 -0.99054760 -0.03929449
vn -0.90008262 -0.21486198 -0.37905885
vn -0.95408201 0.00665909 -0.29947149
vn 0.65559037 -0.53429720 -0.53359887
vn -0.96447414 0.18521702 0.18837276
vn -0.51239854 -0.00554858 -0.85872985
vn -0.33692398 0.00000000 0.94153185
vn -0.04908938 0.00000000 0.99879439
vn 0.14298318 -0.98880533 0.04265941
vn 0.04052662 0.99021561 -0.13353140
vn 0.24167647 0.52783124 0.81423993
vn -0.89798770 0.22452269 -0.37842787
vn -0.38003116 0.21105048 -0.90057427
vn -0.54718772 -0.78283113 -0.29624489
vn -0.38270415 0.00002728 0.92387095
vn -0.92387096 -0.00002349 0.38270413
vn 0.38270415 0.00002728 -0.92387095
vn 0.92387096 -0.00002349 -0.38270413
vn -0.06188518 -0.51940100 0.85228682
vn -0.73913456 -0.09231853 -0.66720116
vn 0.28168318 0.07445576 -0.95661430
vn -0.24230211 0.00000000 -0.97020085
vn -0.61837899 0.78323500 0.06442326
vn -0.14288240 -0.98884509 -0.04207138
vn 0.11393028 0.98925388 -0.09163320
vn 0.08303216 -0.62236262 0.77831255
vn 0.10458384 0.00619704 -0.99449677
vn -0.61326394 -0.55527593 0.56176149
vn -0.54656489 0.78323580 0.29632499
vn -0.39145788 0.78328628 0.48293202
vn -0.09435590 -0.98881866 0.11547565
vn -0.61889989 -0.78282121 -0.06445052
vn -0.04084953 0.98923616 -0.14051025
vn 0.84996860 0.08673507 -0.51964450
vn -0.07668767 0.10438055 0.99157637
vn 0.35490163 0.15639550 0.92172951
vn 0.15656195 -0.00637637 -0.98764756
vn 0.16224872 -0.00568478 -0.98673352
vn 0.27257856 0.00477930 -0.96212166
vn 0.41582808 0.00000000 -0.90944324
vn 0.13861945 0.99024249 -0.01429913
vn -0.90450247 -0.21483768 0.36840204
vn -0.71000627 0.12052092 -0.69380531
vn 0.70457794 0.12335194 0.69882346
vn -0.62516995 0.07565368 0.77681340
vn -0.13113925 -0.98883572 0.07075602
vn -0.24106285 0.52771255 -0.81449873
vn -0.56991039 0.13064908 0.81125394
vn 0.04255095 -0.00425141 -0.99908525
vn 0.08841506 0.99022872 -0.10784179
vn 0.03821926 -0.99055313 0.13169582
vn -0.74282223 -0.56525795 -0.35874585
vn -0.97663229 -0.21484021 -0.00574898
vn -0.12264326 0.99018889 0.06696709
vn -0.83877422 0.00000000 0.54447939
vn -0.24185957 -0.52709705 0.81466106
vn 0.12867204 0.98925470 0.06941645
vn -0.91416536 -0.13382044 -0.38261442
vn -0.70133197 -0.11990335 -0.70267820
vn 0.85483574 0.04960399 -0.51652232
vn 0.18467631 -0.00565043 0.98278316
vn 0.74673401 -0.00403657 0.66511054
vn 0.55318645 0.00506168 0.83304209
vn -0.36934759 0.19698537 0.90817351
vn 0.27547565 0.00000000 0.96130805
vn -0.13385256 0.99019310 -0.04001385
vn -0.04311911 -0.98881484 0.14277941
vn 0.06476693 0.78323696 0.61834061
vn -0.68477347 0.22454607 -0.69329962
vn -0.68760290 -0.21713514 -0.69285971
vn -0.09173673 0.98921973 -0.11414336
vn 0.68057264 0.22972534 0.69573497
vn 0.69920009 0.12285595 -0.70429088
vn -0.69920038 0.12290505 0.70428203
vn 0.18681705 -0.00503657 0.98238181
vn -0.77311897 -0.00607652 -0.63423192
vn -0.00266247 -0.00411839 -0.99998797
vn 0.59596606 0.78325239 0.17703148
vn -0.01354817 0.99022881 -0.13879250
vn -0.46168028 0.00232979 0.88704334
vn -0.96637587 -0.01195262 0.25685561
vn 0.37326872 0.10798659 -0.92141704
vn -0.84517191 -0.52709187 0.08864874
vn -0.97451101 0.10351685 -0.19902903
vn -0.95307131 0.00547479 -0.30269640
vn -0.29285629 -0.03269081 0.95559746
vn -0.98037852 0.19702350 0.00630102
vn 0.46614967 -0.75152449 -0.46681412
vn -0.46615240 -0.75152454 0.46681132
vn 0.16559817 -0.62527026 -0.76263645
vn -0.80503898 0.00000000 0.59322191
vn -0.81008535 -0.55029873 -0.20231911
vn -0.08900491 -0.52701369 -0.84518323
vn -0.76195754 -0.62878537 -0.15507954
vn -0.86097313 0.18139900 -0.47520488
vn -0.00667175 0.19730994 -0.98031846
vn -0.54329499 0.00597150 -0.83952063
vn -0.77698039 -0.00637887 -0.62949248
vn 0.31721058 -0.11847348 0.94092586
vn 0.83879348 0.00000000 -0.54444972
vn 0.74034126 -0.54214982 -0.39745238
vn 0.43583010 -0.67651008 0.59362129
vn -0.46735114 -0.66744147 -0.57974545
vn -0.53446513 0.52774122 -0.66017894
vn -0.12059081 -0.99058359 -0.06482285
vn 0.54703223 -0.78282379 0.29655128
vn -0.70710679 0.00000189 0.70710678
vn 0.70710679 0.00000189 -0.70710678
vn -0.99416661 0.00364639 -0.10779360
vn -0.02772985 -0.00745808 -0.99958763
vn -0.77825832 -0.00639258 -0.62791172
vn 0.59181199 0.00000000 0.80607603
vn 0.88106302 0.00000000 -0.47299889
vn -0.62760149 0.00000000 -0.77853476
vn -0.74645409 0.52776527 -0.40530249
vn -0.37148206 -0.00595287 0.92842105
vn 0.92091300 -0.00693847 -0.38970643
vn 0.95508575 0.08374478 0.28424991
vn 0.97761816 -0.13838614 0.15846767
vn -0.90817598 0.19701178 -0.36932743
vn 0.98115545 -0.04433617 -0.18806460
vn -0.90048422 0.00000000 0.43488868
vn -0.06595895 -0.99056962 0.12008847
vn -0.65981009 0.52784294 0.53482004
vn -0.69319545 0.22455260 0.68487677
vn 0.69330970 0.22453517 -0.68476683
vn 0.97490358 -0.22255075 -0.00584526
vn 0.00897166 -0.22607043 0.97406964
vn -0.70737197 0.00040982 -0.70684138
vn 0.70831178 -0.00049073 0.70589955
vn -0.19931911 0.08259611 -0.97644753
vn 0.99971624 -0.00427121 -0.02343482
vn 0.39729631 0.05859851 0.91581759
vn 0.38274503 0.12507483 0.91534831
vn 0.91824060 0.12287183 0.37647937
vn -0.37753963 0.20578576 -0.90283777
vn 0.92061719 -0.00694031 -0.39040469
vn 0.07035883 0.98925202 -0.12817985
vn 0.69465923 -0.21489761 -0.68648931
vn -0.68787658 0.08477359 -0.72086007
vn -0.44373017 0.00591345 0.89614093
vn -0.73739195 0.00000000 -0.67546511
vn -0.43489223 0.00000000 0.90048251
vn 0.98441721 0.00000000 0.17584867
vn 0.68317791 0.00000000 -0.73025197
vn 0.66016553 0.52772323 -0.53449945
vn 0.40542051 0.52775440 -0.74639769
vn -0.99806650 -0.01180529 -0.06102376
vn -0.08298347 -0.62240716 -0.77828213
vn 0.51306880 -0.09175587 -0.85342912
vn -0.65565629 -0.00652777 -0.75503127
vn 0.85369167 -0.09599922 -0.51185416
vn -0.25201708 -0.75152110 0.60967486
vn -0.84086702 -0.54067749 -0.02470854
vn -0.13612294 -0.99059240 -0.01404428
vn 0.17695166 -0.78285435 0.59651251
vn 0.86905006 0.00000000 0.49472416
vn 0.60930868 -0.75151979 -0.25290500
vn -0.99174123 0.12464906 0.03019848
vn 0.38098735 0.19696356 0.90335707
vn 0.90818626 0.19691606 0.36935319
vn -0.98771240 -0.00652582 0.15614615
vn 0.39136586 0.12945540 0.91108400
vn 0.76265946 -0.00725552 0.64675954
vn 0.69782659 -0.10072691 0.70914889
vn -0.24230211 0.00000000 0.97020085
vn 0.61887237 -0.78284237 0.06445780
vn -0.03980338 -0.99056976 -0.13110009
vn 0.49472543 0.00000000 -0.86904934
vn 0.84842701 0.08764329 0.52200601
vn 0.93514400 0.06594600 -0.34807589
vn -0.64041147 -0.00405292 0.76802130
vn 0.39621021 0.09605941 0.91312105
vn 0.76360980 -0.00414610 0.64566469
vn 0.90336455 0.19693400 -0.38098489
vn 0.26640966 -0.75378481 0.60069489
vn 0.60968496 -0.75151293 0.25201699
vn -0.08682302 -0.99058180 -0.10587474
vn -0.39229628 -0.78275569 -0.48311195
vn 0.89996230 -0.21511157 0.37920295
vn 0.39398285 -0.21453521 0.89372936
vn 0.64608796 0.16343179 0.74556046
vn 0.62436469 -0.01022842 0.78106601
vn -0.83188542 0.12998140 0.53951041
vn -0.25356313 -0.08132026 -0.96389458
vn -0.63251363 -0.09331899 0.76890706
vn 0.08585585 -0.99055231 0.10693407
vn 0.09258192 0.98923920 0.11328895
vn 0.98861809 -0.00267610 -0.15042311
vn -0.01671044 -0.75271757 0.65813146
vn 0.65968449 -0.75154252 -0.00046035
vn 0.61704334 -0.59147544 0.51905136
vn 0.01329460 -0.99057949 -0.13629209
vn 0.59649143 -0.78277331 -0.17738070
vn 0.70334166 -0.13385182 -0.69813623
vn -0.70334384 -0.13380909 0.69814223
vn 0.98495455 -0.08559644 0.15012592
vn 0.00948448 -0.09538347 0.99539542
vn 0.78804471 0.00000000 -0.61561801
vn -0.63697420 -0.53186961 -0.55801307
vn 0.76036302 -0.00829371 0.64944537
vn 0.19320058 -0.00625898 0.98113932
vn 0.85630766 -0.05868617 -0.51312097
vn -0.44454092 -0.57735362 0.68486945
vn 0.06467645 -0.99055607 -0.12089514
vn 0.81438544 0.52780627 -0.24124033
vn 0.37851073 0.22454216 -0.89794791
vn -0.90252992 0.22455747 0.36744208
vn -0.92387095 0.00002728 -0.38270415
vn 0.92373095 0.00043053 0.38304170
vn 0.97657053 -0.21512536 0.00557482
vn 0.60644590 -0.00139734 0.79512352
vn 0.28366703 -0.20713168 0.93628494
vn -0.38404007 -0.00168481 -0.92331489
vn -0.77737883 0.07678772 -0.62432828
vn 0.63250808 -0.62236601 -0.46107925
vn -0.95824923 0.08781554 -0.27211550
vn -0.60931828 -0.75151508 0.25289585
vn 0.25201438 -0.75152765 -0.60966790
vn 0.10617438 -0.99054985 -0.08682158
vn -0.48334418 -0.78282796 0.39186578
vn 0.84475218 0.52777456 0.08858764
vn 0.90293067 -0.22253557 0.36768754
vn 0.37477306 -0.23112050 0.89784657
vn -0.01547455 -0.14397506 -0.98946032
vn -0.96153317 -0.08136440 -0.26236195
vn 0.77950475 -0.00331352 0.62638756
vn 0.89801112 0.22453701 0.37836380
vn -0.98460421 -0.07155593 -0.15948137
vn 0.97042684 0.12076366 0.20901649
vn -0.53382225 0.03999834 0.84465019
vn -0.59652577 -0.78279218 0.17718187
vn 0.01599558 0.98923654 -0.14544827
vn -0.65358294 -0.58384527 -0.48161608
vn 0.37070174 0.23869710 0.89755441
vn 0.12042462 -0.99054168 0.06576549
vn 0.36966853 0.19729173 -0.90797640
vn -0.83126748 0.08570380 0.54922603
vn -0.97504645 -0.11862353 0.18765094
vn -0.48575925 -0.62856493 -0.60740767
vn -0.03028712 0.12150233 -0.99212896
vn 0.98469785 0.12950665 0.11661119
vn 0.03181802 0.12131563 0.99210389
vn -0.09513729 0.17513572 0.97993692
vn 0.61562253 0.00000000 -0.78804118
vn -0.83877422 0.00000000 -0.54447939
vn 0.13643852 -0.99054525 0.01430521
vn -0.48685268 -0.57136802 0.66069135
vn 0.97445102 0.22452078 0.00596823
vn -0.00583053 0.22454012 0.97444740
vn -0.68524448 -0.22252879 0.69348464
vn 0.68521310 -0.22253598 -0.69351333
vn -0.70427542 -0.13174923 -0.69759463
vn 0.69814035 -0.13384893 0.70333813
vn -0.98453727 0.12871385 -0.11882384
vn 0.19820860 -0.00232721 0.98015710
vn -0.00046930 -0.75153698 -0.65969079
vn -0.85881387 0.00000000 0.51228774
vn -0.14557258 0.98922896 -0.01531923
vn -0.17762512 -0.78278805 -0.59639935
vn -0.65970033 -0.75152861 0.00048019
vn -0.90870286 0.08247321 0.40921545
vn -0.62451901 -0.14095078 0.76818545
vn -0.57913538 0.01737900 0.81504612
vn 0.96170247 -0.08035347 0.26205283
vn -0.98990941 -0.09834713 -0.10201574
vn 0.54227121 -0.64041662 0.54388279
vn -0.72066088 -0.54392303 0.42987863
vn -0.84472821 0.52780055 -0.08866136
vn 0.68468036 -0.67155226 0.28324966
vn 0.84158503 -0.10383898 0.53004916
vn -0.43888047 -0.62146352 0.64897382
vn -0.25492452 -0.73841829 -0.62430114
vn 0.68443965 -0.67154695 -0.28384337
vn -0.28325106 -0.67154315 0.68468872
vn -0.60965778 -0.75153583 -0.25201445
vn -0.67546748 0.00000000 0.73738978
vn 0.08896177 0.52770716 -0.84475497
vn -0.80503898 0.00000000 -0.59322191
vn -0.36771770 -0.22254157 0.90291691
vn 0.89844435 -0.22252651 -0.37852304
vn -0.95536709 0.00712232 -0.29533538
vn 0.69042194 -0.52779101 0.49472639
vn -0.51135395 -0.11837452 -0.85117836
vn -0.15569180 -0.09397852 -0.98332502
vn 0.14982584 -0.00257918 -0.98870904
vn -0.55187579 0.00234765 -0.83392302
vn 0.99669206 -0.02803828 -0.07628100
vn -0.99956855 0.00000000 -0.02937192
vn 0.14536802 0.98926130 0.01517326
vn 0.71316105 -0.57147228 0.40598122
vn 0.99096046 -0.13411854 0.00309408
vn -0.00942252 -0.12682567 0.99188027
vn -0.62926393 -0.08272705 0.77277625
vn -0.68154774 -0.62888464 0.37416146
vn -0.95084870 0.08155455 -0.29872329
vn 0.99015093 0.08659111 0.11001412
vn 0.55913448 0.00634850 0.82905267
vn 0.16277348 -0.00611250 -0.98664453
vn 0.02019891 0.07735883 0.99679868
vn 0.38516071 -0.07049485 -0.92015309
vn 0.44453803 -0.57735315 -0.68487172
vn 0.07313634 -0.66571543 -0.74261298
vn 0.06413942 -0.78278739 -0.61897499
vn -0.52248209 0.67405952 0.52216495
vn 0.52246495 0.67407407 -0.52216332
vn 0.25420667 0.74768341 -0.61347249
vn -0.61352878 0.74770029 0.25402109
vn -0.28287787 0.67405476 0.68237108
vn 0.68252374 0.67406799 -0.28247778
vn -0.25547956 0.73806992 -0.62448618
vn -0.61345612 0.74769889 -0.25420065
vn 0.61348092 0.74767638 0.25420697
vn 0.25402205 0.74769246 0.61353793
vn -0.80016518 0.52664199 0.28702595
vn 0.66405580 0.74768301 0.00010164
vn -0.00009744 0.74769723 0.66403978
vn -0.51932274 0.62832567 0.57923289
vn -0.68235136 0.67407960 -0.28286624
vn -0.28246848 0.67407492 -0.68252075
vn 0.71316105 0.57147228 -0.40598122
vn -0.73867647 0.67406010 -0.00023043
vn 0.00021759 0.67407043 -0.73866704
vn 0.62964764 0.63268289 -0.45083945
vn 0.28286360 0.67407714 -0.68235489
vn -0.68253034 0.67406459 0.28246992
vn 0.73868256 0.67405343 0.00022379
vn 0.00719646 0.67631639 0.73657610
vn -0.66402862 0.74770715 -0.00010172
vn 0.00010420 0.74769379 -0.66404367
vn -0.01504642 -0.99056486 0.13621622
vn -0.77714644 -0.00637235 -0.62928754
vn 0.15597592 -0.09367984 0.98330850
vn 0.00729408 -0.21694959 -0.97615556
vn -0.64174430 0.52679332 -0.55736258
vn 0.70744481 0.63289682 0.31458458
vn 0.24393180 0.62370544 0.74262292
vn -0.48754539 0.53334216 -0.69126379
vn -0.41770784 0.53317621 -0.73569239
vn 0.07568495 0.63266567 0.77071780
f 680//680 281//281 299//299
f 462//462 371//371 293//293
f 591//591 427//427 293//293
f 398//398 484//484 489//489
f 560//560 500//500 379//379
f 428//428 294//294 370//370
f 277//277 181//181 353//353
f 564//564 76//76 200//200
f 211//211 609//609 463//463
f 641//641 448//448 463//463
f 189//189 84//84 441//441
f 189//189 294//294 84//84
f 596//596 283//283 651//651
f 328//328 176//176 198//198
f 109//109 423//423 338//338
f 658//658 685//685 614//614
f 328//328 198//198 568//568
f 468//468 622//622 612//612
f 429//429 526//526 610//610
f 371//371 176//176 293//293
f 273//273 93//93 283//283
f 371//371 198//198 176//176
f 591//591 176//176 450//450
f 365//365 510//510 298//298
f 418//418 85//85 346//346
f 272//272 649//649 569//569
f 591//591 293//293 176//176
f 634//634 663//663 682//682
f 372//372 427//427 87//87
f 232//232 402//402 133//133
f 208//208 85//85 369//369
f 246//246 156//156 495//495
f 630//630 356//356 424//424
f 292//292 348//348 526//526
f 573//573 141//141 493//493
f 475//475 436//436 473//473
f 594//594 464//464 403//403
f 531//531 534//534 205//205
f 337//337 205//205 535//535
f 173//173 507//507 102//102
f 536//536 537//537 235//235
f 414//414 487//487 125//125
f 177//177 225//225 69//69
f 412//412 424//424 356//356
f 572//572 443//443 396//396
f 412//412 300//300 197//197
f 308//308 553//553 111//111
f 92//92 688//688 627//627
f 128//128 649//649 567//567
f 442//442 493//493 103//103
f 301//301 568//568 198//198
f 620//620 593//593 80//80
f 49//49 47//47 409//409
f 670//670 667//667 515//515
f 670//670 515//515 347//347
f 103//103 565//565 512//512
f 50//50 188//188 667//667
f 316//316 416//416 528//528
f 671//671 23//23 418//418
f 19//19 234//234 23//23
f 687//687 652//652 596//596
f 84//84 19//19 662//662
f 683//683 474//474 441//441
f 53//53 665//665 490//490
f 53//53 490//490 178//178
f 18//18 24//24 529//529
f 162//162 375//375 393//393
f 18//18 529//529 245//245
f 529//529 24//24 347//347
f 210//210 580//580 16//16
f 615//615 91//91 572//572
f 50//50 668//668 514//514
f 530//530 535//535 567//567
f 370//370 197//197 300//300
f 507//507 544//544 102//102
f 571//571 186//186 220//220
f 114//114 302//302 674//674
f 499//499 100//100 169//169
f 210//210 16//16 15//15
f 349//349 210//210 595//595
f 1//1 687//687 596//596
f 536//536 235//235 389//389
f 391//391 73//73 314//314
f 285//285 11//11 99//99
f 515//515 667//667 188//188
f 551//551 163//163 218//218
f 65//65 163//163 93//93
f 381//381 150//150 292//292
f 16//16 687//687 61//61
f 481//481 664//664 635//635
f 615//615 630//630 624//624
f 229//229 420//420 270//270
f 579//579 96//96 218//218
f 310//310 377//377 395//395
f 428//428 85//85 418//418
f 503//503 579//579 163//163
f 261//261 655//655 543//543
f 596//596 651//651 595//595
f 185//185 567//567 519//519
f 554//554 187//187 650//650
f 349//349 595//595 651//651
f 292//292 494//494 155//155
f 638//638 540//540 348//348
f 100//100 558//558 169//169
f 579//579 218//218 163//163
f 315//315 15//15 1//1
f 453//453 82//82 201//201
f 692//692 678//678 73//73
f 591//591 245//245 427//427
f 692//692 73//73 539//539
f 79//79 690//690 672//672
f 432//432 181//181 277//277
f 402//402 78//78 322//322
f 295//295 506//506 191//191
f 295//295 73//73 388//388
f 117//117 517//517 691//691
f 260//260 451//451 463//463
f 117//117 265//265 517//517
f 618//618 502//502 585//585
f 163//163 283//283 93//93
f 246//246 265//265 434//434
f 73//73 653//653 314//314
f 278//278 298//298 510//510
f 32//32 454//454 35//35
f 76//76 87//87 200//200
f 453//453 246//246 82//82
f 442//442 573//573 493//493
f 525//525 104//104 537//537
f 255//255 352//352 457//457
f 121//121 168//168 622//622
f 557//557 350//350 506//506
f 655//655 413//413 583//583
f 77//77 566//566 488//488
f 350//350 453//453 506//506
f 414//414 125//125 295//295
f 584//584 621//621 247//247
f 349//349 651//651 283//283
f 327//327 506//506 453//453
f 134//134 440//440 513//513
f 602//602 88//88 633//633
f 246//246 495//495 217//217
f 570//570 191//191 82//82
f 554//554 650//650 116//116
f 549//549 183//183 371//371
f 630//630 339//339 624//624
f 232//232 175//175 63//63
f 428//428 234//234 294//294
f 232//232 94//94 175//175
f 232//232 471//471 94//94
f 285//285 267//267 10//10
f 14//14 12//12 376//376
f 491//491 232//232 219//219
f 232//232 566//566 219//219
f 425//425 387//387 401//401
f 253//253 566//566 26//26
f 31//31 26//26 566//566
f 448//448 485//485 126//126
f 547//547 510//510 230//230
f 461//461 369//369 85//85
f 474//474 178//178 397//397
f 116//116 282//282 264//264
f 232//232 524//524 566//566
f 384//384 383//383 257//257
f 327//327 453//453 201//201
f 232//232 133//133 524//524
f 227//227 196//196 229//229
f 344//344 402//402 263//263
f 344//344 323//323 78//78
f 648//648 78//78 187//187
f 564//564 489//489 484//484
f 187//187 282//282 335//335
f 666//666 683//683 58//58
f 250//250 73//73 678//678
f 54//54 675//675 57//57
f 666//666 52//52 53//53
f 267//267 47//47 10//10
f 428//428 370//370 461//461
f 33//33 64//64 29//29
f 654//654 463//463 209//209
f 436//436 179//179 513//513
f 518//518 209//209 555//555
f 189//189 563//563 197//197
f 594//594 348//348 292//292
f 555//555 209//209 305//305
f 145//145 658//658 632//632
f 460//460 576//576 279//279
f 328//328 375//375 438//438
f 295//295 653//653 73//73
f 670//670 347//347 24//24
f 605//605 659//659 663//663
f 586//586 601//601 355//355
f 6//6 449//449 55//55
f 174//174 148//148 472//472
f 529//529 87//87 245//245
f 428//428 418//418 234//234
f 438//438 375//375 162//162
f 77//77 208//208 369//369
f 316//316 597//597 654//654
f 77//77 369//369 123//123
f 366//366 105//105 110//110
f 366//366 110//110 338//338
f 6//6 55//55 60//60
f 568//568 413//413 607//607
f 368//368 601//601 386//386
f 121//121 240//240 394//394
f 472//472 148//148 126//126
f 144//144 153//153 161//161
f 517//517 246//246 487//487
f 639//639 609//609 37//37
f 272//272 291//291 649//649
f 405//405 541//541 533//533
f 327//327 201//201 191//191
f 210//210 596//596 595//595
f 22//22 45//45 20//20
f 359//359 609//609 316//316
f 412//412 607//607 424//424
f 619//619 316//316 581//581
f 666//666 53//53 178//178
f 84//84 234//234 19//19
f 248//248 431//431 95//95
f 582//582 339//339 426//426
f 194//194 202//202 343//343
f 359//359 316//316 694//694
f 603//603 624//624 582//582
f 683//683 441//441 662//662
f 208//208 488//488 514//514
f 9//9 143//143 140//140
f 349//349 431//431 210//210
f 380//380 448//448 126//126
f 166//166 174//174 552//552
f 620//620 413//413 275//275
f 641//641 463//463 451//451
f 529//529 200//200 87//87
f 79//79 672//672 402//402
f 414//414 295//295 388//388
f 286//286 456//456 251//251
f 6//6 504//504 155//155
f 31//31 566//566 282//282
f 145//145 501//501 146//146
f 341//341 432//432 277//277
f 442//442 103//103 512//512
f 374//374 538//538 64//64
f 594//594 626//626 617//617
f 417//417 70//70 283//283
f 226//226 165//165 164//164
f 380//380 148//148 174//174
f 567//567 537//537 519//519
f 90//90 600//600 444//444
f 59//59 665//665 53//53
f 315//315 1//1 596//596
f 513//513 307//307 249//249
f 472//472 305//305 209//209
f 284//284 73//73 517//517
f 328//328 490//490 176//176
f 210//210 430//430 465//465
f 3//3 639//639 4//4
f 589//589 426//426 621//621
f 202//202 111//111 343//343
f 507//507 119//119 98//98
f 152//152 57//57 74//74
f 680//680 676//676 24//24
f 688//688 611//611 627//627
f 206//206 247//247 621//621
f 210//210 15//15 315//315
f 527//527 487//487 388//388
f 134//134 513//513 502//502
f 208//208 346//346 85//85
f 460//460 459//459 521//521
f 92//92 340//340 424//424
f 102//102 544//544 567//567
f 292//292 150//150 106//106
f 439//439 649//649 185//185
f 177//177 137//137 478//478
f 142//142 78//78 235//235
f 12//12 21//21 17//17
f 284//284 388//388 73//73
f 224//224 478//478 137//137
f 6//6 60//60 8//8
f 286//286 251//251 268//268
f 530//530 567//567 544//544
f 641//641 505//505 448//448
f 648//648 625//625 566//566
f 334//334 474//474 397//397
f 431//431 151//151 95//95
f 538//538 185//185 345//345
f 121//121 657//657 240//240
f 655//655 247//247 275//275
f 3//3 37//37 694//694
f 66//66 567//567 291//291
f 238//238 43//43 193//193
f 375//375 655//655 393//393
f 3//3 4//4 37//37
f 545//545 512//512 565//565
f 210//210 452//452 686//686
f 337//337 531//531 205//205
f 579//579 431//431 96//96
f 59//59 2//2 473//473
f 275//275 616//616 593//593
f 206//206 621//621 373//373
f 152//152 445//445 57//57
f 655//655 642//642 543//543
f 304//304 598//598 502//502
f 172//172 365//365 190//190
f 398//398 566//566 484//484
f 239//239 72//72 656//656
f 295//295 157//157 392//392
f 360//360 463//463 324//324
f 145//145 477//477 658//658
f 501//501 500//500 146//146
f 513//513 249//249 326//326
f 171//171 574//574 559//559
f 304//304 80//80 373//373
f 14//14 329//329 21//21
f 602//602 511//511 88//88
f 328//328 179//179 436//436
f 350//350 246//246 453//453
f 428//428 461//461 85//85
f 620//620 275//275 593//593
f 110//110 105//105 68//68
f 620//620 80//80 502//502
f 436//436 513//513 221//221
f 455//455 456//456 508//508
f 166//166 448//448 174//174
f 529//529 347//347 200//200
f 30//30 21//21 329//329
f 656//656 254//254 351//351
f 370//370 294//294 197//197
f 108//108 209//209 463//463
f 247//247 80//80 616//616
f 34//34 13//13 2//2
f 142//142 435//435 187//187
f 654//654 597//597 211//211
f 316//316 209//209 27//27
f 83//83 82//82 25//25
f 370//370 300//300 184//184
f 239//239 656//656 351//351
f 231//231 644//644 576//576
f 1//1 61//61 687//687
f 261//261 247//247 655//655
f 3//3 694//694 316//316
f 295//295 246//246 557//557
f 462//462 293//293 427//427
f 619//619 639//639 3//3
f 644//644 279//279 576//576
f 40//40 44//44 42//42
f 129//129 642//642 655//655
f 538//538 390//390 536//536
f 655//655 502//502 393//393
f 164//164 55//55 449//449
f 162//162 393//393 502//502
f 89//89 589//589 621//621
f 631//631 38//38 36//36
f 432//432 196//196 181//181
f 173//173 443//443 507//507
f 480//480 628//628 139//139
f 480//480 561//561 119//119
f 295//295 266//266 640//640
f 655//655 583//583 502//502
f 213//213 161//161 170//170
f 551//551 283//283 163//163
f 366//366 338//338 423//423
f 421//421 410//410 385//385
f 174//174 209//209 552//552
f 59//59 53//53 52//52
f 421//421 204//204 214//214
f 477//477 685//685 658//658
f 412//412 197//197 563//563
f 306//306 220//220 163//163
f 548//548 146//146 500//500
f 321//321 647//647 567//567
f 683//683 681//681 58//58
f 542//542 298//298 411//411
f 51//51 50//50 667//667
f 662//662 664//664 681//681
f 14//14 21//21 12//12
f 671//671 668//668 677//677
f 671//671 679//679 23//23
f 638//638 617//617 540//540
f 90//90 558//558 112//112
f 16//16 580//580 687//687
f 378//378 311//311 437//437
f 632//632 658//658 401//401
f 515//515 188//188 398//398
f 97//97 512//512 68//68
f 46//46 193//193 43//43
f 458//458 425//425 401//401
f 316//316 27//27 416//416
f 545//545 68//68 512//512
f 400//400 385//385 258//258
f 309//309 169//169 444//444
f 407//407 572//572 396//396
f 442//442 97//97 120//120
f 171//171 575//575 574//574
f 670//670 673//673 667//667
f 231//231 576//576 560//560
f 383//383 437//437 257//257
f 263//263 63//63 175//175
f 110//110 68//68 545//545
f 340//340 627//627 621//621
f 547//547 522//522 510//510
f 536//536 390//390 322//322
f 460//460 521//521 576//576
f 41//41 5//5 158//158
f 619//619 3//3 316//316
f 66//66 544//544 98//98
f 402//402 322//322 133//133
f 109//109 337//337 530//530
f 46//46 419//419 193//193
f 59//59 682//682 665//665
f 604//604 629//629 138//138
f 116//116 264//264 187//187
f 526//526 348//348 540//540
f 332//332 58//58 577//577
f 32//32 36//36 38//38
f 163//163 220//220 186//186
f 513//513 440//440 307//307
f 455//455 467//467 456//456
f 117//117 691//691 669//669
f 603//603 91//91 624//624
f 189//189 334//334 563//563
f 368//368 533//533 541//541
f 108//108 448//448 166//166
f 422//422 288//288 289//289
f 145//145 136//136 477//477
f 571//571 579//579 149//149
f 458//458 614//614 533//533
f 295//295 392//392 653//653
f 184//184 300//300 407//407
f 40//40 42//42 39//39
f 646//646 372//372 76//76
f 262//262 319//319 353//353
f 229//229 270//270 288//288
f 46//46 43//43 44//44
f 110//110 531//531 338//338
f 458//458 533//533 469//469
f 49//49 11//11 47//47
f 450//450 665//665 684//684
f 639//639 324//324 609//609
f 14//14 376//376 329//329
f 458//458 401//401 614//614
f 407//407 300//300 356//356
f 90//90 112//112 600//600
f 479//479 138//138 120//120
f 41//41 7//7 9//9
f 661//661 684//684 663//663
f 59//59 34//34 2//2
f 476//476 20//20 192//192
f 117//117 669//669 692//692
f 353//353 181//181 363//363
f 276//276 454//454 32//32
f 571//571 151//151 431//431
f 79//79 402//402 232//232
f 587//587 501//501 632//632
f 310//310 122//122 377//377
f 631//631 36//36 496//496
f 34//34 221//221 13//13
f 442//442 120//120 573//573
f 615//615 407//407 356//356
f 187//187 516//516 650//650
f 361//361 39//39 42//42
f 328//328 568//568 397//397
f 110//110 545//545 531//531
f 333//333 673//673 113//113
f 328//328 397//397 178//178
f 362//362 40//40 361//361
f 460//460 279//279 278//278
f 82//82 191//191 201//201
f 227//227 331//331 196//196
f 594//594 638//638 348//348
f 31//31 116//116 650//650
f 89//89 621//621 627//627
f 92//92 627//627 340//340
f 660//660 606//606 635//635
f 530//530 544//544 66//66
f 238//238 237//237 43//43
f 46//46 44//44 419//419
f 41//41 236//236 143//143
f 108//108 552//552 209//209
f 278//278 522//522 532//532
f 563//563 483//483 607//607
f 671//671 418//418 346//346
f 167//167 67//67 497//497
f 164//164 155//155 127//127
f 446//446 111//111 194//194
f 49//49 409//409 99//99
f 51//51 673//673 333//333
f 476//476 296//296 62//62
f 594//594 617//617 638//638
f 670//670 676//676 673//673
f 536//536 33//33 29//29
f 123//123 102//102 647//647
f 41//41 158//158 236//236
f 399//399 127//127 494//494
f 455//455 643//643 467//467
f 245//245 87//87 427//427
f 321//321 566//566 647//647
f 284//284 517//517 527//527
f 364//364 384//384 342//342
f 172//172 190//190 69//69
f 22//22 20//20 62//62
f 466//466 251//251 456//456
f 97//97 68//68 562//562
f 111//111 553//553 343//343
f 359//359 37//37 609//609
f 130//130 643//643 508//508
f 125//125 487//487 246//246
f 514//514 668//668 346//346
f 660//660 664//664 19//19
f 54//54 115//115 675//675
f 109//109 66//66 367//367
f 466//466 456//456 467//467
f 446//446 520//520 308//308
f 545//545 565//565 534//534
f 213//213 241//241 161//161
f 337//337 535//535 530//530
f 656//656 72//72 254//254
f 342//342 258//258 410//410
f 317//317 382//382 75//75
f 167//167 497//497 406//406
f 491//491 471//471 232//232
f 227//227 288//288 214//214
f 460//460 532//532 459//459
f 228//228 122//122 290//290
f 364//364 404//404 384//384
f 422//422 342//342 410//410
f 279//279 411//411 298//298
f 278//278 279//279 298//298
f 301//301 198//198 183//183
f 342//342 384//384 258//258
f 248//248 430//430 431//431
f 90//90 444//444 169//169
f 410//410 258//258 385//385
f 41//41 9//9 5//5
f 310//310 395//395 135//135
f 341//341 420//420 432//432
f 18//18 680//680 24//24
f 41//41 143//143 7//7
f 426//426 339//339 621//621
f 330//330 100//100 499//499
f 450//450 176//176 490//490
f 161//161 241//241 318//318
f 507//507 443//443 119//119
f 328//328 178//178 490//490
f 475//475 655//655 436//436
f 378//378 122//122 228//228
f 84//84 294//294 234//234
f 320//320 534//534 565//565
f 542//542 190//190 365//365
f 525//525 567//567 66//66
f 400//400 258//258 257//257
f 18//18 659//659 680//680
f 454//454 496//496 35//35
f 189//189 441//441 334//334
f 59//59 578//578 482//482
f 436//436 655//655 375//375
f 661//661 663//663 659//659
f 90//90 169//169 558//558
f 109//109 338//338 337//337
f 125//125 246//246 295//295
f 526//526 164//164 399//399
f 131//131 269//269 135//135
f 571//571 431//431 579//579
f 344//344 78//78 402//402
f 164//164 556//556 147//147
f 455//455 508//508 643//643
f 398//398 488//488 566//566
f 310//310 269//269 290//290
f 538//538 536//536 29//29
f 145//145 146//146 136//136
f 153//153 170//170 161//161
f 354//354 277//277 353//353
f 438//438 513//513 179//179
f 368//368 590//590 601//601
f 50//50 674//674 668//668
f 472//472 126//126 485//485
f 361//361 40//40 39//39
f 256//256 241//241 297//297
f 405//405 614//614 685//685
f 671//671 677//677 679//679
f 22//22 28//28 45//45
f 683//683 662//662 681//681
f 262//262 353//353 363//363
f 310//310 135//135 269//269
f 15//15 16//16 1//1
f 588//588 195//195 602//602
f 364//364 342//342 433//433
f 289//289 288//288 270//270
f 276//276 32//32 38//38
f 470//470 25//25 82//82
f 42//42 43//43 237//237
f 327//327 191//191 506//506
f 339//339 340//340 621//621
f 378//378 437//437 122//122
f 271//271 215//215 132//132
f 216//216 526//526 617//617
f 263//263 693//693 48//48
f 358//358 259//259 216//216
f 286//286 268//268 456//456
f 97//97 479//479 120//120
f 666//666 178//178 474//474
f 256//256 318//318 241//241
f 457//457 352//352 657//657
f 108//108 166//166 552//552
f 660//660 635//635 664//664
f 295//295 191//191 266//266
f 513//513 326//326 2//2
f 630//630 340//340 339//339
f 121//121 622//622 457//457
f 515//515 398//398 489//489
f 478//478 575//575 225//225
f 164//164 127//127 399//399
f 36//36 35//35 496//496
f 437//437 311//311 257//257
f 383//383 242//242 377//377
f 623//623 244//244 613//613
f 503//503 186//186 149//149
f 171//171 225//225 575//575
f 167//167 406//406 546//546
f 432//432 420//420 229//229
f 328//328 436//436 375//375
f 631//631 276//276 38//38
f 215//215 406//406 497//497
f 417//417 283//283 652//652
f 521//521 560//560 576//576
f 436//436 34//34 473//473
f 362//362 419//419 44//44
f 280//280 679//679 677//677
f 12//12 17//17 599//599
f 354//354 212//212 408//408
f 139//139 628//628 91//91
f 194//194 343//343 520//520
f 436//436 221//221 34//34
f 165//165 60//60 164//164
f 636//636 357//357 185//185
f 12//12 599//599 376//376
f 210//210 431//431 430//430
f 618//618 134//134 502//502
f 144//144 161//161 318//318
f 271//271 406//406 215//215
f 269//269 180//180 252//252
f 421//421 214//214 410//410
f 525//525 272//272 569//569
f 682//682 663//663 684//684
f 623//623 613//613 469//469
f 389//389 235//235 78//78
f 521//521 459//459 509//509
f 608//608 205//205 320//320
f 435//435 516//516 187//187
f 268//268 508//508 456//456
f 54//54 445//445 115//115
f 213//213 170//170 212//212
f 596//596 652//652 283//283
f 507//507 98//98 544//544
f 486//486 312//312 537//537
f 400//400 257//257 311//311
f 22//22 62//62 28//28
f 216//216 617//617 637//637
f 661//661 245//245 591//591
f 227//227 214//214 204//204
f 164//164 60//60 55//55
f 59//59 473//473 34//34
f 227//227 229//229 288//288
f 341//341 277//277 354//354
f 368//368 386//386 623//623
f 542//542 365//365 298//298
f 365//365 230//230 510//510
f 557//557 246//246 350//350
f 122//122 437//437 377//377
f 691//691 250//250 678//678
f 154//154 485//485 448//448
f 354//354 353//353 319//319
f 384//384 404//404 383//383
f 54//54 57//57 56//56
f 582//582 624//624 339//339
f 503//503 163//163 186//186
f 620//620 583//583 413//413
f 361//361 42//42 237//237
f 185//185 537//537 345//345
f 447//447 159//159 252//252
f 144//144 160//160 153//153
f 422//422 410//410 214//214
f 325//325 82//82 217//217
f 256//256 222//222 318//318
f 625//625 282//282 566//566
f 586//586 386//386 601//601
f 603//603 139//139 91//91
f 605//605 281//281 659//659
f 480//480 119//119 628//628
f 284//284 527//527 388//388
f 587//587 492//492 501//501
f 243//243 425//425 458//458
f 269//269 252//252 290//290
f 658//658 614//614 401//401
f 210//210 686//686 580//580
f 97//97 562//562 479//479
f 517//517 487//487 527//527
f 331//331 287//287 196//196
f 10//10 47//47 11//11
f 623//623 386//386 224//224
f 79//79 232//232 690//690
f 321//321 567//567 535//535
f 344//344 536//536 274//274
f 492//492 379//379 500//500
f 89//89 611//611 629//629
f 292//292 118//118 71//71
f 32//32 35//35 36//36
f 623//623 224//224 244//244
f 275//275 247//247 616//616
f 144//144 180//180 160//160
f 501//501 492//492 500//500
f 395//395 377//377 242//242
f 59//59 482//482 682//682
f 108//108 463//463 448//448
f 644//644 411//411 279//279
f 602//602 645//645 511//511
f 628//628 443//443 572//572
f 310//310 290//290 122//122
f 49//49 99//99 11//11
f 584//584 247//247 203//203
f 83//83 25//25 266//266
f 586//586 355//355 575//575
f 301//301 183//183 688//688
f 255//255 240//240 657//657
f 250//250 517//517 73//73
f 549//549 124//124 103//103
f 154//154 448//448 505//505
f 661//661 591//591 684//684
f 368//368 541//541 590//590
f 439//439 185//185 357//357
f 296//296 28//28 62//62
f 72//72 382//382 254//254
f 130//130 508//508 268//268
f 297//297 241//241 319//319
f 299//299 113//113 676//676
f 499//499 169//169 309//309
f 447//447 252//252 180//180
f 405//405 533//533 614//614
f 536//536 322//322 537//537
f 66//66 98//98 101//101
f 672//672 690//690 63//63
f 121//121 394//394 168//168
f 671//671 346//346 668//668
f 587//587 632//632 387//387
f 468//468 457//457 622//622
f 332//332 52//52 58//58
f 255//255 457//457 468//468
f 341//341 354//354 408//408
f 681//681 577//577 58//58
f 86//86 566//566 253//253
f 525//525 66//66 272//272
f 337//337 338//338 531//531
f 514//514 488//488 188//188
f 77//77 123//123 647//647
f 370//370 184//184 461//461
f 328//328 438//438 179//179
f 597//597 609//609 211//211
f 287//287 363//363 181//181
f 84//84 662//662 441//441
f 227//227 204//204 331//331
f 548//548 182//182 146//146
f 594//594 259//259 358//358
f 138//138 629//629 120//120
f 634//634 605//605 663//663
f 45//45 192//192 20//20
f 130//130 268//268 251//251
f 646//646 320//320 565//565
f 349//349 283//283 431//431
f 570//570 107//107 191//191
f 536//536 389//389 274//274
f 171//171 172//172 225//225
f 570//570 83//83 107//107
f 517//517 265//265 246//246
f 586//586 575//575 478//478
f 189//189 197//197 294//294
f 128//128 567//567 185//185
f 592//592 322//322 390//390
f 54//54 56//56 445//445
f 31//31 282//282 116//116
f 210//210 465//465 452//452
f 223//223 228//228 290//290
f 521//521 548//548 560//560
f 573//573 120//120 629//629
f 185//185 519//519 537//537
f 462//462 427//427 372//372
f 158//158 5//5 140//140
f 330//330 558//558 100//100
f 295//295 640//640 157//157
f 347//347 515//515 489//489
f 460//460 278//278 532//532
f 17//17 21//21 599//599
f 588//588 633//633 195//195
f 622//622 168//168 498//498
f 670//670 24//24 676//676
f 648//648 335//335 625//625
f 622//622 498//498 612//612
f 691//691 517//517 250//250
f 74//74 57//57 675//675
f 383//383 404//404 242//242
f 538//538 29//29 64//64
f 33//33 48//48 693//693
f 498//498 168//168 394//394
f 594//594 71//71 464//464
f 213//213 319//319 241//241
f 660//660 19//19 23//23
f 119//119 561//561 98//98
f 255//255 657//657 352//352
f 239//239 75//75 72//72
f 584//584 304//304 621//621
f 559//559 547//547 230//230
f 167//167 546//546 67//67
f 422//422 214//214 288//288
f 513//513 2//2 13//13
f 317//317 254//254 382//382
f 136//136 146//146 182//182
f 446//446 194//194 520//520
f 604//604 589//589 89//89
f 368//368 469//469 533//533
f 66//66 101//101 367//367
f 604//604 89//89 629//629
f 113//113 673//673 676//676
f 213//213 212//212 354//354
f 114//114 674//674 51//51
f 545//545 534//534 531//531
f 1//1 16//16 61//61
f 114//114 51//51 333//333
f 660//660 679//679 606//606
f 145//145 632//632 501//501
f 661//661 659//659 18//18
f 481//481 577//577 681//681
f 59//59 52//52 578//578
f 164//164 199//199 556//556
f 57//57 445//445 56//56
f 634//634 682//682 482//482
f 573//573 629//629 611//611
f 680//680 659//659 281//281
f 646//646 565//565 124//124
f 537//537 322//322 345//345
f 680//680 299//299 676//676
f 50//50 514//514 188//188
f 549//549 493//493 183//183
f 44//44 43//43 42//42
f 246//246 217//217 82//82
f 470//470 82//82 325//325
f 278//278 510//510 522//522
f 9//9 140//140 5//5
f 475//475 129//129 655//655
f 564//564 484//484 608//608
f 551//551 96//96 431//431
f 243//243 469//469 613//613
f 432//432 229//229 196//196
f 564//564 608//608 320//320
f 374//374 81//81 538//538
f 321//321 484//484 566//566
f 462//462 372//372 124//124
f 660//660 23//23 679//679
f 645//645 195//195 523//523
f 309//309 444//444 600//600
f 321//321 608//608 484//484
f 83//83 266//266 107//107
f 473//473 2//2 326//326
f 321//321 535//535 608//608
f 608//608 535//535 205//205
f 77//77 488//488 208//208
f 422//422 433//433 342//342
f 77//77 647//647 566//566
f 591//591 450//450 684//684
f 102//102 567//567 647//647
f 271//271 546//546 406//406
f 160//160 180//180 131//131
f 461//461 550//550 369//369
f 677//677 668//668 674//674
f 67//67 546//546 271//271
f 75//75 382//382 72//72
f 51//51 667//667 673//673
f 224//224 586//586 478//478
f 123//123 369//369 550//550
f 246//246 434//434 156//156
f 263//263 48//48 536//536
f 292//292 399//399 494//494
f 173//173 123//123 550//550
f 414//414 388//388 487//487
f 173//173 102//102 123//123
f 320//320 205//205 534//534
f 312//312 235//235 537//537
f 347//347 489//489 200//200
f 666//666 58//58 52//52
f 173//173 550//550 396//396
f 207//207 539//539 73//73
f 184//184 407//407 396//396
f 564//564 320//320 646//646
f 142//142 187//187 78//78
f 165//165 504//504 60//60
f 568//568 607//607 483//483
f 184//184 550//550 461//461
f 424//424 607//607 413//413
f 301//301 413//413 568//568
f 330//330 112//112 558//558
f 92//92 413//413 688//688
f 141//141 688//688 183//183
f 185//185 81//81 303//303
f 171//171 230//230 172//172
f 645//645 523//523 511//511
f 564//564 200//200 489//489
f 637//637 617//617 626//626
f 450//450 490//490 665//665
f 7//7 143//143 9//9
f 549//549 462//462 124//124
f 334//334 483//483 563//563
f 304//304 502//502 80//80
f 368//368 623//623 469//469
f 177//177 478//478 225//225
f 334//334 397//397 483//483
f 107//107 266//266 191//191
f 672//672 63//63 689//689
f 625//625 335//335 282//282
f 380//380 174//174 448//448
f 224//224 386//386 586//586
f 682//682 684//684 665//665
f 549//549 371//371 462//462
f 194//194 111//111 202//202
f 344//344 263//263 536//536
f 513//513 13//13 221//221
f 486//486 537//537 104//104
f 661//661 18//18 245//245
f 159//159 223//223 252//252
f 615//615 624//624 91//91
f 692//692 691//691 678//678
f 224//224 137//137 244//244
f 677//677 674//674 302//302
f 19//19 664//664 662//662
f 525//525 537//537 567//567
f 280//280 606//606 679//679
f 438//438 162//162 502//502
f 615//615 356//356 630//630
f 588//588 602//602 633//633
f 301//301 688//688 413//413
f 594//594 403//403 259//259
f 206//206 373//373 80//80
f 551//551 431//431 283//283
f 313//313 233//233 649//649
f 562//562 68//68 105//105
f 231//231 560//560 379//379
f 538//538 81//81 185//185
f 538//538 345//345 592//592
f 23//23 234//234 418//418
f 243//243 458//458 469//469
f 573//573 611//611 141//141
f 554//554 116//116 187//187
f 551//551 218//218 96//96
f 447//447 222//222 159//159
f 272//272 66//66 291//291
f 172//172 69//69 225//225
f 103//103 124//124 565//565
f 172//172 230//230 365//365
f 374//374 64//64 693//693
f 476//476 62//62 20//20
f 628//628 119//119 443//443
f 6//6 155//155 449//449
f 89//89 627//627 611//611
f 213//213 354//354 319//319
f 566//566 524//524 78//78
f 620//620 502//502 583//583
f 80//80 593//593 616//616
f 447//447 318//318 222//222
f 389//389 78//78 323//323
f 260//260 463//463 360//360
f 33//33 693//693 64//64
f 195//195 633//633 523//523
f 78//78 524//524 322//322
f 117//117 692//692 539//539
f 371//371 183//183 198//198
f 101//101 98//98 561//561
f 592//592 345//345 322//322
f 109//109 530//530 66//66
f 571//571 149//149 186//186
f 306//306 163//163 65//65
f 263//263 672//672 689//689
f 654//654 211//211 463//463
f 538//538 592//592 390//390
f 304//304 373//373 621//621
f 109//109 367//367 423//423
f 594//594 358//358 626//626
f 174//174 472//472 209//209
f 447//447 180//180 144//144
f 128//128 185//185 649//649
f 358//358 637//637 626//626
f 263//263 689//689 63//63
f 285//285 10//10 11//11
f 359//359 694//694 37//37
f 383//383 377//377 437//437
f 45//45 28//28 192//192
f 332//332 578//578 52//52
f 609//609 324//324 463//463
f 548//548 509//509 182//182
f 692//692 669//669 691//691
f 121//121 457//457 657//657
f 262//262 297//297 319//319
f 30//30 599//599 21//21
f 549//549 103//103 493//493
f 358//358 216//216 637//637
f 481//481 681//681 664//664
f 602//602 195//195 645//645
f 391//391 207//207 73//73
f 141//141 183//183 493//493
f 226//226 164//164 147//147
f 438//438 502//502 513//513
f 208//208 514//514 346//346
f 280//280 677//677 302//302
f 316//316 609//609 597//597
f 526//526 199//199 164//164
f 216//216 610//610 526//526
f 574//574 575//575 355//355
f 203//203 247//247 336//336
f 91//91 628//628 572//572
f 412//412 563//563 607//607
f 526//526 540//540 617//617
f 398//398 188//188 488//488
f 133//133 322//322 524//524
f 287//287 181//181 196//196
f 564//564 646//646 76//76
f 232//232 63//63 690//690
f 141//141 611//611 688//688
f 210//210 315//315 596//596
f 648//648 566//566 78//78
f 381//381 292//292 155//155
f 494//494 127//127 155//155
f 518//518 27//27 209//209
f 292//292 106//106 118//118
f 412//412 356//356 300//300
f 548//548 500//500 560//560
f 233//233 569//569 649//649
f 380//380 126//126 148//148
f 568//568 483//483 397//397
f 615//615 572//572 407//407
f 92//92 424//424 413//413
f 131//131 180//180 269//269
f 503//503 149//149 579//579
f 521//521 509//509 548//548
f 273//273 283//283 70//70
f 6//6 8//8 504//504
f 570//570 82//82 83//83
f 646//646 124//124 372//372
f 184//184 396//396 550//550
f 636//636 185//185 303//303
f 67//67 271//271 132//132
f 439//439 313//313 649//649
f 447//447 144//144 318//318
f 206//206 80//80 247//247
f 187//187 264//264 282//282
f 292//292 526//526 399//399
f 536//536 48//48 33//33
f 267//267 409//409 47//47
f 648//648 187//187 335//335
f 372//372 87//87 76//76
f 415//415 526//526 429//429
f 374//374 693//693 263//263
f 585//585 502//502 598//598
f 632//632 401//401 387//387
f 334//334 441//441 474//474
f 316//316 528//528 581//581
f 666//666 474//474 683//683
f 316//316 654//654 209//209
f 422//422 289//289 433//433
f 317//317 351//351 254//254
f 8//8 60//60 504//504
f 639//639 37//37 4//4
f 442//442 512//512 97//97
f 446//446 308//308 111//111
f 362//362 44//44 40//40
f 655//655 275//275 413//413
f 164//164 449//449 155//155
f 51//51 674//674 50//50
f 594//594 292//292 71//71
f 384//384 257//257 258//258
f 630//630 424//424 340//340
f 381//381 155//155 504//504
f 415//415 199//199 526//526
f 263//263 402//402 672//672
f 261//261 336//336 247//247
f 74//74 675//675 115//115
f 567//567 649//649 291//291
f 173//173 396//396 443//443
f 223//223 290//290 252//252
f 171//171 559//559 230//230
f 86//86 219//219 566//566
f 295//295 557//557 506//506