# https://github.com/mikedh/trimesh
v 0.00625200 0.04167200 0.02963200
v 0.03582800 -0.07230500 -0.02658000
v -0.00351700 0.04905500 0.02960300
v 0.00000000 0.04467500 0.02986300
v -0.02569800 0.04167200 0.02912100
v 0.03541100 0.02403600 0.02572800
v -0.02569800 0.04167200 0.02842800
v 0.03694500 0.07184700 0.01709700
v 0.03528700 0.07322000 0.01666600
v 0.03774300 0.06980800 -0.03336200
v 0.03694500 0.07184700 0.01229000
v 0.03567500 0.07359900 0.01229000
v 0.03533600 0.07327700 0.02037400
v 0.03660600 0.07152600 0.02037400
v -0.02569800 0.04467500 0.02842800
v 0.03801600 0.06761900 -0.03336200
v 0.03595000 0.07075400 0.01787100
v 0.02755300 0.07362700 0.02709400
v 0.02731500 0.07123500 0.02805500
v 0.03064400 0.07440800 0.02590600
v 0.02968600 0.07575500 0.02438100
v -0.03002500 0.06761900 0.01709700
v 0.02953500 0.07335100 0.02709400
v -0.03533600 0.07327700 0.02438100
v -0.03660600 0.07152600 0.02438100
v -0.03539400 0.07055100 0.02590600
v -0.03253100 0.07358100 0.02590600
v -0.03368100 0.07462100 0.02438100
v 0.03493700 -0.07215200 0.02037400
v 0.03801600 -0.07229900 0.01709700
v 0.00000000 -0.07081900 0.02537500
v 0.03522100 0.02642800 0.03003800
v 0.02930000 0.02462300 0.03281200
v -0.03520900 0.06552400 0.02709400
v -0.03249200 0.06575600 0.02805500
v -0.03617600 0.06855400 0.02590600
v 0.03002500 0.07607600 0.01229000
v 0.01539800 0.07469100 0.02657600
v -0.03274200 0.06375000 0.02805500
v -0.02755300 0.07362700 0.02709400
v -0.02731500 0.07123500 0.02805500
v 0.00000000 -0.07215200 0.02037400
v -0.03767600 -0.06613800 0.02438100
v 0.03349200 -0.07229900 -0.03336200
v -0.03444000 -0.06641600 0.02709400
v 0.03660600 0.07152600 0.02438100
v 0.03533600 0.07327700 0.02438100
v 0.00000000 0.07575500 0.02037400
v 0.02569800 0.04167200 0.02842800
v -0.01539800 0.07575500 0.02037400
v -0.03493700 -0.07148400 0.01787100
v -0.03209700 -0.07607600 0.01229100
v 0.00000000 0.05023100 0.02969000
v -0.00609300 0.04541200 0.02959400
v 0.03349200 0.06761900 0.01709700
v 0.03002500 0.07607600 -0.03336200
v -0.03064400 0.07440800 0.02590600
v -0.02542000 0.07149900 0.02805500
v 0.00609300 0.04541200 0.02959400
v -0.01539800 0.07149900 0.02872400
v -0.01539800 0.07575500 0.02505100
v 0.03307100 0.07380100 0.01787100
v 0.03402000 0.07494300 0.01709700
v -0.03059700 0.06922900 0.02805500
v -0.02940900 0.06811700 0.02857100
v 0.02968600 0.07575500 0.02037400
v 0.00000000 -0.06474600 0.02904900
v 0.02983600 0.02524000 0.03002600
v 0.03405300 0.02511100 0.03395800
v 0.03088500 0.02463200 0.03632700
v -0.03565700 -0.06790700 0.02590600
v -0.03376100 -0.06943900 0.02590600
v -0.01539800 0.07469100 0.02657600
v 0.03774300 0.06980800 0.01229000
v -0.02569800 0.04467500 0.02912100
v 0.00000000 0.07149900 0.02904900
v 0.03501800 0.07287800 0.01787100
v 0.03660600 0.07152600 0.01787100
v -0.01539800 0.06811700 0.02924100
v 0.00000000 0.07362700 0.02808800
v 0.03002500 -0.07229900 -0.03336200
v -0.03644300 -0.06420600 0.02590600
v -0.03687400 -0.06925300 0.02438100
v -0.03258400 -0.06791700 0.02709400
v -0.01539800 -0.06943900 0.02657600
v -0.01539800 -0.06791700 0.02776400
v 0.03801600 -0.07229900 -0.03336200
v -0.03274200 -0.05984900 0.02805500
v -0.01539800 -0.06474600 0.02872400
v -0.01539800 -0.07215200 0.02037400
v 0.00000000 -0.07148400 0.01787100
v -0.03327200 -0.07230500 -0.02306100
v -0.01539800 -0.07148400 0.01787100
v 0.02569800 0.04467500 0.02842800
v -0.01501500 0.07502500 0.01594800
v -0.01507600 -0.07002500 0.01787100
v 0.03249200 0.06575600 0.02805500
v 0.02908100 0.07046100 0.02805500
v -0.03175400 0.07546600 0.02037400
v -0.02941200 0.07533500 0.01787100
v -0.03002500 0.06761900 -0.03336200
v 0.03059700 0.06922900 0.02805500
v 0.03418300 0.06957500 0.02709400
v -0.02907900 0.07502500 0.01594800
v -0.03694500 0.07184700 0.01229000
v -0.03402000 0.07494300 0.01229000
v 0.03274100 0.06375000 0.02805500
v -0.03567500 0.07359900 0.01229000
v 0.02940900 0.06811700 0.02857100
v -0.02968600 0.07575500 0.02037400
v -0.03146400 0.07505000 0.01787100
v 0.03176100 0.06762400 0.02805500
v -0.03002500 0.07607600 0.01709700
v -0.03172600 0.07539500 0.01666600
v 0.01501500 0.07502500 0.01594800
v 0.01822600 0.06323600 -0.03496400
v -0.03700400 0.06659200 0.01787100
v 0.03327200 -0.07230500 -0.02843700
v -0.03023200 -0.06474600 0.02805500
v 0.01698400 0.03891300 -0.03600000
v 0.03071600 -0.07595300 -0.02658000
v 0.02569800 0.04467500 0.02912100
v -0.01144700 0.06128700 -0.03496400
v 0.03617600 0.06855400 0.02590600
v 0.02569800 0.04167200 0.02912100
v -0.01207400 0.06191500 -0.03362600
v 0.03740400 0.06948600 0.02438100
v 0.03520900 0.06552400 0.02709400
v 0.03002500 0.06761900 -0.03336200
v 0.02941200 0.07533500 0.01787100
v -0.03176100 0.06762400 0.02805500
v -0.02908100 0.07046100 0.02805500
v 0.02080200 0.06191500 -0.03362600
v 0.03172600 0.07539500 0.01666600
v 0.03485200 -0.07230500 -0.02792400
v 0.03327200 -0.07595300 -0.02306100
v 0.03534000 -0.07595300 -0.02424700
v -0.00825600 0.03891300 -0.03600000
v -0.03740400 0.06948600 0.02037400
v -0.03767600 0.06729700 0.01787100
v 0.01885300 0.06386400 -0.03362600
v -0.03694300 0.06670100 0.01594800
v 0.01523700 0.07533500 0.01787100
v -0.03567500 0.07359900 -0.03336200
v 0.03368100 0.07462100 0.02037400
v 0.03146400 0.07505000 0.01787100
v 0.02907900 0.07502500 0.01594800
v 0.02017400 0.06128700 -0.03496400
v -0.02968800 -0.06119000 0.02857100
v -0.01539800 -0.07081900 0.02505100
v -0.01012600 0.03704300 -0.03362600
v -0.00949800 0.03767100 -0.03496400
v 0.03582800 -0.07595300 -0.02658000
v 0.03013300 0.02637000 0.03002600
v -0.02758300 0.03745300 -0.03603300
v -0.02924000 0.03745300 -0.03361400
v 0.03088500 0.02608500 0.03632700
v 0.03100800 0.02535900 0.03648600
v 0.01539800 -0.06474600 0.02872400
v 0.03392600 0.02607900 0.03388900
v 0.03209700 -0.07232200 0.01710000
v 0.00000000 -0.06119000 0.02956500
v -0.03135900 0.03745300 -0.03359800
v -0.02784900 0.03745300 -0.03648600
v 0.03020500 0.02607900 0.03175000
v 0.03253900 0.02605600 0.03547100
v -0.03687400 -0.06991800 0.01787100
v 0.02758300 0.03745300 -0.03603300
v -0.03694300 -0.06465500 0.01594800
v -0.03801600 -0.07607600 0.01229100
v -0.03002500 -0.07229900 0.01709700
v -0.03801600 -0.07229900 0.01709700
v -0.03493700 -0.07215200 0.02037400
v 0.02017400 0.03962000 -0.03496400
v 0.02230100 0.03554400 -0.03354000
v 0.00000000 0.06761900 -0.03336200
v 0.00000000 0.07525200 0.01787100
v 0.03376100 -0.06943900 0.02590600
v 0.01539800 -0.07215200 0.02037400
v -0.02784900 -0.06444500 -0.03648600
v -0.03135900 -0.06444500 -0.03357000
v -0.03071600 -0.07230500 -0.02658000
v -0.03801600 -0.07229900 -0.03336200
v 0.03023200 -0.06474600 0.02805500
v -0.00949800 0.06323600 -0.03496400
v 0.00000000 0.07607600 0.01229000
v 0.03120400 -0.07230500 -0.02424700
v 0.02758300 -0.06444500 -0.03603300
v 0.03169200 -0.07595300 -0.02792400
v 0.03135900 -0.06444500 -0.03357000
v 0.03071600 -0.07230500 -0.02658000
v 0.02784900 -0.06444500 -0.03648600
v 0.03327200 -0.07595300 -0.02843700
v -0.01012600 0.06386400 -0.03362600
v 0.01893200 0.04086200 -0.03600000
v 0.03368100 0.07462100 0.02438100
v 0.02861900 0.07469100 0.02590600
v 0.01698400 0.06199400 -0.03600000
v 0.01893200 0.06004600 -0.03600000
v 0.03253100 0.07358100 0.02590600
v -0.03002500 0.07607600 -0.03336200
v -0.03209300 0.07578800 -0.03336200
v -0.03209700 -0.07607600 0.01710000
v -0.03767600 -0.06613800 0.01787100
v 0.02924000 0.03745300 -0.03361400
v 0.03135900 0.03745300 -0.03359800
v 0.02784900 0.03745300 -0.03648600
v -0.03615400 -0.06837500 0.01594800
v -0.03424700 -0.06991600 0.01594800
v -0.03621400 -0.06848400 0.01787100
v -0.03209700 -0.07232200 0.01710000
v -0.03687400 -0.07058600 0.02037400
v 0.02080200 0.03899200 -0.03362600
v -0.03801600 -0.07607600 0.01710000
v -0.03002500 -0.07229900 0.01229000
v 0.00000000 0.06811700 0.02956500
v -0.01539800 0.07362700 0.02776400
v 0.03801600 0.06761900 0.01229000
v -0.02758300 -0.06444500 -0.03603300
v -0.02922600 -0.06444500 -0.03358900
v -0.03169200 -0.07595300 -0.02792400
v -0.03120400 -0.07230500 -0.02424700
v 0.01539800 -0.07148400 0.01787100
v 0.03258400 -0.06791700 0.02709400
v 0.03120400 -0.07595300 -0.02424700
v 0.03169200 -0.07230500 -0.02792400
v -0.03200600 -0.06331200 0.02805500
v -0.01539800 -0.06119000 0.02924100
v -0.03493700 -0.07081900 0.02438100
v 0.01885300 0.03704300 -0.03362600
v 0.01822600 0.03767100 -0.03496400
v 0.02922600 -0.06444500 -0.03358900
v 0.03327200 -0.07595300 -0.02574900
v -0.00825600 0.06199400 -0.03600000
v 0.00000000 0.07607600 0.01709700
v 0.03494800 0.06762100 0.02709400
v 0.00000000 0.07607600 -0.03336200
v -0.01020400 0.06004600 -0.03600000
v 0.03687400 -0.06991800 0.01787100
v 0.03694300 -0.06465500 0.01594800
v -0.01207400 0.03899200 -0.03362600
v 0.00000000 -0.06791700 0.02808800
v 0.00000000 -0.06943900 0.02690000
v -0.03418300 0.06957500 0.02709400
v 0.01539800 0.07149900 0.02872400
v -0.03767600 0.06729700 0.02438100
v -0.03644300 0.06641100 0.02590600
v 0.02230100 0.06536300 -0.03354000
v -0.03494800 0.06762100 0.02709400
v 0.03402000 0.07494300 0.01229000
v 0.01539800 0.07575500 0.02505100
v 0.02981200 0.02403600 0.02572800
v 0.03801600 -0.07607600 0.01229100
v -0.01357400 0.03554400 -0.03354000
v -0.01144700 0.03962000 -0.03496400
v 0.03767600 -0.06613800 0.01787100
v -0.01357400 0.06536300 -0.03354000
v -0.01523700 0.07533500 0.01787100
v -0.03368100 0.07462100 0.02037400
v -0.03660600 0.07152600 0.02037400
v -0.01020400 0.04086200 -0.03600000
v -0.03528700 0.07322000 0.01666600
v -0.03749700 0.06958800 0.01683200
v -0.03801600 0.06761900 0.01709700
v -0.03694500 0.07184700 -0.03336200
v -0.03402000 0.07494300 -0.03336200
v -0.03767600 -0.06679200 0.02037400
v -0.03700400 -0.06476400 0.01787100
v -0.03430800 -0.07002500 0.01787100
v -0.03801600 -0.07229900 0.01229000
v -0.03660600 0.07152600 0.01787100
v -0.03368100 0.07462100 0.01787100
v -0.03301100 0.07391000 0.01594800
v -0.03589000 0.07086300 0.01594800
v -0.03349200 0.06761900 -0.03336200
v -0.03801600 0.06761900 -0.03336200
v -0.03774300 0.06980800 -0.03336200
v -0.03533600 0.07327700 0.02037400
v -0.03307100 0.07380100 0.01787100
v -0.03595000 0.07075400 0.01787100
v -0.03402000 0.07494300 0.01709700
v -0.03694500 0.07184700 0.01709700
v -0.03501800 0.07287800 0.01787100
v -0.03002500 0.07607600 0.01229000
v -0.03209300 0.07578800 0.01229000
v 0.02542000 0.07149900 0.02805500
v -0.03349200 0.06761900 0.01709700
v -0.03767600 0.06729700 0.02037400
v -0.03707000 0.06911700 0.01787100
v 0.01539800 0.07575500 0.02037400
v 0.03539400 0.07055100 0.02590600
v 0.00000000 0.07502500 0.01594800
v 0.01539800 0.07362700 0.02776400
v -0.03740400 0.06948600 0.02438100
v 0.03209300 0.07578800 0.01229000
v 0.00000000 0.04167200 0.02969000
v -0.03355900 0.07175900 0.02650000
v 0.00351700 0.04905500 0.02960300
v 0.01539800 0.06811700 0.02924100
v -0.03175400 0.07546600 0.02438100
v 0.03402000 0.07494300 -0.03336200
v -0.03138100 0.07254100 0.02709400
v 0.03002500 -0.07229900 0.01229000
v 0.03209700 -0.07607600 0.01229100
v 0.03583900 0.02531900 0.02572800
v 0.03801600 -0.07229900 0.01229000
v 0.03621400 -0.06848400 0.01787100
v 0.03541100 0.02660300 0.02572800
v 0.03430800 -0.07002500 0.01787100
v 0.03541100 0.02403600 0.03007300
v 0.03478500 0.02510900 0.03148900
v 0.02811200 0.02607800 0.03321300
v 0.03209700 -0.07607600 0.01710000
v 0.03002500 -0.07229900 0.01709700
v 0.03549500 0.02521900 0.03003000
v 0.02930000 0.02607700 0.03281200
v 0.01539800 -0.06791700 0.02776400
v 0.01539800 -0.06943900 0.02657600
v 0.03801600 -0.07607600 0.01710000
v 0.02969100 0.02520600 0.03206700
v 0.03265700 0.02511500 0.03556900
v 0.02981200 0.02403600 0.03007300
v 0.03687400 -0.07058600 0.02037400
v 0.03463000 0.02607800 0.03149400
v 0.02802700 0.02510900 0.03310300
v 0.03493700 -0.07148400 0.01787100
v 0.03444000 -0.06641600 0.02709400
v 0.00000000 -0.06991600 0.01594800
v 0.01356200 0.02535100 0.03523500
v 0.03687400 -0.06925300 0.02438100
v 0.01513800 0.02535100 0.03370600
v 0.03644300 -0.06420600 0.02590600
v 0.03368100 0.07462100 0.01787100
v 0.03175400 0.07546600 0.02037400
v 0.03301100 0.07391000 0.01594800
v 0.03349200 0.06761900 -0.03336200
v 0.03002500 0.07607600 0.01709700
v 0.03767600 -0.06613800 0.02438100
v 0.01583400 0.02535100 0.03591500
v 0.03700400 0.06659200 0.01787100
v 0.03767600 -0.06679200 0.02037400
v 0.03615400 -0.06837500 0.01594800
v 0.03700400 -0.06476400 0.01787100
v 0.02938400 0.02531900 0.02572800
v 0.01539800 -0.06119000 0.02924100
v 0.03740400 0.06948600 0.02037400
v 0.03801600 0.06761900 0.01709700
v 0.03694300 0.06670100 0.01594800
v 0.03767600 0.06729700 0.01787100
v 0.00000000 0.06761900 0.01709700
v 0.03767600 0.06729700 0.02438100
v 0.03644300 0.06641100 0.02590600
v 0.03707000 0.06911700 0.01787100
v 0.03767600 0.06729700 0.02037400
v 0.01539800 -0.07081900 0.02505100
v 0.02981200 0.02660300 0.02572800
v 0.03589000 0.07086300 0.01594800
v 0.00000000 0.07522300 0.02613800
v -0.02953500 0.07335100 0.02709400
v -0.00625200 0.04167200 0.02963200
v -0.02861900 0.07469100 0.02590600
v 0.03002500 0.06761900 0.01709700
v 0.03209300 0.07578800 -0.03336200
v -0.02968600 0.07575500 0.02438100
v -0.03534000 -0.07230500 -0.02424700
v -0.03485200 -0.07595300 -0.02792400
v 0.01507600 -0.07002500 0.01787100
v -0.03327200 -0.07595300 -0.02843700
v -0.03582800 -0.07230500 -0.02658000
v 0.01501500 -0.06991600 0.01594800
v -0.03002500 -0.07229900 -0.03336200
v -0.03534000 -0.07595300 -0.02424700
v -0.03327200 -0.07595300 -0.02574900
v -0.03485200 -0.07230500 -0.02792400
v 0.03534000 -0.07230500 -0.02424700
v 0.03327200 -0.07230500 -0.02306100
v 0.03485200 -0.07595300 -0.02792400
v -0.03327200 -0.07230500 -0.02843700
v -0.03582800 -0.07595300 -0.02658000
v 0.03424700 -0.06991600 0.01594800
v 0.03209700 -0.07232200 0.01229100
v 0.03200600 -0.06331200 0.02805500
v -0.03169200 -0.07230500 -0.02792400
v -0.03120400 -0.07595300 -0.02424700
v -0.03349200 -0.07229900 -0.03336200
v 0.03520900 -0.06279500 0.02709400
v -0.03071600 -0.07595300 -0.02658000
v 0.03493700 -0.07081900 0.02438100
v -0.03327200 -0.07595300 -0.02306100
v -0.03209700 -0.07232200 0.01229100
v 0.03175400 0.07546600 0.02438100
v 0.03138100 0.07254100 0.02709400
v 0.03355900 0.07175900 0.02650000
v -0.03801600 0.06761900 0.01229000
v -0.03774300 0.06980800 0.01229000
v 0.00000000 -0.07002500 0.01787100
v 0.03565700 -0.06790700 0.02590600
v 0.02968800 -0.06119000 0.02857100
v 0.00000000 -0.07229900 -0.03336200
v -0.01501500 -0.06991600 0.01594800
v 0.03694500 0.07184700 -0.03336200
v 0.03567500 0.07359900 -0.03336200
v 0.03734300 0.06945100 0.01666600
v 0.01415600 0.02535100 0.03573300
v 0.01362300 0.02535100 0.03364800
v 0.03274200 -0.05984900 0.02805500
v 0.00000000 -0.07229900 0.01229000
v 0.00000000 -0.07229900 0.01709700
v -0.03520900 -0.06279500 0.02709400
vn 0.02948985 -0.00962200 0.99951877
vn 0.97783366 0.00000000 -0.20938323
vn -0.03809164 0.02870680 0.99886183
vn 0.00000000 -0.00518403 0.99998656
vn -0.58371818 -0.57858707 0.56965788
vn 0.60110411 -0.79837365 0.03568422
vn -0.72115890 -0.69276969 0.00000000
vn 0.60020452 0.39791891 0.69384082
vn 0.62059030 0.56875312 0.53980328
vn 0.71050011 0.18032992 -0.68019902
vn 0.86850646 0.49518418 0.02211704
vn 0.73801055 0.67367946 0.03868353
vn 0.70607996 0.70436968 -0.07290022
vn 0.88773957 0.45977578 -0.02290596
vn -0.73300740 0.68022066 0.00000000
vn 0.71915214 0.04467131 -0.69341523
vn 0.66429943 0.32661972 -0.67232866
vn 0.05673805 0.56357364 0.82411501
vn 0.06123150 0.27328307 0.95998285
vn 0.19165381 0.69119079 0.69679561
vn 0.07929534 0.94662056 0.31244481
vn -0.00740887 0.00551734 0.99995733
vn 0.13607264 0.51183338 0.84823984
vn -0.67275682 0.62935077 0.38899340
vn -0.80747597 0.45150734 0.37963625
vn -0.57785877 0.33591602 0.74380083
vn -0.35593625 0.57303512 0.73820061
vn -0.48944250 0.79102096 0.36705840
vn 0.31561967 -0.94848807 0.02746991
vn 0.70737479 0.00028002 0.70683862
vn 0.00000000 -0.87721294 0.48010152
vn 0.53175925 0.65265103 0.53970245
vn -0.17084767 -0.92596283 -0.33675497
vn -0.52944814 0.02983292 0.84781759
vn -0.25992374 0.05388758 0.96412436
vn -0.67050847 0.16757364 0.72272918
vn 0.06913231 0.99760750 0.00000000
vn 0.02168609 0.78327810 0.62129311
vn -0.26139624 0.00943621 0.96518546
vn -0.05673805 0.56357364 0.82411501
vn -0.06123150 0.27328307 0.95998285
vn 0.00000000 -0.99999885 0.00151472
vn -0.91394378 -0.12766095 0.38523947
vn -0.00011304 -0.70701167 -0.70720187
vn -0.38502404 -0.21047802 0.89858527
vn 0.80747597 0.45150734 0.37963625
vn 0.67275682 0.62935077 0.38899340
vn 0.00000000 0.99867645 -0.05143289
vn 0.72115890 -0.69276969 0.00000000
vn 0.00669147 0.99694726 -0.07779066
vn -0.24134021 -0.64173064 -0.72796750
vn 0.57737336 -0.57736636 -0.57731109
vn 0.00000000 0.03112243 0.99951558
vn -0.03641334 0.02380722 0.99905319
vn 0.01461400 0.01670089 0.99975373
vn 0.04991488 0.72029210 -0.69187267
vn -0.19165381 0.69119079 0.69679561
vn -0.05835337 0.29303243 0.95432011
vn 0.03641334 0.02380722 0.99905319
vn -0.03566836 0.28428570 0.95807589
vn -0.00075245 0.95490282 0.29691757
vn 0.43392375 0.61994322 -0.65374351
vn 0.34506726 0.63022970 0.69551356
vn -0.22789928 0.23551134 0.94477316
vn -0.13386617 0.11758944 0.98399826
vn 0.07107236 0.99373372 -0.08626709
vn 0.00000000 -0.21721669 0.97612341
vn -0.83165186 -0.12580871 0.54085798
vn 0.71442686 -0.59495499 0.36827003
vn 0.16616141 -0.78387069 0.59827847
vn -0.53128493 -0.31093649 0.78807032
vn -0.20115739 -0.58809195 0.78337958
vn -0.02168609 0.78327810 0.62129311
vn 0.97232062 0.23143035 0.03213431
vn -0.59350649 0.56658538 0.57160392
vn 0.00000000 0.28334249 0.95901879
vn 0.67639033 0.73137119 -0.08713381
vn 0.66887221 0.34289002 -0.65957289
vn -0.03429744 0.07567148 0.99654278
vn -0.00000000 0.60616530 0.79533869
vn 0.00000000 -0.70710678 -0.70710678
vn -0.69845222 -0.06760071 0.71245676
vn -0.76520974 -0.45371647 0.45672248
vn -0.14065572 -0.40809273 0.90204007
vn -0.02153867 -0.68032671 0.73259242
vn -0.02792733 -0.45893119 0.88803278
vn 0.57738404 -0.57719987 -0.57746686
vn -0.26491150 -0.01531916 0.96415104
vn -0.03224627 -0.21719097 0.97559636
vn -0.00210832 -0.99994882 0.00989551
vn 0.00000000 -0.60915727 -0.79304945
vn -0.00000000 0.00000000 1.00000000
vn 0.00000000 -0.60915727 -0.79304945
vn 0.73300740 0.68022066 0.00000000
vn 0.00000000 0.98725413 -0.15915173
vn 0.00000000 -0.68680731 -0.72683954
vn 0.25990646 0.05381486 0.96413308
vn 0.15625299 0.25251096 0.95489435
vn -0.24957899 0.96617141 -0.06498571
vn -0.06916318 0.98273262 -0.17161893
vn 0.00000000 0.00000000 -1.00000000
vn 0.22789928 0.23551134 0.94477316
vn 0.39598112 0.24684246 0.88445901
vn -0.00516727 0.99409794 -0.10836322
vn -0.86850646 0.49518418 0.02211704
vn -0.50611603 0.86222717 0.02026998
vn 0.26134681 0.00939720 0.96519922
vn -0.73801055 0.67367946 0.03868353
vn 0.13386845 0.11758572 0.98399839
vn -0.07107236 0.99373372 -0.08626709
vn -0.21001392 0.97583697 -0.06030231
vn 0.25187946 0.12793504 0.95926501
vn -0.14415789 0.71481749 0.68429121
vn -0.34313661 0.82698492 0.44536862
vn 0.00000000 0.98725413 -0.15915173
vn 0.26646050 0.69035995 -0.67260832
vn -0.71122670 -0.04964261 -0.70120767
vn 0.00000000 0.00000000 -1.00000000
vn -0.07940426 -0.19368887 0.97784436
vn 0.09733600 -0.34310379 -0.93424060
vn -0.76232252 -0.62627344 -0.16323589
vn 0.59350649 0.56658538 0.57160392
vn -0.69054692 0.26628116 -0.67248739
vn 0.67050847 0.16757364 0.72272918
vn 0.58371818 -0.57858707 0.56965788
vn -0.37339346 0.16351927 -0.91314773
vn 0.90293848 0.23704007 0.35848865
vn 0.52942958 0.02981342 0.84782986
vn 0.00000000 0.00000000 -1.00000000
vn 0.06916318 0.98273262 -0.17161893
vn -0.25187946 0.12793504 0.95926501
vn -0.15625299 0.25251096 0.95489435
vn 0.37324311 0.16343395 -0.91322447
vn 0.30985281 0.79851093 0.51611195
vn 0.58779207 0.00000000 -0.80901204
vn 0.00000000 -0.61041314 0.79208320
vn 0.63129371 -0.62550105 0.45849393
vn -0.09733600 -0.34310379 -0.93424060
vn -0.96151317 0.26727017 -0.06371091
vn -0.71946592 0.08328561 -0.68951598
vn 0.16344757 0.37329876 -0.91319928
vn -0.99591967 -0.08263224 -0.03627562
vn -0.00024995 0.98673877 -0.16231619
vn -0.53321296 0.50474859 -0.67890559
vn 0.54289795 0.83932561 -0.02818392
vn 0.21001392 0.97583697 -0.06030231
vn 0.00516727 0.99409794 -0.10836322
vn 0.69043270 0.26625801 -0.67261383
vn -0.10001207 -0.05848038 0.99326614
vn -0.01261195 -0.87425864 0.48529657
vn -0.16344785 -0.37322781 -0.91322823
vn -0.26629561 -0.69033846 -0.67269567
vn 0.76232252 -0.62627344 -0.16323589
vn -0.52677948 0.73729984 0.42295664
vn 0.26113523 0.82854172 0.49530497
vn -0.09392439 0.10821713 -0.98968038
vn 0.14472221 0.74146997 0.65519293
vn 0.25140318 0.01256977 0.96780083
vn 0.03224627 -0.21719097 0.97559636
vn 0.60974009 0.71622623 0.33946577
vn -0.30538081 -0.30140647 0.90327000
vn -0.00000000 -0.07193910 0.99740903
vn -0.00756859 -0.00024675 -0.99997133
vn -0.42292460 0.60484898 -0.67475365
vn -0.42150706 0.90656998 -0.02150960
vn 0.42796254 0.71947453 0.54699586
vn -0.63840564 -0.34941381 -0.68581939
vn -0.26113523 0.82854172 0.49530497
vn -0.99421038 -0.10081439 -0.03717756
vn -0.57736419 -0.57741973 -0.57726687
vn 0.00442648 -0.70599793 0.70820006
vn -0.70737479 0.00028002 0.70683862
vn -0.31561967 -0.94848807 0.02746991
vn 0.69039700 -0.26620923 -0.67266978
vn 0.02327386 -0.02327386 -0.99945818
vn 0.00000000 0.00000000 -1.00000000
vn 0.00000000 0.98756170 -0.15723197
vn 0.20115739 -0.58809195 0.78337958
vn 0.00210832 -0.99994882 0.00989551
vn -0.42553002 -0.60439040 -0.67352539
vn -0.00890729 -0.00027477 -0.99996029
vn 0.97783366 0.00000000 -0.20938323
vn -0.57738404 -0.57719987 -0.57746686
vn 0.07940426 -0.19368887 0.97784436
vn -0.26633605 0.69035626 -0.67266139
vn 0.00000000 1.00000000 0.00000000
vn -0.80911925 0.00000000 0.58764448
vn -0.26247702 -0.82965406 0.49272706
vn -0.44983548 -0.64367738 -0.61913445
vn 0.00890729 -0.00027477 -0.99996029
vn -0.97783366 0.00000000 -0.20938323
vn 0.42553002 -0.60439040 -0.67352539
vn 0.00000000 -0.64375471 -0.76523191
vn -0.16345993 0.37318275 -0.91324448
vn 0.34311895 -0.09725658 -0.93424330
vn 0.48944250 0.79102096 0.36705840
vn 0.06756979 0.75715838 0.64972726
vn 0.09729629 0.34311137 -0.93424195
vn 0.34312458 0.09732093 -0.93423453
vn 0.35593625 0.57303512 0.73820061
vn -0.04991488 0.72029210 -0.69187267
vn -0.20029784 0.70769575 -0.67753044
vn 0.57735027 -0.57735027 0.57735027
vn -0.71852269 -0.06297156 -0.69264690
vn 0.09392439 0.10821713 -0.98968038
vn 0.00756859 -0.00024675 -0.99997133
vn 0.42292460 0.60484898 -0.67475365
vn -0.85477997 -0.51596176 -0.05598814
vn -0.33039987 -0.94167839 -0.06385717
vn -0.50167805 -0.31220441 -0.80675123
vn 0.30538081 -0.30140647 0.90327000
vn -0.82529945 -0.56438667 0.01866835
vn 0.37328817 -0.16342186 -0.91320821
vn -0.57737765 -0.57718978 0.57748333
vn 0.00541594 -0.99998531 -0.00020063
vn 0.00000000 0.07555386 0.99714172
vn -0.03005446 0.58916658 0.80745245
vn 0.99685623 0.07701177 0.01862381
vn 0.26247702 -0.82965406 0.49272706
vn -0.09341317 -0.10773273 -0.98978161
vn 0.44983548 -0.64367738 -0.61913445
vn 0.80911925 0.00000000 0.58764448
vn 0.00000000 -0.60915727 -0.79304945
vn 0.14065572 -0.40809273 0.90204007
vn -0.63129371 -0.62550105 0.45849393
vn -0.58779207 0.00000000 -0.80901204
vn -0.19774646 -0.10410873 0.97470904
vn -0.03347413 -0.07174629 0.99686105
vn -0.31587247 -0.79624418 0.51596490
vn 0.16343547 -0.37334380 -0.91318303
vn 0.26642002 -0.69034214 -0.67264262
vn 0.09341317 -0.10773273 -0.98978161
vn 0.00000000 -1.00000000 0.00000000
vn -0.09729629 0.34311137 -0.93424195
vn 0.00000000 0.70710678 0.70710678
vn 0.48763900 0.11809854 0.86502078
vn 0.00000000 0.70710678 -0.70710678
vn -0.34294673 0.09733281 -0.93429859
vn 0.63840564 -0.34941381 -0.68581939
vn 0.99421038 -0.10081439 -0.03717756
vn -0.37343856 -0.16350717 -0.91313145
vn 0.00000000 -0.45944423 0.88820662
vn 0.00000000 -0.68034656 0.73289055
vn -0.39598112 0.24684246 0.88445901
vn 0.03566836 0.28428570 0.95807589
vn -0.93792407 0.06395150 0.34089390
vn -0.72277302 0.04400093 0.68968332
vn 0.02327386 0.02327386 -0.99945818
vn -0.48763900 0.11809854 0.86502078
vn 0.50611603 0.86222717 0.02026998
vn 0.00075245 0.95490282 0.29691757
vn -0.58461544 -0.81131053 0.00000000
vn 0.57736419 -0.57741973 -0.57726687
vn -0.02327138 -0.02326820 -0.99945837
vn -0.69051126 -0.26623239 -0.67254331
vn 0.71852269 -0.06297156 -0.69264690
vn -0.02327138 0.02326820 -0.99945837
vn 0.00024995 0.98673877 -0.16231619
vn -0.54289795 0.83932561 -0.02818392
vn -0.88773957 0.45977578 -0.02290596
vn -0.34294109 -0.09726846 -0.93430737
vn -0.72678433 0.63520693 0.26133635
vn -0.72223294 0.31484964 0.61583218
vn -0.71182863 0.13034331 0.69015260
vn -0.64368273 0.35176106 -0.67965926
vn -0.38266664 0.62743504 -0.67815301
vn -0.99245548 -0.12260555 0.00001519
vn -0.66424573 -0.07211120 -0.74402795
vn -0.19741185 -0.55425721 -0.80859601
vn -0.90491499 -0.30135214 -0.30052580
vn -0.66887221 0.34289002 -0.65957289
vn -0.42940618 0.62305164 -0.65377136
vn -0.57685414 0.81338620 0.07511456
vn -0.88061057 0.46670561 0.08192005
vn 0.00000000 0.00000000 -1.00000000
vn -0.71915214 0.04467131 -0.69341523
vn -0.71050011 0.18032992 -0.68019902
vn -0.70607996 0.70436968 -0.07290022
vn -0.43392375 0.61994322 -0.65374351
vn -0.66429943 0.32661972 -0.67232866
vn -0.29844025 0.59090971 0.74950592
vn -0.47194012 0.34659065 0.81064631
vn -0.67639033 0.73137119 -0.08713381
vn -0.06913231 0.99760750 0.00000000
vn -0.28862984 0.95674586 0.03647156
vn 0.05835337 0.29303243 0.95432011
vn 0.00000342 0.06684669 0.99776326
vn -0.99809025 0.06177265 0.00000000
vn -0.94637991 0.32305581 0.00009726
vn -0.00669147 0.99694726 -0.07779066
vn 0.57785877 0.33591602 0.74380083
vn 0.00000000 0.99269732 -0.12063183
vn 0.03005446 0.58916658 0.80745245
vn -0.90293848 0.23704007 0.35848865
vn 0.28862984 0.95674586 0.03647156
vn 0.00000000 -0.05751370 0.99834472
vn -0.40314198 0.38524670 0.83009730
vn 0.03809164 0.02870680 0.99886183
vn 0.03429744 0.07567148 0.99654278
vn -0.26708520 0.90037195 0.34350524
vn 0.38266664 0.62743504 -0.67815301
vn -0.27628067 0.36181780 0.89036895
vn -0.00541594 -0.99998531 -0.00020063
vn -0.57737336 -0.57736636 -0.57731109
vn 0.99773138 -0.00422650 0.06718809
vn 0.90491499 -0.30135214 -0.30052580
vn 0.50167805 -0.31220441 -0.80675123
vn 0.58460247 0.80892045 0.06235106
vn 0.19741185 -0.55425721 -0.80859601
vn 0.55312306 -0.58533860 0.59281836
vn 0.68090322 -0.69299866 0.23690434
vn -0.14333505 0.79219089 -0.59320203
vn -0.57735027 -0.57735027 0.57735027
vn -0.00442648 -0.70599793 0.70820006
vn 0.78037140 -0.11112081 0.61536383
vn -0.29251553 0.85666464 -0.42492394
vn 0.02792733 -0.45893119 0.88803278
vn 0.02153867 -0.68032671 0.73259242
vn 0.57737765 -0.57718978 0.57748333
vn -0.55469287 -0.54037390 -0.63270204
vn 0.57138134 -0.53907455 0.61880692
vn -0.55261728 -0.57016600 0.60788558
vn 0.82529945 -0.56438667 0.01866835
vn 0.60214839 0.73118376 0.32060510
vn -0.28293544 -0.63271026 -0.72085038
vn 0.24134021 -0.64173064 -0.72796750
vn 0.38502404 -0.21047802 0.89858527
vn 0.00000000 -0.99839742 -0.05659143
vn 0.00000000 0.00000000 0.00000000
vn 0.76520974 -0.45371647 0.45672248
vn -0.91388875 -0.01439744 -0.40570933
vn 0.69845222 -0.06760071 0.71245676
vn 0.42940618 0.62305164 -0.65377136
vn 0.24957899 0.96617141 -0.06498571
vn 0.57685414 0.81338620 0.07511456
vn 0.00000000 0.00000000 -1.00000000
vn 0.16074387 0.70765407 0.68803134
vn 0.91394378 -0.12766095 0.38523947
vn -0.78541274 -0.01580884 0.61877049
vn 0.70786553 -0.03626367 -0.70541572
vn 0.99245548 -0.12260555 0.00001519
vn 0.85477997 -0.51596176 -0.05598814
vn 0.66424573 -0.07211120 -0.74402795
vn -0.99737679 0.03187251 0.06498978
vn 0.03347413 -0.07174629 0.99686105
vn 0.96151317 0.26727017 -0.06371091
vn 0.70417437 0.18533871 0.68541084
vn 0.99734555 -0.06371348 -0.03524849
vn 0.71946592 0.08328561 -0.68951598
vn 0.00000000 0.00000000 1.00000000
vn 0.93792407 0.06395150 0.34089390
vn 0.72277302 0.04400093 0.68968332
vn 0.94858641 0.30598786 -0.08096452
vn 0.99809025 0.06177265 0.00000000
vn 0.01261195 -0.87425864 0.48529657
vn -0.59430329 0.79839647 0.09678156
vn 0.89157185 0.44975233 0.05312710
vn -0.00000000 0.92407022 0.38222274
vn -0.13607264 0.51183338 0.84823984
vn -0.02948985 -0.00962200 0.99951877
vn -0.06756979 0.75715838 0.64972726
vn 0.00000000 0.00000000 1.00000000
vn 0.20029784 0.70769575 -0.67753044
vn -0.07929534 0.94662056 0.31244481
vn -0.80911925 0.00000000 0.58764448
vn -0.44983548 -0.64367738 -0.61913445
vn 0.00000000 -0.68680731 -0.72683954
vn -0.00000000 -0.64375471 -0.76523191
vn -0.97783366 0.00000000 -0.20938323
vn 0.00000000 -0.99839742 -0.05659143
vn 0.00000000 -0.70710678 -0.70710678
vn -0.63129371 -0.62550105 0.45849393
vn 0.00000000 -1.00000000 0.00000000
vn -0.58779207 0.00000000 -0.80901204
vn 0.80911925 0.00000000 0.58764448
vn 0.00000000 0.00000000 1.00000000
vn 0.44983548 -0.64367738 -0.61913445
vn -0.00000000 0.00000000 -1.00000000
vn -0.76232252 -0.62627344 -0.16323589
vn 0.33039987 -0.94167839 -0.06385717
vn -0.30663735 -0.90267027 -0.30192701
vn 0.19774646 -0.10410873 0.97470904
vn 0.58779207 0.00000000 -0.80901204
vn 0.63129371 -0.62550105 0.45849393
vn 0.00011304 -0.70701167 -0.70720187
vn 0.51150143 -0.04479842 0.85811386
vn 0.76232252 -0.62627344 -0.16323589
vn 0.31587247 -0.79624418 0.51596490
vn -0.00000000 -0.61041314 0.79208320
vn 0.30663735 -0.90267027 -0.30192701
vn 0.26708520 0.90037195 0.34350524
vn 0.27628067 0.36181780 0.89036895
vn 0.40314198 0.38524670 0.83009730
vn -0.99742301 0.07090052 0.01097544
vn -0.97122238 0.23738824 0.01933693
vn 0.00000000 -0.68680731 -0.72683954
vn 0.53128493 -0.31093649 0.78807032
vn 0.10001218 -0.05848014 0.99326615
vn 0.00000000 -0.70710678 -0.70710678
vn 0.00000000 -0.99839742 -0.05659143
vn 0.64368273 0.35176106 -0.67965926
vn 0.53321296 0.50474859 -0.67890559
vn 0.79969021 0.27494923 0.53375883
vn 0.00000000 -0.00000000 0.00000000
vn 0.00000000 0.00000000 0.00000000
vn 0.26491278 -0.01531761 0.96415071
vn 0.00000000 -1.00000000 0.00000000
vn 0.00000000 -0.70710678 0.70710678
vn -0.51150149 -0.04479876 0.85811380
f 57//57 27//27 359//359
f 84//84 45//45 72//72
f 255//255 151//151 241//241
f 349//349 340//340 353//353
f 57//57 359//359 40//40
f 167//167 210//210 51//51
f 244//244 131//131 64//64
f 58//58 40//40 359//359
f 67//67 89//89 242//242
f 68//68 320//320 154//154
f 84//84 119//119 227//227
f 196//196 391//391 20//20
f 132//132 41//41 302//302
f 302//302 41//41 359//359
f 227//227 88//88 45//45
f 393//393 98//98 102//102
f 295//295 37//37 337//337
f 56//56 37//37 363//363
f 409//409 39//39 34//34
f 244//244 36//36 249//249
f 42//42 31//31 150//150
f 13//13 145//145 196//196
f 73//73 364//364 361//361
f 267//267 204//204 212//212
f 393//393 102//102 103//103
f 245//245 109//109 286//286
f 24//24 260//260 25//25
f 278//278 260//260 24//24
f 246//246 267//267 43//43
f 168//168 207//207 164//164
f 132//132 302//302 297//297
f 246//246 288//288 267//267
f 97//97 128//128 236//236
f 139//139 294//294 25//25
f 139//139 25//25 260//260
f 383//383 221//221 378//378
f 309//309 380//380 342//342
f 39//39 88//88 149//149
f 403//403 340//340 348//348
f 134//134 62//62 335//335
f 224//224 382//382 184//184
f 126//126 194//194 185//185
f 146//146 333//333 62//62
f 333//333 77//77 62//62
f 355//355 179//179 388//388
f 261//261 152//152 255//255
f 29//29 388//388 179//179
f 48//48 177//177 258//258
f 171//171 408//408 22//22
f 224//224 184//184 317//317
f 9//9 77//77 17//17
f 125//125 94//94 122//122
f 76//76 293//293 80//80
f 332//332 330//330 338//338
f 360//360 5//5 7//7
f 178//178 318//318 355//355
f 396//396 96//96 400//400
f 237//237 176//176 101//101
f 409//409 71//71 45//45
f 245//245 299//299 109//109
f 315//315 154//154 68//68
f 109//109 345//345 398//398
f 135//135 377//377 193//193
f 353//353 78//78 14//14
f 153//153 137//137 233//233
f 349//349 354//354 256//256
f 146//146 130//130 66//66
f 13//13 14//14 78//78
f 319//319 161//161 313//313
f 317//317 184//184 159//159
f 409//409 82//82 71//71
f 57//57 361//361 300//300
f 13//13 77//77 145//145
f 302//302 359//359 27//27
f 125//125 1//1 49//49
f 343//343 240//240 348//348
f 145//145 77//77 333//333
f 407//407 371//371 399//399
f 223//223 179//179 91//91
f 9//9 11//11 12//12
f 109//109 102//102 98//98
f 245//245 76//76 299//299
f 58//58 41//41 65//65
f 251//251 38//38 21//21
f 383//383 387//387 221//221
f 244//244 64//64 297//297
f 367//367 396//396 370//370
f 79//79 216//216 76//76
f 19//19 286//286 109//109
f 391//391 197//197 20//20
f 31//31 355//355 318//318
f 51//51 269//269 93//93
f 97//97 109//109 107//107
f 206//206 190//190 232//232
f 147//147 115//115 130//130
f 352//352 332//332 338//338
f 394//394 172//172 264//264
f 47//47 196//196 200//200
f 71//71 82//82 83//83
f 120//120 195//195 174//174
f 284//284 113//113 235//235
f 124//124 291//291 103//103
f 313//313 161//161 381//381
f 162//162 159//159 345//345
f 38//38 293//293 197//197
f 112//112 103//103 102//102
f 184//184 382//382 398//398
f 292//292 177//177 143//143
f 352//352 236//236 128//128
f 327//327 382//382 224//224
f 327//327 406//406 382//382
f 126//126 241//241 257//257
f 178//178 224//224 318//318
f 107//107 406//406 386//386
f 42//42 179//179 355//355
f 350//350 337//337 235//235
f 403//403 357//357 353//353
f 168//168 232//232 205//205
f 178//178 388//388 397//397
f 133//133 175//175 213//213
f 185//185 141//141 116//116
f 256//256 341//341 323//323
f 127//127 354//354 346//346
f 97//97 107//107 128//128
f 32//32 154//154 324//324
f 195//195 261//261 199//199
f 167//167 268//268 210//210
f 202//202 266//266 285//285
f 135//135 193//193 118//118
f 270//270 390//390 52//52
f 171//171 287//287 211//211
f 336//336 129//129 56//56
f 307//307 240//240 343//343
f 110//110 364//364 61//61
f 289//289 280//280 274//274
f 311//311 160//160 69//69
f 18//18 23//23 20//20
f 58//58 60//60 40//40
f 10//10 74//74 16//16
f 85//85 243//243 86//86
f 275//275 183//183 276//276
f 196//196 20//20 200//200
f 307//307 342//342 240//240
f 33//33 69//69 321//321
f 343//343 340//340 256//256
f 225//225 187//187 191//191
f 304//304 306//306 253//253
f 245//245 286//286 18//18
f 311//311 320//320 68//68
f 180//180 156//156 164//164
f 146//146 134//134 147//147
f 384//384 389//389 373//373
f 225//225 233//233 136//136
f 332//332 386//386 397//397
f 57//57 40//40 361//361
f 186//186 237//237 201//201
f 336//336 44//44 129//129
f 288//288 204//204 267//267
f 295//295 301//301 363//363
f 244//244 297//297 26//26
f 402//402 250//250 12//12
f 393//393 200//200 392//392
f 250//250 301//301 295//295
f 85//85 150//150 31//31
f 251//251 290//290 358//358
f 357//357 17//17 353//353
f 47//47 200//200 393//393
f 67//67 242//242 159//159
f 237//237 101//101 201//201
f 283//283 262//262 280//280
f 189//189 193//193 233//233
f 126//126 185//185 123//123
f 389//389 92//92 372//372
f 133//133 141//141 248//248
f 19//19 109//109 98//98
f 58//58 359//359 41//41
f 392//392 200//200 23//23
f 182//182 387//387 383//383
f 394//394 276//276 270//270
f 287//287 22//22 263//263
f 163//163 156//156 220//220
f 376//376 187//187 136//136
f 30//30 218//218 347//347
f 157//157 339//339 158//158
f 3//3 4//4 53//53
f 409//409 45//45 88//88
f 308//308 32//32 305//305
f 251//251 358//358 38//38
f 218//218 16//16 74//74
f 385//385 390//390 183//183
f 407//407 215//215 371//371
f 120//120 174//174 231//231
f 252//252 310//310 322//322
f 352//352 338//338 351//351
f 126//126 255//255 241//241
f 39//39 149//149 65//65
f 70//70 339//339 325//325
f 289//289 274//274 263//263
f 173//173 167//167 51//51
f 379//379 372//372 365//365
f 371//371 176//176 399//399
f 131//131 65//65 64//64
f 178//178 397//397 327//327
f 22//22 113//113 263//263
f 302//302 27//27 297//297
f 180//180 220//220 156//156
f 33//33 320//320 69//69
f 171//171 211//211 390//390
f 254//254 230//230 175//175
f 353//353 14//14 346//346
f 403//403 218//218 74//74
f 294//294 26//26 25//25
f 281//281 108//108 262//262
f 325//325 339//339 331//331
f 352//352 124//124 236//236
f 345//345 184//184 398//398
f 8//8 74//74 11//11
f 275//275 101//101 385//385
f 384//384 373//373 387//387
f 155//155 188//188 168//168
f 294//294 288//288 246//246
f 250//250 295//295 134//134
f 271//271 280//280 289//289
f 400//400 96//96 209//209
f 44//44 87//87 381//381
f 295//295 363//363 37//37
f 29//29 239//239 323//323
f 349//349 256//256 340//340
f 100//100 104//104 111//111
f 358//358 80//80 38//38
f 393//393 103//103 291//291
f 189//189 118//118 193//193
f 377//377 153//153 233//233
f 186//186 201//201 284//284
f 120//120 152//152 138//138
f 182//182 222//222 384//384
f 350//350 235//235 113//113
f 114//114 263//263 113//113
f 366//366 368//368 373//373
f 336//336 10//10 16//16
f 183//183 390//390 270//270
f 170//170 52//52 214//214
f 10//10 11//11 74//74
f 42//42 355//355 31//31
f 377//377 233//233 193//193
f 136//136 233//233 137//137
f 120//120 138//138 261//261
f 402//402 401//401 336//336
f 76//76 217//217 60//60
f 282//282 263//263 262//262
f 95//95 104//104 100//100
f 83//83 82//82 43//43
f 173//173 229//229 212//212
f 312//312 331//331 339//339
f 129//129 81//81 176//176
f 150//150 229//229 90//90
f 157//157 321//321 166//166
f 56//56 237//237 186//186
f 125//125 49//49 94//94
f 192//192 207//207 205//205
f 217//217 40//40 60//60
f 271//271 289//289 260//260
f 8//8 11//11 9//9
f 186//186 284//284 235//235
f 132//132 64//64 65//65
f 83//83 267//267 212//212
f 365//365 372//372 92//92
f 114//114 281//281 263//263
f 283//283 273//273 262//262
f 114//114 273//273 279//279
f 282//282 105//105 395//395
f 385//385 101//101 371//371
f 46//46 14//14 47//47
f 107//107 398//398 406//406
f 332//332 128//128 386//386
f 48//48 290//290 143//143
f 338//338 330//330 341//341
f 83//83 212//212 229//229
f 110//110 61//61 50//50
f 268//268 204//204 117//117
f 379//379 373//373 372//372
f 349//349 353//353 346//346
f 100//100 110//110 50//50
f 335//335 62//62 77//77
f 315//315 32//32 154//154
f 208//208 210//210 169//169
f 208//208 209//209 269//269
f 18//18 20//20 197//197
f 72//72 150//150 85//85
f 376//376 136//136 137//137
f 175//175 230//230 213//213
f 155//155 156//156 220//220
f 275//275 276//276 201//201
f 282//282 262//262 105//105
f 358//358 61//61 73//73
f 259//259 300//300 99//99
f 144//144 201//201 265//265
f 377//377 2//2 153//153
f 268//268 117//117 142//142
f 46//46 47//47 393//393
f 89//89 86//86 242//242
f 76//76 80//80 217//217
f 326//326 223//223 309//309
f 9//9 63//63 55//55
f 167//167 204//204 268//268
f 127//127 351//351 354//354
f 31//31 318//318 243//243
f 211//211 264//264 172//172
f 133//133 213//213 148//148
f 396//396 91//91 96//96
f 311//311 69//69 320//320
f 325//325 320//320 33//33
f 143//143 130//130 115//115
f 203//203 390//390 211//211
f 278//278 271//271 260//260
f 142//142 117//117 263//263
f 180//180 219//219 220//220
f 206//206 232//232 205//205
f 258//258 177//177 292//292
f 146//146 66//66 334//334
f 155//155 168//168 164//164
f 214//214 203//203 211//211
f 185//185 234//234 123//123
f 343//343 348//348 340//340
f 409//409 88//88 39//39
f 129//129 44//44 81//81
f 194//194 248//248 141//141
f 327//327 386//386 406//406
f 180//180 207//207 192//192
f 231//231 151//151 152//152
f 192//192 232//232 188//188
f 247//247 246//246 43//43
f 58//58 65//65 60//60
f 144//144 266//266 201//201
f 148//148 213//213 174//174
f 34//34 35//35 249//249
f 231//231 230//230 151//151
f 56//56 186//186 37//37
f 269//269 209//209 96//96
f 269//269 96//96 93//93
f 162//162 67//67 159//159
f 119//119 149//149 227//227
f 317//317 159//159 242//242
f 282//282 395//395 263//263
f 148//148 199//199 116//116
f 315//315 6//6 305//305
f 322//322 315//315 68//68
f 120//120 261//261 195//195
f 173//173 51//51 93//93
f 401//401 11//11 10//10
f 275//275 385//385 183//183
f 278//278 24//24 28//28
f 4//4 296//296 1//1
f 298//298 53//53 4//4
f 114//114 111//111 104//104
f 15//15 5//5 75//75
f 281//281 106//106 108//108
f 238//238 123//123 234//234
f 19//19 23//23 286//286
f 290//290 130//130 143//143
f 24//24 297//297 27//27
f 79//79 228//228 162//162
f 23//23 200//200 20//20
f 294//294 246//246 36//36
f 180//180 164//164 207//207
f 139//139 140//140 288//288
f 93//93 96//96 91//91
f 171//171 215//215 408//408
f 258//258 95//95 100//100
f 385//385 215//215 390//390
f 198//198 234//234 116//116
f 245//245 18//18 293//293
f 119//119 228//228 149//149
f 317//317 242//242 243//243
f 394//394 263//263 395//395
f 368//368 221//221 373//373
f 44//44 381//381 303//303
f 111//111 279//279 272//272
f 180//180 192//192 219//219
f 254//254 241//241 151//151
f 57//57 28//28 27//27
f 194//194 257//257 248//248
f 110//110 111//111 99//99
f 394//394 264//264 263//263
f 8//8 403//403 74//74
f 311//311 68//68 315//315
f 358//358 73//73 80//80
f 73//73 61//61 364//364
f 385//385 371//371 215//215
f 307//307 343//343 239//239
f 171//171 22//22 287//287
f 352//352 128//128 332//332
f 371//371 101//101 176//176
f 162//162 89//89 67//67
f 85//85 31//31 243//243
f 198//198 116//116 199//199
f 254//254 151//151 230//230
f 171//171 390//390 215//215
f 393//393 392//392 98//98
f 168//168 188//188 232//232
f 73//73 217//217 80//80
f 146//146 147//147 130//130
f 352//352 351//351 124//124
f 140//140 117//117 204//204
f 161//161 55//55 314//314
f 72//72 229//229 150//150
f 374//374 378//378 368//368
f 367//367 91//91 396//396
f 405//405 331//331 329//329
f 405//405 329//329 331//331
f 79//79 65//65 228//228
f 214//214 211//211 172//172
f 18//18 197//197 293//293
f 72//72 45//45 71//71
f 110//110 99//99 364//364
f 111//111 272//272 99//99
f 93//93 91//91 90//90
f 185//185 116//116 234//234
f 127//127 291//291 124//124
f 247//247 82//82 34//34
f 317//317 243//243 318//318
f 364//364 99//99 300//300
f 100//100 111//111 110//110
f 122//122 94//94 59//59
f 258//258 100//100 50//50
f 384//384 222//222 389//389
f 37//37 235//235 337//337
f 186//186 235//235 37//37
f 278//278 259//259 283//283
f 83//83 43//43 267//267
f 189//189 233//233 121//121
f 24//24 27//27 28//28
f 168//168 205//205 207//207
f 155//155 164//164 156//156
f 42//42 90//90 91//91
f 287//287 263//263 264//264
f 322//322 68//68 344//344
f 13//13 196//196 47//47
f 84//84 86//86 119//119
f 173//173 93//93 90//90
f 178//178 355//355 388//388
f 406//406 398//398 382//382
f 133//133 248//248 175//175
f 225//225 191//191 121//121
f 39//39 65//65 35//35
f 315//315 32//32 324//324
f 119//119 89//89 228//228
f 139//139 289//289 140//140
f 278//278 283//283 271//271
f 208//208 269//269 210//210
f 268//268 142//142 169//169
f 247//247 249//249 36//36
f 261//261 234//234 198//198
f 157//157 158//158 321//321
f 38//38 197//197 21//21
f 366//366 379//379 369//369
f 258//258 292//292 95//95
f 226//226 118//118 189//189
f 48//48 258//258 50//50
f 358//358 50//50 61//61
f 299//299 216//216 162//162
f 218//218 306//306 16//16
f 126//126 123//123 255//255
f 153//153 2//2 375//375
f 394//394 270//270 172//172
f 332//332 397//397 330//330
f 247//247 36//36 246//246
f 316//316 166//166 160//160
f 114//114 113//113 285//285
f 182//182 384//384 387//387
f 336//336 56//56 363//363
f 256//256 323//323 239//239
f 214//214 52//52 203//203
f 134//134 55//55 63//63
f 72//72 71//71 229//229
f 403//403 353//353 340//340
f 407//407 81//81 303//303
f 17//17 78//78 353//353
f 328//328 396//396 400//400
f 108//108 105//105 262//262
f 144//144 265//265 108//108
f 166//166 69//69 160//160
f 277//277 201//201 276//276
f 231//231 174//174 213//213
f 17//17 77//77 78//78
f 134//134 337//337 55//55
f 330//330 323//323 341//341
f 15//15 7//7 5//5
f 286//286 23//23 18//18
f 22//22 350//350 113//113
f 202//202 201//201 266//266
f 22//22 408//408 350//350
f 309//309 367//367 380//380
f 8//8 9//9 55//55
f 3//3 54//54 4//4
f 278//278 28//28 259//259
f 106//106 144//144 108//108
f 251//251 66//66 290//290
f 395//395 105//105 277//277
f 362//362 350//350 408//408
f 366//366 373//373 379//379
f 304//304 313//313 381//381
f 155//155 219//219 188//188
f 362//362 408//408 314//314
f 316//316 165//165 320//320
f 402//402 12//12 401//401
f 129//129 176//176 237//237
f 308//308 356//356 154//154
f 244//244 26//26 36//36
f 19//19 98//98 392//392
f 9//9 335//335 77//77
f 275//275 201//201 101//101
f 196//196 145//145 391//391
f 250//250 134//134 63//63
f 320//320 165//165 154//154
f 252//252 6//6 310//310
f 112//112 102//102 109//109
f 30//30 347//347 161//161
f 129//129 237//237 56//56
f 319//319 30//30 161//161
f 25//25 26//26 297//297
f 316//316 312//312 157//157
f 161//161 314//314 381//381
f 42//42 150//150 90//90
f 9//9 12//12 63//63
f 380//380 367//367 370//370
f 183//183 270//270 276//276
f 46//46 393//393 291//291
f 120//120 231//231 152//152
f 397//397 388//388 330//330
f 46//46 127//127 346//346
f 8//8 55//55 403//403
f 259//259 28//28 300//300
f 112//112 236//236 103//103
f 173//173 90//90 229//229
f 299//299 345//345 109//109
f 146//146 62//62 134//134
f 153//153 375//375 137//137
f 289//289 263//263 117//117
f 261//261 255//255 123//123
f 79//79 76//76 60//60
f 307//307 239//239 326//326
f 356//356 344//344 68//68
f 407//407 303//303 408//408
f 336//336 16//16 87//87
f 401//401 10//10 336//336
f 364//364 300//300 361//361
f 299//299 76//76 216//216
f 389//389 372//372 373//373
f 336//336 87//87 44//44
f 97//97 112//112 109//109
f 304//304 381//381 306//306
f 315//315 305//305 32//32
f 283//283 279//279 273//273
f 131//131 35//35 65//65
f 195//195 199//199 174//174
f 334//334 66//66 21//21
f 391//391 21//21 197//197
f 295//295 337//337 134//134
f 79//79 162//162 216//216
f 306//306 381//381 87//87
f 303//303 314//314 408//408
f 51//51 210//210 269//269
f 108//108 265//265 105//105
f 29//29 323//323 388//388
f 316//316 325//325 312//312
f 254//254 257//257 241//241
f 145//145 333//333 334//334
f 261//261 198//198 199//199
f 238//238 261//261 123//123
f 366//366 374//374 368//368
f 407//407 399//399 81//81
f 316//316 157//157 166//166
f 299//299 162//162 345//345
f 148//148 174//174 199//199
f 319//319 253//253 30//30
f 311//311 324//324 160//160
f 176//176 81//81 399//399
f 30//30 306//306 218//218
f 307//307 309//309 342//342
f 163//163 220//220 181//181
f 29//29 179//179 223//223
f 336//336 363//363 301//301
f 203//203 52//52 390//390
f 84//84 72//72 85//85
f 139//139 260//260 289//289
f 328//328 370//370 396//396
f 70//70 325//325 33//33
f 54//54 360//360 4//4
f 281//281 262//262 263//263
f 38//38 80//80 293//293
f 255//255 152//152 151//151
f 84//84 227//227 45//45
f 114//114 285//285 106//106
f 139//139 288//288 294//294
f 289//289 117//117 140//140
f 308//308 154//154 32//32
f 366//366 369//369 374//374
f 283//283 272//272 279//279
f 170//170 270//270 52//52
f 46//46 346//346 14//14
f 316//316 320//320 325//325
f 226//226 121//121 191//191
f 30//30 253//253 306//306
f 247//247 34//34 249//249
f 243//243 242//242 86//86
f 325//325 331//331 312//312
f 13//13 47//47 14//14
f 319//319 313//313 304//304
f 221//221 387//387 373//373
f 362//362 337//337 350//350
f 202//202 285//285 284//284
f 109//109 398//398 107//107
f 391//391 145//145 334//334
f 316//316 160//160 165//165
f 224//224 317//317 318//318
f 170//170 214//214 172//172
f 362//362 314//314 55//55
f 135//135 2//2 377//377
f 245//245 293//293 76//76
f 238//238 234//234 261//261
f 402//402 301//301 250//250
f 106//106 266//266 144//144
f 345//345 159//159 184//184
f 395//395 277//277 276//276
f 185//185 194//194 141//141
f 97//97 236//236 112//112
f 125//125 122//122 59//59
f 105//105 265//265 277//277
f 409//409 34//34 82//82
f 356//356 68//68 154//154
f 394//394 395//395 276//276
f 13//13 78//78 77//77
f 250//250 63//63 12//12
f 132//132 297//297 64//64
f 401//401 12//12 11//11
f 225//225 121//121 233//233
f 119//119 86//86 89//89
f 226//226 189//189 121//121
f 251//251 21//21 66//66
f 133//133 148//148 141//141
f 132//132 65//65 41//41
f 261//261 138//138 152//152
f 170//170 172//172 270//270
f 106//106 285//285 266//266
f 227//227 149//149 88//88
f 79//79 60//60 65//65
f 283//283 280//280 271//271
f 283//283 259//259 272//272
f 326//326 29//29 223//223
f 148//148 116//116 141//141
f 403//403 347//347 218//218
f 339//339 331//331 404//404
f 339//339 404//404 331//331
f 306//306 87//87 16//16
f 330//330 388//388 323//323
f 57//57 300//300 28//28
f 326//326 239//239 29//29
f 407//407 408//408 215//215
f 107//107 386//386 128//128
f 217//217 361//361 40//40
f 247//247 43//43 82//82
f 48//48 358//358 290//290
f 331//331 404//404 329//329
f 331//331 329//329 404//404
f 303//303 381//381 314//314
f 84//84 85//85 86//86
f 71//71 83//83 229//229
f 192//192 205//205 232//232
f 312//312 339//339 157//157
f 131//131 249//249 35//35
f 349//349 346//346 354//354
f 202//202 284//284 201//201
f 298//298 4//4 59//59
f 403//403 55//55 347//347
f 290//290 66//66 130//130
f 292//292 143//143 115//115
f 114//114 106//106 281//281
f 307//307 326//326 309//309
f 347//347 55//55 161//161
f 127//127 124//124 351//351
f 126//126 257//257 194//194
f 73//73 361//361 217//217
f 379//379 365//365 369//369
f 44//44 303//303 81//81
f 368//368 378//378 221//221
f 225//225 136//136 187//187
f 376//376 137//137 375//375
f 146//146 334//334 333//333
f 231//231 213//213 230//230
f 70//70 321//321 158//158
f 309//309 223//223 367//367
f 343//343 256//256 239//239
f 160//160 324//324 165//165
f 311//311 315//315 324//324
f 166//166 321//321 69//69
f 46//46 291//291 127//127
f 114//114 279//279 111//111
f 39//39 35//35 34//34
f 327//327 397//397 386//386
f 9//9 17//17 357//357
f 155//155 220//220 219//219
f 210//210 268//268 169//169
f 402//402 336//336 301//301
f 192//192 188//188 219//219
f 310//310 6//6 315//315
f 19//19 392//392 23//23
f 70//70 158//158 339//339
f 277//277 265//265 201//201
f 280//280 262//262 274//274
f 354//354 341//341 256//256
f 252//252 322//322 344//344
f 367//367 223//223 91//91
f 319//319 304//304 253//253
f 310//310 315//315 322//322
f 167//167 212//212 204//204
f 389//389 222//222 92//92
f 125//125 59//59 1//1
f 165//165 324//324 154//154
f 4//4 1//1 59//59
f 65//65 149//149 228//228
f 178//178 327//327 224//224
f 48//48 143//143 177//177
f 48//48 50//50 358//358
f 362//362 55//55 337//337
f 287//287 264//264 211//211
f 42//42 91//91 179//179
f 54//54 5//5 360//360
f 54//54 75//75 5//5
f 4//4 360//360 296//296
f 124//124 103//103 236//236
f 15//15 75//75 54//54
f 162//162 228//228 89//89
f 70//70 33//33 321//321
f 259//259 99//99 272//272
f 244//244 249//249 131//131
f 173//173 212//212 167//167
f 24//24 25//25 297//297
f 294//294 36//36 26//26
f 338//338 341//341 351//351
f 351//351 341//341 354//354
f 391//391 334//334 21//21
f 288//288 140//140 204//204
f 284//284 285//285 113//113