# https://github.com/mikedh/trimesh
v -0.02869800 -0.02090000 0.03219500
v 0.02514600 -0.04334100 -0.03106500
v 0.03598400 -0.02438200 0.02837000
v 0.02499400 -0.04263100 -0.02853700
v 0.03495200 0.04203900 0.02947000
v 0.03495200 -0.02090000 -0.03219500
v 0.03495200 -0.02090000 0.03219500
v 0.03423500 -0.03029200 0.02913100
v 0.03929600 -0.03623700 0.02851000
v 0.03830600 -0.03456200 0.02690500
v 0.03636100 -0.03451600 0.02532500
v 0.03495200 -0.02873200 0.02937900
v 0.03612400 -0.02394500 -0.02841700
v -0.03008200 -0.03494200 -0.03705800
v 0.03356800 -0.04238000 0.03839800
v 0.03600800 0.04117200 -0.02827400
v 0.03652700 -0.04712500 0.03558200
v 0.03762000 -0.04713200 0.03610700
v 0.03508000 -0.04027700 0.03065200
v 0.02514600 -0.04622600 0.02230400
v 0.03712400 -0.03829600 0.03525400
v 0.03495200 0.04203900 -0.02935300
v 0.03390700 -0.04334100 0.03106500
v 0.03629800 -0.04356000 0.04107700
v -0.02652700 -0.02537000 -0.03525400
v 0.02499400 -0.04263100 0.02853700
v -0.03225400 -0.02807000 0.03243800
v -0.04131800 0.04550700 -0.03501000
v -0.04084100 -0.03045900 0.03421600
v 0.03719900 -0.03067700 -0.03399800
v 0.03791000 0.04550900 0.03507800
v 0.03904100 0.04651600 0.03576400
v -0.04241300 0.04635700 -0.03561300
v 0.03125600 -0.04263100 -0.02853700
v 0.03123000 -0.03665300 -0.02225100
v 0.03356800 -0.02945300 0.03839800
v -0.04041700 -0.02990900 -0.03379500
v 0.03700900 -0.02989400 0.03379700
v 0.04165000 -0.04041900 0.04024300
v -0.03800100 -0.03388900 0.02290400
v 0.03423500 -0.03029200 -0.02913100
v 0.03712400 -0.03829600 -0.03525400
v 0.03629800 -0.04356000 -0.04107700
v -0.02652700 -0.02537000 0.03525400
v 0.03929600 -0.03623700 -0.02851000
v 0.03390700 -0.04334100 -0.03106500
v -0.03984700 -0.02950400 0.03363000
v 0.04008300 -0.03011500 -0.03243800
v 0.03649500 -0.02980200 -0.03384600
v 0.03390700 -0.04334100 -0.02230400
v -0.02200100 -0.04041900 0.04024300
v 0.03636100 -0.03451600 -0.02532500
v -0.02228700 -0.03320200 0.03409500
v 0.03830600 -0.03456200 -0.02690500
v 0.03495200 -0.02873200 -0.02937900
v -0.02880300 -0.03254000 0.04005400
v 0.03495200 -0.02529800 -0.02935800
v 0.03356800 -0.04238000 -0.03839800
v -0.03008200 -0.03494200 0.03705800
v 0.03534500 0.04518400 -0.03224700
v 0.03483700 -0.02826000 0.03222000
v -0.02974300 -0.04622600 -0.03106500
v 0.03356800 -0.03494200 0.03705800
v 0.03139600 -0.02498300 0.03243800
v -0.02869800 -0.02873200 -0.02937900
v 0.03606600 -0.03043300 0.03085700
v -0.04171900 0.04551500 0.03499600
v -0.03863900 0.04503500 0.03232900
v 0.03840300 -0.02845700 0.03691000
v -0.02534400 -0.03456200 -0.02690500
v 0.03484800 -0.03254000 0.04005400
v 0.04008300 -0.03560300 0.03109800
v 0.04136300 -0.03320200 0.03409500
v 0.03812800 0.04576600 -0.03530900
v 0.02565000 -0.03388900 0.02290400
v -0.03850400 -0.04622600 -0.02230400
v -0.03008200 -0.04238000 -0.03839800
v -0.03815000 -0.02829000 -0.03221800
v 0.03498000 -0.02796100 0.03155100
v -0.03858000 0.04484800 0.03177800
v -0.03225400 -0.02498300 -0.03243800
v -0.04170800 0.04546500 0.03450000
v 0.03689800 -0.03226300 0.03241100
v -0.02712300 -0.04712500 -0.03558200
v 0.02514600 -0.04334100 0.03106500
v 0.03739300 0.00984000 -0.02199700
v 0.03721900 0.01132800 -0.02362700
v 0.03623600 0.01128100 -0.02216500
v -0.02869800 -0.02090000 -0.03219500
v 0.03125600 -0.04263100 0.02227600
v 0.03768900 0.00990800 -0.02509600
v 0.03628600 0.01155400 -0.02505800
v 0.03628200 0.00984000 -0.02639100
v 0.03060100 -0.03926000 0.02790900
v 0.03390700 -0.04622600 0.02230400
v 0.03719500 0.00963500 -0.02600300
v 0.03719600 0.01104800 -0.02497800
v 0.03623300 0.01082100 -0.02599400
v 0.03137700 -0.03889500 0.02804800
v 0.03709600 0.01098500 -0.02237800
v 0.03795900 0.00984000 -0.02342400
v 0.03628500 0.01185700 -0.02363600
v 0.03637100 0.01032200 -0.02141500
v 0.03618400 0.00864100 -0.02120000
v 0.02514600 -0.04622600 0.03106500
v 0.03709600 0.00743500 -0.02237800
v 0.03793000 0.00837000 -0.02343100
v 0.03622900 0.00955100 -0.02118200
v 0.03637100 0.00809800 -0.02141500
v 0.03628500 0.00656200 -0.02363600
v -0.02869800 -0.02398700 -0.03219500
v 0.03123000 -0.03665300 0.02225100
v 0.03125600 -0.04263100 0.02853700
v 0.03764400 0.00831200 -0.02510700
v 0.03627700 0.00837000 -0.02635300
v 0.03628600 0.00686600 -0.02505800
v 0.03373200 -0.03872100 0.02905100
v 0.03719600 0.00737100 -0.02497800
v 0.03718200 0.00857200 -0.02598000
v 0.03623300 0.00759800 -0.02599400
v 0.03390700 -0.04334100 0.02230400
v 0.03721900 0.00709100 -0.02362700
v 0.03737200 0.00837000 -0.02202400
v 0.03623600 0.00713900 -0.02216500
v -0.02974300 -0.04334100 -0.02230400
v -0.02991800 -0.03872100 -0.02905100
v 0.03612300 0.04075400 -0.02842200
v -0.03008200 -0.02945300 -0.03839800
v -0.03201200 -0.03437300 -0.03275900
v -0.03850400 -0.04334100 -0.03106500
v -0.02675300 -0.03226300 -0.03241100
v -0.02758400 -0.03043300 -0.03085700
v -0.02356700 -0.03011500 -0.03243800
v -0.04039200 -0.02987700 0.03387400
v 0.04165000 -0.04041900 -0.04024300
v 0.03373200 -0.03872100 -0.02905100
v 0.03356800 -0.02945300 -0.03839800
v 0.03701000 -0.02992400 -0.03373900
v -0.03225400 -0.02807000 -0.03243800
v 0.03905500 0.04651600 -0.03563700
v -0.04084100 -0.03045900 -0.03410000
v -0.04135000 0.04551700 0.03514300
v 0.03717100 -0.03072500 0.03400800
v -0.02435400 -0.03623700 -0.02851000
v -0.04240400 0.04634000 0.03570800
v 0.03779600 0.04551700 -0.03502600
v -0.03975800 -0.02956800 -0.03361200
v -0.02200100 -0.04041900 -0.04024300
v 0.03611800 -0.02394400 0.02852900
v 0.03650200 -0.02976700 0.03390600
v 0.04008300 -0.03011500 0.03243800
v -0.03960600 -0.02934600 0.03336100
v -0.02652700 -0.03829600 0.03525400
v -0.03855700 -0.02813500 0.03175200
v 0.03499800 0.04472000 0.03155100
v 0.03633800 -0.02943000 -0.03317900
v 0.03163800 -0.03437300 -0.03275900
v 0.03137700 -0.03889500 -0.02804800
v 0.02966300 -0.03441200 -0.03120300
v 0.04297200 -0.04399000 -0.03527300
v 0.03712400 -0.02537000 -0.03525400
v 0.03494900 0.04465100 -0.03155400
v -0.03239400 -0.04263100 -0.02227600
v -0.02652700 -0.03829600 -0.03525400
v -0.02728900 -0.03451600 -0.02532500
v 0.03163800 -0.03437300 0.03275900
v 0.02966300 -0.03441200 0.03120300
v 0.03632500 -0.02941100 0.03323300
v -0.03855600 -0.02815200 -0.03176100
v 0.04297200 -0.04399000 0.03527300
v 0.03712400 -0.02537000 0.03525400
v -0.03962500 -0.02934700 -0.03323900
v -0.03865600 -0.04263100 -0.02853700
v 0.03700200 -0.02974300 -0.03340400
v -0.04012700 -0.02948200 0.03313800
v -0.02603000 -0.04713200 0.03610700
v 0.03474800 0.04484000 0.03226100
v -0.03858700 -0.02833100 0.03213800
v -0.03398700 -0.03441200 0.03120300
v -0.02857100 -0.04027700 0.03065200
v -0.02356700 -0.04304200 0.03243800
v 0.03495200 0.04401900 0.03168800
v -0.03809300 0.04484900 -0.03215600
v 0.03125600 -0.04263100 -0.02227600
v 0.03267400 -0.03597000 -0.03440400
v 0.03390700 -0.04622600 -0.02230400
v 0.03060100 -0.03926000 -0.02790900
v -0.02067800 -0.04399000 0.03527300
v -0.02735200 -0.04356000 0.04107700
v -0.03850400 -0.04334100 0.03106500
v -0.02675300 -0.03226300 0.03241100
v -0.02758400 -0.03043300 0.03085700
v -0.03201200 -0.03437300 0.03275900
v -0.03008200 -0.02945300 0.03839800
v -0.02356700 -0.03011500 0.03243800
v -0.02869800 -0.02398700 0.03219500
v -0.02435400 -0.03623700 0.02851000
v 0.02514600 -0.04622600 -0.03106500
v -0.03266200 -0.03907700 0.02797900
v 0.03612400 0.04075800 0.02853300
v -0.02991800 -0.03872100 0.02905100
v -0.02974300 -0.04334100 0.02230400
v -0.03812800 -0.02825000 0.03231700
v 0.03606600 -0.03043300 -0.03085700
v 0.03356800 -0.03494200 -0.03705800
v 0.03484800 -0.03254000 -0.04005400
v 0.04008300 -0.03560300 -0.03109800
v -0.03008200 -0.04238000 0.03839800
v -0.02974300 -0.04622600 0.03106500
v 0.03476800 -0.02820400 -0.03212700
v 0.03812800 0.04576600 0.03542600
v 0.03840300 -0.02845700 -0.03691000
v 0.04136300 -0.03320200 -0.03409500
v -0.03874900 0.04515500 -0.03227600
v 0.03535100 0.04518400 0.03234600
v 0.03139600 -0.02498300 -0.03243800
v -0.02974300 -0.04622600 0.02230400
v -0.04297200 0.04688900 -0.03560300
v -0.02974300 -0.04334100 0.03106500
v 0.03862700 0.04574800 0.03492300
v 0.03495200 -0.02724000 -0.03159100
v 0.03786800 0.04543700 0.03463500
v -0.04217900 0.04574800 -0.03480700
v 0.03917400 0.04713200 0.03579600
v 0.03139600 -0.02807000 -0.03243800
v -0.04113000 0.04540600 -0.03460000
v -0.04272600 0.04713200 -0.03567900
v 0.03495200 -0.02721600 0.03169700
v -0.03239400 -0.04263100 -0.02853700
v -0.02974300 -0.04334100 -0.03106500
v -0.03242100 -0.03665300 -0.02225100
v -0.04297200 0.04688900 0.03572000
v -0.02869800 -0.02564500 -0.02937900
v 0.03862700 0.04574800 -0.03480700
v -0.04118500 0.04540700 0.03472600
v -0.04217900 0.04574800 0.03492300
v 0.03139600 -0.02807000 0.03243800
v 0.03918000 0.04713200 -0.03568600
v -0.04272600 0.04713200 0.03579600
v -0.03863000 -0.03649600 -0.02856200
v -0.03858000 -0.04298600 -0.02229000
v 0.03794100 0.04544800 -0.03454500
v -0.02941500 -0.03029200 -0.02913100
v 0.03495200 0.04399500 -0.03156100
v -0.03810200 0.04486800 0.03228000
v 0.03267400 -0.03597000 0.03440400
v -0.03398700 -0.03441200 -0.03120300
v -0.03266200 -0.03907700 -0.02797900
v -0.02857100 -0.04027700 -0.03065200
v -0.02067800 -0.04399000 -0.03527300
v 0.03474400 0.04497100 -0.03222900
v -0.03859800 -0.02846300 -0.03215900
v -0.02603000 -0.04713200 -0.03610700
v -0.02735200 -0.04356000 -0.04107700
v -0.02356700 -0.04304200 -0.03243800
v -0.04023300 -0.02954700 -0.03311600
v -0.02652700 -0.03085900 0.03391400
v -0.03850400 -0.04622600 0.03106500
v -0.03097600 -0.03597000 0.03440400
v 0.04008300 -0.04304200 -0.03243800
v 0.03600700 -0.02435800 -0.02827400
v -0.02869800 -0.02873200 0.02937900
v -0.03850400 -0.04622600 0.02230400
v -0.02534400 -0.03456200 0.02690500
v 0.02565000 -0.03388900 -0.02290400
v -0.03239400 -0.04263100 0.02227600
v -0.03865600 -0.04263100 0.02853700
v -0.02728900 -0.03451600 0.02532500
v -0.02869800 -0.02564500 0.02937900
v -0.03239400 -0.04263100 0.02853700
v -0.03858000 -0.04298600 0.02229000
v -0.03863000 -0.03649600 0.02856200
v -0.03242100 -0.03665300 0.02225100
v -0.02941500 -0.03029200 0.02913100
v -0.03850400 -0.04622600 -0.03106500
v -0.02974300 -0.04622600 -0.02230400
v -0.02652700 -0.03085900 -0.03391400
v 0.04008300 -0.04304200 0.03243800
v -0.03097600 -0.03597000 -0.03440400
v -0.02524700 -0.02845700 -0.03691000
v -0.02356700 -0.03560300 -0.03109800
v 0.03390700 -0.04622600 0.03106500
v -0.03850400 0.04479000 -0.03176900
v -0.03225400 -0.02498300 0.03243800
v 0.03505000 -0.02810700 -0.03155400
v -0.02712300 -0.04712500 0.03558200
v 0.03689800 -0.03226300 -0.03241100
v -0.04172900 0.04548100 -0.03454200
v 0.03495200 -0.02398700 0.03219500
v -0.02228700 -0.03320200 -0.03409500
v -0.03800100 -0.03388900 -0.02290400
v -0.02880300 -0.03254000 -0.04005400
v 0.02507000 -0.04298600 -0.02229000
v 0.02502100 -0.03649600 -0.02856200
v 0.03495200 -0.02535100 0.02944200
v 0.03508000 -0.04027700 -0.03065200
v 0.03652700 -0.04712500 -0.03558200
v 0.03762000 -0.04713200 -0.03610700
v 0.02502100 -0.03649600 0.02856200
v 0.02507000 -0.04298600 0.02229000
v -0.02356700 -0.03560300 0.03109800
v 0.03390700 -0.04622600 -0.03106500
v -0.02524700 -0.02845700 0.03691000
v 0.03600800 0.04117200 0.02839000
v 0.02514600 -0.04622600 -0.02230400
v 0.03495200 -0.02398700 -0.03219500
vn 0.06625243 0.96968084 -0.23522262
vn -0.59105635 0.48381689 -0.64542513
vn 0.84876969 -0.50825717 0.14582410
vn -0.89010037 0.20344675 -0.40783666
vn 0.98441936 0.12020719 0.12833063
vn 0.06191895 0.97172199 0.22786490
vn 0.06408586 0.97068707 -0.23164546
vn -0.06077506 0.99180087 -0.11241627
vn 0.89759075 -0.12970020 -0.42131781
vn 0.77049244 0.10421387 -0.62887269
vn 0.53025590 0.04760518 -0.84650011
vn -0.60037395 -0.51265846 -0.61378533
vn 0.90600626 -0.12640236 -0.40394938
vn -0.94821549 -0.16990282 0.26836618
vn -0.92693863 -0.29257601 0.23491288
vn 0.83848613 0.52034744 -0.16180100
vn -0.39299394 -0.90785403 -0.14613973
vn 0.17421938 -0.97886120 0.10713714
vn -0.47878125 -0.64740022 -0.59299365
vn -0.57224063 -0.58397632 -0.57577106
vn -0.39995321 0.81897660 -0.41147876
vn 0.98353377 0.12854927 -0.12702918
vn 0.60289596 0.52358607 0.60197515
vn -0.19150001 -0.45270404 0.87085406
vn 0.60716140 0.67063376 -0.42615185
vn -0.89010037 0.20344675 0.40783666
vn -0.77630609 -0.25886906 -0.57474835
vn -0.13081625 -0.84020743 -0.52624955
vn -0.69515785 -0.29160641 0.65705499
vn -0.41558535 -0.70818997 0.57075020
vn 0.28869661 -0.90862542 0.30175174
vn 0.62633742 -0.39949524 0.66940645
vn -0.42867113 -0.55551590 -0.71249081
vn 0.34646240 0.86043046 -0.37366192
vn 0.46319294 0.09438811 0.88121688
vn -0.55353062 0.31869131 0.76944116
vn -0.47045402 0.70220730 -0.53439490
vn 0.69424683 0.54603731 0.46889722
vn 0.64338167 -0.02985575 0.76496317
vn -0.57010062 0.61252185 -0.54754202
vn -0.06077506 0.99180087 0.11241627
vn -0.39424868 0.82002810 0.41487576
vn -0.19150001 -0.45270404 -0.87085406
vn 0.60716140 0.67063376 0.42615185
vn 0.89759075 -0.12970020 0.42131781
vn 0.60289596 0.52358607 -0.60197515
vn -0.30119844 0.83470660 0.46102537
vn 0.84418026 0.37629654 0.38178607
vn 0.12907098 0.61294801 -0.77950973
vn 0.64002618 0.49024390 0.59163114
vn 0.64332024 -0.02982657 0.76501597
vn 0.53025590 0.04760518 0.84650011
vn 0.96561943 0.25267367 -0.06111572
vn 0.77049244 0.10421387 0.62887269
vn -0.59950745 -0.52452105 0.60453990
vn -0.24053829 0.16665695 0.95622528
vn 0.99401878 0.02126598 0.10711870
vn -0.92693863 -0.29257601 -0.23491288
vn -0.94821549 -0.16990282 -0.26836618
vn 0.31626840 -0.94809584 0.03299369
vn 0.51659189 0.54870224 0.65731170
vn 0.57735027 -0.57735027 -0.57735027
vn -0.94675871 -0.16599330 -0.27585171
vn -0.84591603 0.38403344 -0.37005998
vn -0.59969625 -0.52163519 0.60684523
vn 0.31593705 0.91074672 0.26594019
vn -0.42676227 -0.85890911 0.28310618
vn -0.32393496 -0.88682109 0.32956713
vn 0.61447365 0.48221894 0.62440935
vn 0.77049432 0.10420801 0.62887137
vn -0.24030568 0.16663354 0.95628785
vn 0.11471043 -0.06318724 -0.99138736
vn 0.96561308 0.25268787 -0.06115735
vn 0.37325950 -0.76903603 -0.51890359
vn -0.57007565 0.61253396 -0.54755448
vn -0.57224063 -0.58397632 0.57577106
vn -0.92693426 -0.29260448 -0.23489464
vn -0.26879787 0.49174239 -0.82821321
vn 0.98068235 -0.18415812 0.06593877
vn -0.98992687 -0.13784447 -0.03230624
vn -0.84591603 0.38403344 0.37005998
vn -0.33597631 -0.93997492 0.05972500
vn 0.52126050 0.58432342 0.62197559
vn -0.39298506 -0.90785951 0.14612957
vn -0.59105635 0.48381689 0.64542513
vn 0.78215765 0.17899244 0.59681749
vn 0.70860576 0.70204911 0.07074551
vn -0.53067828 0.66872219 0.52076020
vn 0.06625243 0.96968084 0.23522262
vn 0.37701815 0.29139408 -0.87917393
vn 0.89247108 0.23679647 -0.38395678
vn -0.42531211 0.83015305 -0.36049344
vn -0.44227964 0.24778208 -0.86197028
vn 0.54051466 -0.21231987 0.81410330
vn 0.57763746 -0.57748566 -0.57692744
vn 0.62154742 0.35742991 -0.69708154
vn 0.69889961 0.59987232 -0.38947725
vn -0.42574602 0.48061748 -0.76664670
vn 0.16554743 -0.96960942 0.18014332
vn 0.67354497 0.60094843 0.43034655
vn 0.97054936 0.21059561 0.11697619
vn -0.42012332 0.90534108 0.06207993
vn -0.36457409 0.41956737 0.83129354
vn -0.49326585 -0.19149473 0.84853908
vn -0.57735027 -0.57735027 0.57735027
vn 0.58955674 -0.62098044 0.51653282
vn 0.96581858 -0.24022436 0.09739982
vn -0.45328592 0.14003286 0.88029693
vn -0.30019432 -0.52237154 0.79812991
vn -0.42007306 -0.90536725 0.06203842
vn -0.72035789 -0.11651070 0.68374686
vn 0.46319294 0.09438811 -0.88121688
vn 0.34646240 0.86043046 0.37366192
vn 0.87858363 -0.28558859 -0.38279232
vn -0.44863275 -0.29204369 -0.84465326
vn -0.42564773 -0.83005673 -0.36031908
vn -0.15658495 -0.94784089 -0.27763068
vn 0.68906136 -0.61390931 -0.38511012
vn 0.61464717 -0.38753170 -0.68704296
vn -0.43902303 -0.48941263 -0.75348129
vn 0.64002618 0.49024390 -0.59163114
vn 0.68856279 -0.72321066 0.05336318
vn 0.75344081 -0.23317489 0.61478161
vn -0.51841374 -0.64914386 0.55665021
vn 0.64002618 0.49024390 0.59163114
vn -0.13103200 -0.95367301 0.27081064
vn 0.90425483 0.12656789 -0.40780360
vn -0.55350560 0.31872746 -0.76944419
vn -0.63155661 0.21935778 -0.74365208
vn -0.59105635 0.48381689 -0.64542513
vn 0.52113765 0.58426824 -0.62213035
vn 0.31599472 0.91071845 -0.26596849
vn 0.84155365 0.38091349 0.38300440
vn -0.46540193 0.71631048 0.51990417
vn 0.64338167 -0.02985575 -0.76496317
vn -0.15658495 -0.94784089 0.27763068
vn -0.55353062 0.31869131 -0.76944116
vn 0.68033227 0.53596586 -0.49988859
vn -0.77630609 -0.25886906 0.57474835
vn 0.63056887 -0.40737247 -0.66062892
vn -0.69919155 -0.29613479 -0.65071912
vn -0.06499206 -0.82512071 0.56120571
vn -0.39068383 -0.73243069 -0.55759432
vn 0.89761689 -0.12970449 0.42126079
vn -0.43329249 -0.56126536 0.70515162
vn 0.18559833 -0.90206756 -0.38965033
vn -0.13305218 0.74010423 -0.65919863
vn 0.64332024 -0.02982657 -0.76501597
vn 0.90414111 -0.13215974 0.40627904
vn 0.13794901 0.59628102 0.79083438
vn 0.84314938 0.37788489 -0.38249461
vn -0.21141169 0.86169388 0.46129031
vn -0.43281742 0.81129401 -0.39302813
vn -0.99761283 0.06421296 -0.02540366
vn 0.91922010 -0.37178620 0.12965121
vn 0.29611509 0.89744662 -0.32696394
vn -0.63829433 0.21437250 -0.73934077
vn 0.16554743 -0.96960942 -0.18014332
vn -0.62411789 0.18768525 -0.75845310
vn 0.85581220 -0.50659317 0.10463667
vn 0.60375402 0.66814948 -0.43480725
vn 0.92946160 -0.33503783 -0.15443701
vn 0.37702442 0.29144707 0.87915368
vn -0.43281742 0.81129401 0.39302813
vn 0.53093880 0.04852734 0.84601955
vn -0.63829433 0.21437250 0.73934077
vn -0.62411789 0.18768525 0.75845310
vn 0.35412942 0.89128083 0.28321517
vn -0.80473927 0.48204836 -0.34644493
vn 0.85581220 -0.50659317 -0.10463667
vn 0.60454016 0.66915386 0.43216235
vn -0.20511415 0.84977438 -0.48560446
vn -0.89140593 0.19933368 -0.40701543
vn 0.75909263 0.62178289 -0.19278076
vn -0.63093417 0.76075708 0.15221941
vn 0.17421938 -0.97886120 0.10713714
vn 0.41553084 -0.74884682 0.51629697
vn -0.69464296 0.61462274 0.37377808
vn -0.62688983 0.20384526 0.75196825
vn -0.47891187 -0.64737208 -0.59291889
vn 0.37488956 -0.45043660 -0.81028679
vn 0.98040561 -0.01808799 0.19615722
vn -0.21963204 -0.30705319 -0.92600222
vn 0.37701815 0.29139408 0.87917393
vn -0.74298163 0.15427310 -0.65128957
vn 0.57763746 -0.57748566 0.57692744
vn 0.54051466 -0.21231987 -0.81410330
vn 0.85583150 -0.50656793 -0.10460099
vn -0.19147826 -0.45271178 0.87085482
vn -0.59105635 0.48381689 0.64542513
vn 0.52113765 0.58426824 0.62213035
vn 0.31599472 0.91071845 0.26596849
vn -0.63155661 0.21935778 0.74365208
vn -0.55350560 0.31872746 0.76944419
vn 0.84155365 0.38091349 -0.38300440
vn -0.72035789 -0.11651070 -0.68374686
vn 0.89761689 -0.12970449 -0.42126079
vn -0.57735027 -0.57735027 -0.57735027
vn 0.50877010 -0.55415546 0.65883587
vn 0.90488737 0.12748889 0.40611013
vn -0.13103200 -0.95367301 -0.27081064
vn 0.64002618 0.49024390 -0.59163114
vn -0.15874659 0.41333884 0.89663288
vn 0.31593705 0.91074672 -0.26594019
vn -0.94659261 -0.16549784 0.27671809
vn -0.24030568 0.16663354 -0.95628785
vn 0.11244577 -0.06297987 0.99165996
vn -0.92693426 -0.29260448 0.23489464
vn 0.57735027 -0.57735027 0.57735027
vn 0.34887319 0.52553802 -0.77594928
vn 0.26946548 -0.72430052 0.63464723
vn 0.61447365 0.48221894 -0.62440935
vn 0.96561308 0.25268787 0.06115735
vn -0.18081389 -0.96843807 -0.17156354
vn 0.39950717 -0.90506567 -0.14577432
vn -0.84591603 0.38403344 0.37005998
vn 0.57763746 -0.57748566 -0.57692744
vn -0.86448336 -0.03377177 -0.50152565
vn 0.60289596 0.52358607 0.60197515
vn 0.52050739 -0.79504528 0.31140818
vn 0.97567465 0.04680840 -0.21416804
vn 0.22786959 -0.96684386 0.11527532
vn -0.61826384 -0.73754079 -0.27163101
vn 0.63702201 0.50576094 0.58172918
vn -0.77156166 -0.26684691 0.57748189
vn -0.07245388 -0.99035663 -0.11808551
vn -0.33032826 0.65828796 -0.67641718
vn 0.99239187 0.01027899 0.12268954
vn 0.35682288 0.85139604 -0.38445054
vn 0.60289596 0.52358607 -0.60197515
vn 0.46018563 0.09687860 0.88252123
vn -0.85940616 -0.03466840 0.51011680
vn -0.30113705 0.46338439 0.83342149
vn 0.52484652 -0.79268037 -0.31015152
vn -0.06895947 -0.98697807 0.14532335
vn -0.53491708 -0.77521034 0.33602476
vn -0.77167781 -0.26620723 -0.57762190
vn 0.63158340 0.50293859 -0.59004677
vn -0.32848944 0.65198561 0.68338090
vn -0.76372457 0.22742763 -0.60415350
vn -0.70376244 0.01925614 0.71017436
vn 0.24575095 -0.95897006 -0.14136088
vn -0.06076889 0.99180097 0.11241874
vn 0.21041619 0.00840610 -0.97757576
vn 0.02682042 -0.12883330 0.99130351
vn -0.74298163 0.15427310 0.65128957
vn -0.62688983 0.20384526 -0.75196825
vn 0.50877010 -0.55415546 -0.65883587
vn -0.47891187 -0.64737208 0.59291889
vn 0.85583150 -0.50656793 0.10460099
vn 0.31435195 -0.77987789 -0.54127011
vn -0.23733279 0.82530551 -0.51239044
vn 0.17421938 -0.97886120 -0.10713714
vn -0.19147826 -0.45271178 -0.87085482
vn 0.37488956 -0.45043660 0.81028679
vn -0.67255497 0.72033813 -0.16965491
vn -0.58362568 -0.38028105 -0.71747291
vn -0.57735027 -0.57735027 0.57735027
vn -0.74297863 0.15429109 0.65128874
vn 0.37487738 -0.44938005 0.81087886
vn 0.84733243 -0.50725588 -0.15722351
vn -0.59969625 -0.52163519 -0.60684523
vn -0.57224063 -0.58397632 -0.57577106
vn 0.77049432 0.10420801 -0.62887137
vn -0.57007565 0.61253396 0.54755448
vn 0.37702442 0.29144707 -0.87915368
vn -0.89140593 0.19933368 0.40701543
vn 0.53093880 0.04852734 -0.84601955
vn -0.30113705 0.46338439 -0.83342149
vn 0.35682288 0.85139604 0.38445054
vn -0.70376244 0.01925614 -0.71017436
vn -0.76372457 0.22742763 0.60415350
vn 0.46018563 0.09687860 -0.88252123
vn -0.06076889 0.99180097 -0.11241874
vn -0.57735027 -0.57735027 -0.57735027
vn 0.57763746 -0.57748566 0.57692744
vn -0.58362568 -0.38028105 0.71747291
vn 0.37487860 -0.44954754 -0.81078544
vn -0.74297863 0.15429109 -0.65128874
vn 0.61445763 0.48227891 -0.62437879
vn 0.12579464 -0.06285177 0.99006331
vn 0.57735027 -0.57735027 0.57735027
vn -0.86297230 -0.40490799 -0.30220576
vn -0.84591603 0.38403344 -0.37005998
vn 0.86350215 0.46342859 -0.19899242
vn -0.39298506 -0.90785951 -0.14612957
vn 0.52126050 0.58432342 -0.62197559
vn -0.32491154 -0.93373909 -0.15021251
vn -0.72026663 -0.12115534 -0.68303540
vn 0.96561943 0.25267367 0.06111572
vn -0.57010062 0.61252185 0.54754202
vn -0.24053829 0.16665695 -0.95622528
vn -0.70377695 0.01929990 0.71015879
vn -0.76091203 0.22448074 -0.60878673
vn 0.99295501 0.01452426 -0.11759845
vn -0.47878125 -0.64740022 0.59299365
vn -0.39299394 -0.90785403 0.14613973
vn 0.17421938 -0.97886120 -0.10713714
vn -0.76091203 0.22448074 0.60878673
vn -0.70377695 0.01929990 -0.71015879
vn 0.12579464 -0.06285177 -0.99006331
vn 0.57735027 -0.57735027 -0.57735027
vn 0.61445763 0.48227891 0.62437879
vn 0.83751780 0.52174575 0.16231238
vn -0.57224063 -0.58397632 0.57577106
vn -0.72018707 -0.12140648 0.68307470
f 65//65 281//281 133//133
f 81//81 139//139 111//111
f 280//280 148//148 254//254
f 77//77 14//14 292//292
f 70//70 243//243 165//165
f 144//144 131//131 132//132
f 77//77 279//279 131//131
f 143//143 289//289 72//72
f 129//129 126//126 248//248
f 77//77 84//84 279//279
f 25//25 89//89 233//233
f 291//291 231//231 243//243
f 195//195 269//269 44//44
f 107//107 101//101 123//123
f 247//247 248//248 240//240
f 291//291 163//163 231//231
f 8//8 11//11 112//112
f 231//231 165//165 243//243
f 281//281 255//255 250//250
f 200//200 127//127 304//304
f 173//173 248//248 229//229
f 130//130 241//241 173//173
f 125//125 230//230 163//163
f 65//65 133//133 233//233
f 180//180 286//286 259//259
f 130//130 173//173 229//229
f 62//62 76//76 275//275
f 125//125 241//241 276//276
f 62//62 275//275 230//230
f 130//130 230//230 275//275
f 179//179 199//199 193//193
f 213//213 207//207 160//160
f 62//62 276//276 76//76
f 183//183 283//283 214//214
f 9//9 10//10 66//66
f 56//56 189//189 303//303
f 52//52 158//158 136//136
f 125//125 276//276 62//62
f 191//191 153//153 197//197
f 188//188 176//176 286//286
f 196//196 27//27 284//284
f 95//95 300//300 121//121
f 208//208 259//259 286//286
f 207//207 260//260 160//160
f 7//7 289//289 64//64
f 28//28 33//33 74//74
f 249//249 279//279 84//84
f 302//302 50//50 186//186
f 166//166 66//66 167//167
f 242//242 226//226 146//146
f 2//2 305//305 293//293
f 65//65 89//89 111//111
f 98//98 88//88 92//92
f 183//183 78//78 283//283
f 231//231 163//163 229//229
f 28//28 74//74 146//146
f 63//63 71//71 36//36
f 77//77 292//292 254//254
f 32//32 140//140 224//224
f 9//9 66//66 83//83
f 141//141 30//30 143//143
f 264//264 274//274 192//192
f 9//9 278//278 19//19
f 206//206 212//212 43//43
f 267//267 190//190 270//270
f 15//15 71//71 63//63
f 3//3 295//295 261//261
f 206//206 205//205 137//137
f 21//21 143//143 278//278
f 217//217 209//209 263//263
f 42//42 287//287 45//45
f 81//81 89//89 128//128
f 294//294 158//158 187//187
f 6//6 216//216 306//306
f 223//223 82//82 236//236
f 300//300 85//85 26//26
f 73//73 72//72 151//151
f 220//220 32//32 222//222
f 281//281 277//277 255//255
f 219//219 266//266 270//270
f 268//268 273//273 274//274
f 198//198 46//46 302//302
f 25//25 128//128 89//89
f 42//42 205//205 58//58
f 25//25 233//233 133//133
f 206//206 137//137 161//161
f 25//25 292//292 128//128
f 5//5 295//295 149//149
f 306//306 30//30 207//207
f 152//152 150//150 168//168
f 172//172 169//169 252//252
f 281//281 290//290 133//133
f 184//184 265//265 293//293
f 173//173 240//240 248//248
f 145//145 236//236 82//82
f 179//179 193//193 192//192
f 95//95 121//121 282//282
f 122//122 114//114 107//107
f 65//65 111//111 281//281
f 20//20 300//300 95//95
f 166//166 117//117 246//246
f 185//185 157//157 287//287
f 299//299 167//167 75//75
f 171//171 71//71 69//69
f 208//208 286//286 176//176
f 100//100 86//86 87//87
f 253//253 84//84 77//77
f 185//185 296//296 136//136
f 119//119 96//96 114//114
f 253//253 77//77 254//254
f 6//6 55//55 57//57
f 250//250 254//254 148//148
f 90//90 113//113 23//23
f 262//262 1//1 269//269
f 207//207 30//30 260//260
f 129//129 247//247 132//132
f 129//129 131//131 279//279
f 9//9 19//19 10//10
f 201//201 193//193 199//199
f 10//10 117//117 11//11
f 291//291 243//243 247//247
f 299//299 75//75 300//300
f 64//64 289//289 237//237
f 166//166 99//99 117//117
f 291//291 247//247 240//240
f 101//101 87//87 86//86
f 112//112 11//11 94//94
f 40//40 274//274 273//273
f 120//120 118//118 116//116
f 159//159 265//265 41//41
f 115//115 93//93 119//119
f 255//255 277//277 164//164
f 272//272 271//271 267//267
f 93//93 98//98 91//91
f 206//206 58//58 205//205
f 185//185 58//58 297//297
f 268//268 264//264 201//201
f 143//143 72//72 278//278
f 219//219 270//270 190//190
f 191//191 193//193 259//259
f 49//49 156//156 138//138
f 253//253 254//254 250//250
f 298//298 160//160 297//297
f 202//202 209//209 217//217
f 154//154 80//80 169//169
f 72//72 289//289 12//12
f 143//143 134//134 29//29
f 219//219 258//258 209//209
f 93//93 103//103 88//88
f 208//208 176//176 189//189
f 57//57 295//295 79//79
f 142//142 222//222 31//31
f 120//120 116//116 124//124
f 102//102 92//92 88//88
f 166//166 167//167 99//99
f 81//81 128//128 14//14
f 43//43 160//160 298//298
f 183//183 251//251 210//210
f 237//237 143//143 63//63
f 249//249 144//144 70//70
f 159//159 158//158 294//294
f 180//180 197//197 181//181
f 8//8 75//75 167//167
f 191//191 197//197 192//192
f 103//103 86//86 100//100
f 198//198 302//302 305//305
f 154//154 169//169 178//178
f 129//129 248//248 247//247
f 214//214 82//82 288//288
f 143//143 38//38 150//150
f 107//107 91//91 101//101
f 263//263 209//209 258//258
f 122//122 124//124 110//110
f 158//158 157//157 136//136
f 305//305 186//186 293//293
f 195//195 303//303 53//53
f 130//130 76//76 241//241
f 107//107 114//114 91//91
f 197//197 153//153 181//181
f 52//52 136//136 54//54
f 223//223 145//145 33//33
f 48//48 207//207 213//213
f 206//206 43//43 58//58
f 172//172 256//256 169//169
f 108//108 103//103 93//93
f 212//212 213//213 135//135
f 301//301 53//53 188//188
f 162//162 155//155 5//5
f 97//97 87//87 101//101
f 43//43 212//212 135//135
f 132//132 247//247 243//243
f 73//73 69//69 39//39
f 97//97 98//98 92//92
f 37//37 29//29 134//134
f 6//6 57//57 161//161
f 115//115 120//120 109//109
f 215//215 242//242 222//222
f 71//71 24//24 69//69
f 122//122 110//110 116//116
f 241//241 240//240 173//173
f 179//179 192//192 274//274
f 106//106 123//123 124//124
f 200//200 5//5 149//149
f 223//223 33//33 288//288
f 223//223 288//288 82//82
f 198//198 2//2 46//46
f 263//263 258//258 190//190
f 45//45 54//54 296//296
f 180//180 201//201 264//264
f 151//151 72//72 12//12
f 302//302 186//186 305//305
f 301//301 195//195 53//53
f 107//107 123//123 106//106
f 122//122 106//106 124//124
f 172//172 252//252 78//78
f 112//112 94//94 113//113
f 120//120 124//124 109//109
f 178//178 152//152 203//203
f 242//242 251//251 226//226
f 68//68 235//235 82//82
f 17//17 19//19 278//278
f 306//306 207//207 55//55
f 179//179 40//40 272//272
f 270//270 266//266 273//273
f 191//191 192//192 193//193
f 97//97 92//92 87//87
f 142//142 235//235 222//222
f 191//191 208//208 153//153
f 142//142 67//67 235//235
f 250//250 148//148 290//290
f 174//174 38//38 138//138
f 208//208 56//56 59//59
f 217//217 263//263 271//271
f 115//115 108//108 93//93
f 51//51 189//189 188//188
f 179//179 272//272 199//199
f 122//122 107//107 106//106
f 261//261 13//13 149//149
f 113//113 85//85 23//23
f 115//115 119//119 114//114
f 105//105 282//282 23//23
f 237//237 289//289 143//143
f 228//228 79//79 295//295
f 281//281 250//250 290//290
f 156//156 210//210 285//285
f 42//42 58//58 287//287
f 37//37 141//141 29//29
f 202//202 271//271 266//266
f 74//74 140//140 146//146
f 8//8 66//66 10//10
f 20//20 85//85 300//300
f 219//219 190//190 258//258
f 109//109 124//124 123//123
f 123//123 101//101 86//86
f 115//115 109//109 104//104
f 110//110 124//124 116//116
f 20//20 95//95 282//282
f 184//184 35//35 265//265
f 183//183 210//210 78//78
f 225//225 30//30 306//306
f 9//9 21//21 278//278
f 112//112 90//90 75//75
f 301//301 181//181 257//257
f 301//301 257//257 196//196
f 47//47 134//134 150//150
f 113//113 26//26 85//85
f 155//155 182//182 5//5
f 4//4 2//2 293//293
f 270//270 273//273 199//199
f 97//97 91//91 98//98
f 38//38 168//168 150//150
f 152//152 47//47 150//150
f 6//6 161//161 137//137
f 264//264 192//192 197//197
f 65//65 233//233 89//89
f 3//3 149//149 295//295
f 159//159 294//294 265//265
f 180//180 259//259 201//201
f 15//15 21//21 83//83
f 96//96 93//93 91//91
f 73//73 170//170 72//72
f 19//19 246//246 117//117
f 130//130 275//275 76//76
f 57//57 285//285 221//221
f 104//104 86//86 108//108
f 81//81 111//111 89//89
f 44//44 56//56 303//303
f 108//108 86//86 103//103
f 7//7 64//64 36//36
f 61//61 203//203 152//152
f 242//242 146//146 140//140
f 52//52 35//35 187//187
f 299//299 94//94 99//99
f 151//151 295//295 171//171
f 122//122 118//118 114//114
f 249//249 255//255 144//144
f 151//151 12//12 295//295
f 296//296 54//54 136//136
f 128//128 292//292 14//14
f 268//268 199//199 273//273
f 170//170 39//39 24//24
f 93//93 88//88 98//98
f 17//17 15//15 246//246
f 215//215 60//60 242//242
f 154//154 68//68 80//80
f 241//241 76//76 276//276
f 223//223 236//236 145//145
f 183//183 214//214 251//251
f 249//249 84//84 255//255
f 184//184 50//50 46//46
f 267//267 271//271 190//190
f 105//105 23//23 85//85
f 8//8 10//10 11//11
f 253//253 250//250 84//84
f 68//68 245//245 177//177
f 174//174 156//156 168//168
f 205//205 225//225 216//216
f 17//17 246//246 19//19
f 15//15 24//24 71//71
f 201//201 259//259 193//193
f 267//267 270//270 199//199
f 63//63 143//143 21//21
f 70//70 132//132 243//243
f 121//121 23//23 282//282
f 162//162 221//221 210//210
f 202//202 219//219 209//209
f 294//294 187//187 4//4
f 1//1 44//44 269//269
f 7//7 36//36 171//171
f 194//194 56//56 44//44
f 24//24 39//39 69//69
f 200//200 149//149 127//127
f 34//34 4//4 187//187
f 180//180 181//181 286//286
f 142//142 145//145 67//67
f 239//239 224//224 238//238
f 104//104 109//109 123//123
f 222//222 68//68 177//177
f 177//177 61//61 182//182
f 15//15 83//83 246//246
f 281//281 111//111 277//277
f 48//48 55//55 207//207
f 177//177 182//182 155//155
f 185//185 297//297 296//296
f 31//31 32//32 211//211
f 125//125 62//62 230//230
f 244//244 22//22 221//221
f 115//115 104//104 108//108
f 142//142 31//31 145//145
f 268//268 201//201 199//199
f 179//179 274//274 40//40
f 51//51 53//53 303//303
f 15//15 63//63 21//21
f 57//57 221//221 22//22
f 204//204 287//287 157//157
f 33//33 238//238 140//140
f 52//52 41//41 35//35
f 49//49 30//30 141//141
f 184//184 46//46 34//34
f 73//73 39//39 170//170
f 17//17 278//278 170//170
f 191//191 259//259 208//208
f 36//36 71//71 171//171
f 17//17 170//170 18//18
f 194//194 59//59 56//56
f 15//15 18//18 24//24
f 122//122 116//116 118//118
f 147//147 156//156 49//49
f 227//227 238//238 33//33
f 99//99 11//11 117//117
f 249//249 70//70 126//126
f 178//178 203//203 245//245
f 8//8 112//112 75//75
f 78//78 169//169 283//283
f 194//194 1//1 284//284
f 126//126 165//165 248//248
f 213//213 160//160 135//135
f 81//81 14//14 139//139
f 7//7 295//295 12//12
f 159//159 157//157 158//158
f 16//16 22//22 304//304
f 37//37 172//172 147//147
f 162//162 210//210 251//251
f 97//97 101//101 91//91
f 77//77 164//164 14//14
f 8//8 167//167 66//66
f 18//18 170//170 24//24
f 103//103 100//100 88//88
f 272//272 40//40 271//271
f 145//145 82//82 67//67
f 74//74 33//33 140//140
f 200//200 304//304 5//5
f 48//48 57//57 55//55
f 202//202 266//266 219//219
f 90//90 121//121 300//300
f 28//28 226//226 288//288
f 249//249 126//126 279//279
f 34//34 187//187 35//35
f 34//34 2//2 4//4
f 143//143 150//150 134//134
f 166//166 246//246 83//83
f 113//113 94//94 26//26
f 224//224 140//140 238//238
f 227//227 232//232 239//239
f 37//37 256//256 172//172
f 35//35 41//41 265//265
f 166//166 83//83 66//66
f 185//185 136//136 157//157
f 299//299 300//300 26//26
f 115//115 118//118 120//120
f 159//159 204//204 157//157
f 34//34 46//46 2//2
f 145//145 32//32 239//239
f 205//205 30//30 225//225
f 178//178 175//175 152//152
f 7//7 12//12 289//289
f 222//222 235//235 68//68
f 59//59 27//27 257//257
f 48//48 212//212 161//161
f 42//42 30//30 205//205
f 9//9 83//83 21//21
f 59//59 284//284 27//27
f 235//235 67//67 82//82
f 37//37 147//147 49//49
f 304//304 22//22 5//5
f 280//280 292//292 25//25
f 130//130 229//229 230//230
f 277//277 139//139 14//14
f 37//37 134//134 256//256
f 280//280 133//133 290//290
f 57//57 79//79 285//285
f 225//225 306//306 216//216
f 220//220 242//242 234//234
f 45//45 296//296 260//260
f 5//5 182//182 295//295
f 96//96 91//91 114//114
f 294//294 4//4 293//293
f 43//43 298//298 58//58
f 115//115 114//114 118//118
f 58//58 298//298 297//297
f 3//3 261//261 149//149
f 99//99 94//94 11//11
f 220//220 222//222 242//242
f 144//144 132//132 70//70
f 177//177 203//203 61//61
f 206//206 161//161 212//212
f 48//48 213//213 212//212
f 68//68 214//214 80//80
f 48//48 161//161 57//57
f 159//159 41//41 204//204
f 112//112 113//113 90//90
f 231//231 248//248 165//165
f 202//202 217//217 271//271
f 73//73 151//151 69//69
f 72//72 170//170 278//278
f 208//208 59//59 153//153
f 198//198 305//305 2//2
f 220//220 234//234 140//140
f 125//125 163//163 241//241
f 7//7 171//171 295//295
f 185//185 287//287 58//58
f 42//42 260//260 30//30
f 299//299 99//99 167//167
f 162//162 244//244 221//221
f 102//102 87//87 92//92
f 208//208 189//189 56//56
f 90//90 23//23 121//121
f 180//180 264//264 197//197
f 20//20 105//105 85//85
f 162//162 215//215 155//155
f 214//214 288//288 226//226
f 227//227 239//239 238//238
f 6//6 306//306 55//55
f 172//172 156//156 147//147
f 280//280 25//25 133//133
f 6//6 137//137 216//216
f 204//204 45//45 287//287
f 37//37 49//49 141//141
f 296//296 297//297 260//260
f 129//129 132//132 131//131
f 228//228 295//295 182//182
f 10//10 19//19 117//117
f 181//181 153//153 257//257
f 145//145 239//239 232//232
f 299//299 26//26 94//94
f 144//144 255//255 164//164
f 151//151 171//171 69//69
f 280//280 254//254 292//292
f 262//262 269//269 195//195
f 70//70 165//165 126//126
f 230//230 229//229 163//163
f 51//51 188//188 53//53
f 297//297 160//160 260//260
f 227//227 218//218 232//232
f 301//301 188//188 181//181
f 17//17 18//18 15//15
f 52//52 187//187 158//158
f 272//272 267//267 199//199
f 172//172 78//78 156//156
f 138//138 38//38 30//30
f 174//174 168//168 38//38
f 262//262 196//196 1//1
f 100//100 87//87 88//88
f 68//68 82//82 214//214
f 196//196 257//257 27//27
f 261//261 57//57 13//13
f 43//43 135//135 160//160
f 144//144 164//164 131//131
f 194//194 44//44 1//1
f 154//154 178//178 68//68
f 291//291 240//240 241//241
f 214//214 226//226 251//251
f 64//64 63//63 36//36
f 102//102 88//88 87//87
f 268//268 274//274 264//264
f 156//156 285//285 168//168
f 16//16 127//127 22//22
f 178//178 245//245 68//68
f 61//61 285//285 79//79
f 184//184 293//293 50//50
f 178//178 169//169 256//256
f 228//228 182//182 61//61
f 52//52 54//54 41//41
f 263//263 190//190 271//271
f 78//78 210//210 156//156
f 50//50 293//293 186//186
f 214//214 283//283 80//80
f 119//119 93//93 96//96
f 204//204 54//54 45//45
f 215//215 222//222 177//177
f 20//20 282//282 105//105
f 162//162 60//60 215//215
f 294//294 293//293 265//265
f 204//204 41//41 54//54
f 31//31 211//211 145//145
f 302//302 46//46 50//50
f 40//40 266//266 271//271
f 145//145 218//218 33//33
f 205//205 216//216 137//137
f 162//162 5//5 22//22
f 64//64 237//237 63//63
f 16//16 304//304 127//127
f 77//77 131//131 164//164
f 231//231 229//229 248//248
f 40//40 273//273 266//266
f 256//256 134//134 175//175
f 196//196 284//284 1//1
f 291//291 241//241 163//163
f 242//242 60//60 251//251
f 28//28 146//146 226//226
f 228//228 61//61 79//79
f 174//174 138//138 156//156
f 104//104 123//123 86//86
f 32//32 224//224 239//239
f 227//227 33//33 218//218
f 143//143 30//30 38//38
f 141//141 143//143 29//29
f 152//152 134//134 47//47
f 280//280 290//290 148//148
f 42//42 45//45 260//260
f 90//90 300//300 75//75
f 129//129 279//279 126//126
f 80//80 283//283 169//169
f 277//277 111//111 139//139
f 262//262 301//301 196//196
f 261//261 295//295 57//57
f 57//57 22//22 127//127
f 277//277 14//14 164//164
f 13//13 57//57 127//127
f 184//184 34//34 35//35
f 145//145 232//232 218//218
f 145//145 211//211 32//32
f 59//59 257//257 153//153
f 220//220 140//140 32//32
f 51//51 303//303 189//189
f 61//61 168//168 285//285
f 13//13 127//127 149//149
f 188//188 189//189 176//176
f 61//61 152//152 168//168
f 210//210 221//221 285//285
f 178//178 256//256 175//175
f 49//49 138//138 30//30
f 181//181 188//188 286//286
f 177//177 245//245 203//203
f 215//215 177//177 155//155
f 195//195 44//44 303//303
f 162//162 251//251 60//60
f 78//78 252//252 169//169
f 194//194 284//284 59//59
f 222//222 32//32 31//31
f 242//242 140//140 234//234
f 262//262 195//195 301//301
f 28//28 288//288 33//33
f 162//162 22//22 244//244
f 250//250 255//255 84//84
f 152//152 175//175 134//134